<svg id="Capa_1" data-name="Capa 1" xmlns="http://www.w3.org/2000/svg" viewBox="0 0 432.34 105.28">
  <defs>
    <style>
      .cls-1 {
        fill: #0073a5;
      }

      .cls-2 {
        fill: #bebebe;
      }

      .cls-3 {
        fill: #f2f2f2;
      }
    </style>
  </defs>
  <title>logo-gerenciatecnica</title>
  <rect class="cls-1" x="128.64" y="30.51" width="18.19" height="52.42"/>
  <g>
    <path class="cls-1" d="M161.38,34.59h16.55v9.66h0.19C181.75,36.7,189,33.38,197.3,33.38c7.47,0,13.64,3.22,16.46,10.06,4.25-7,11.22-10.06,18.68-10.06,15.14,0,18.58,8.55,18.58,22.75V87H232.84V58.84c0-5.93-2.11-10.35-7.26-10.35-6.47,0-10.3,5.12-10.3,16.4V87H197.11V58.84c0-5.93-2.12-10.35-7.28-10.35-6.45,0-10.29,5.12-10.29,16.4V87H161.38V34.59Z" transform="translate(-4.04 -4.09)"/>
    <path class="cls-1" d="M303.51,49.59a20,20,0,0,0-11-2.92c-7.88,0-13.93,5.43-13.93,14.49,0,8.36,7.07,13.79,14.93,13.79a25.13,25.13,0,0,0,11.32-2.51l0.39,13.48a49.26,49.26,0,0,1-14.81,2.3c-17.37,0-30.6-10-30.6-27.37S273,33.38,290.4,33.38a32.56,32.56,0,0,1,14.42,2.93Z" transform="translate(-4.04 -4.09)"/>
    <path class="cls-1" d="M413.58,49.59a20,20,0,0,0-11-2.92c-7.88,0-13.93,5.43-13.93,14.49,0,8.36,7.07,13.79,15,13.79a25.12,25.12,0,0,0,11.3-2.51l0.4,13.48a49.39,49.39,0,0,1-14.85,2.3c-17.37,0-30.58-10-30.58-27.37s13.21-27.46,30.58-27.46a32.63,32.63,0,0,1,14.45,2.93Z" transform="translate(-4.04 -4.09)"/>
    <path class="cls-1" d="M313.56,94.38a22.21,22.21,0,0,0,7.16,1.1c4.47,0,7.88-2.62,9.19-7.26l-21.3-53.62H328.2L339.52,68.8h0.19l10.8-34.21h18.18L349.41,83.38c-5.16,13.19-9.08,26-25.75,26a52.89,52.89,0,0,1-11.3-1.22Z" transform="translate(-4.04 -4.09)"/>
    <path class="cls-2" d="M40.39,43.61a19.81,19.81,0,0,1,31.13,0L99.39,27.55a51.95,51.95,0,0,0-86.88,0Z" transform="translate(-4.04 -4.09)"/>
    <path class="cls-2" d="M53.08,75.35A19.69,19.69,0,0,1,37.54,48.53L9.66,32.5a51.56,51.56,0,0,0,43.42,74.91V75.35Z" transform="translate(-4.04 -4.09)"/>
    <path class="cls-1" d="M102.22,32.5l-27.85,16A19.69,19.69,0,0,1,58.8,75.35v32.06a51.75,51.75,0,0,0,49-51.58,51.13,51.13,0,0,0-5.62-23.33" transform="translate(-4.04 -4.09)"/>
    <path class="cls-1" d="M425.21,38.13a6.52,6.52,0,1,0,4.62-1.92,6.3,6.3,0,0,0-4.62,1.92m0.84,8.59a5.94,5.94,0,0,1,0-7.92,5.26,5.26,0,0,1,7.56,0,6,6,0,0,1,0,7.93,5.28,5.28,0,0,1-7.57,0m1.28-.14h1.25V43.19h1l2.13,3.39h1.33l-2.18-3.39a1.86,1.86,0,0,0,1.44-.59,2.19,2.19,0,0,0,.53-1.53q0-2.16-2.63-2.16h-2.94v7.67Zm1.25-6.69h1.49a2.2,2.2,0,0,1,1.13.26,0.93,0.93,0,0,1,.44.86,1,1,0,0,1-.39,1,2.28,2.28,0,0,1-1.19.24h-1.49V39.89Z" transform="translate(-4.04 -4.09)"/>
  </g>
  <g>
    <path class="cls-3" d="M138.35,101.18h5.27v5a7.06,7.06,0,0,1-4.91,2,6.4,6.4,0,1,1,0-12.79,7,7,0,0,1,4.91,2L142,98.9a4.54,4.54,0,0,0-3.31-1.44,4.35,4.35,0,0,0,0,8.69,4.79,4.79,0,0,0,2.72-.88V103h-3.08v-1.83Z" transform="translate(-4.04 -4.09)"/>
    <path class="cls-3" d="M148.27,97.68v3h6.39v2.05h-6.39v3.22h7.05V108H146V95.63h9.3v2.05h-7.05Z" transform="translate(-4.04 -4.09)"/>
    <path class="cls-3" d="M165,108l-2.91-4.16h-2.39V108h-2.25V95.63h5.38c2.64,0,4.62,1.69,4.62,4.1a4,4,0,0,1-3,3.87l3.09,4.39H165Zm-5.31-6.22h2.88c1.53,0,2.59-.77,2.59-2s-1.06-2-2.59-2h-2.88v4.07Z" transform="translate(-4.04 -4.09)"/>
    <path class="cls-3" d="M171.76,97.68v3h6.39v2.05h-6.39v3.22h7.05V108h-9.3V95.63h9.3v2.05h-7.05Z" transform="translate(-4.04 -4.09)"/>
    <path class="cls-3" d="M181.13,95.63h2.25l6.53,8.69V95.63h2.23V108h-2.23l-6.53-8.69V108h-2.25V95.63Z" transform="translate(-4.04 -4.09)"/>
    <path class="cls-3" d="M194.39,101.8a6.48,6.48,0,0,1,11.15-4.39l-1.6,1.49a4.06,4.06,0,0,0-3.06-1.44,4.35,4.35,0,0,0,0,8.69,4.1,4.1,0,0,0,3.08-1.44l1.58,1.48a6.44,6.44,0,0,1-4.66,2A6.53,6.53,0,0,1,194.39,101.8Z" transform="translate(-4.04 -4.09)"/>
    <path class="cls-3" d="M207.31,95.63h2.23V108h-2.23V95.63Z" transform="translate(-4.04 -4.09)"/>
    <path class="cls-3" d="M220.6,105.75h-6L213.69,108h-2.5l5.16-12.36h2.5L224,108h-2.48Zm-0.81-1.94-2.18-5.2-2.18,5.2h4.35Z" transform="translate(-4.04 -4.09)"/>
    <path class="cls-3" d="M234.07,97.68h-4V95.63h10.15v2.05h-4V108h-2.23V97.68Z" transform="translate(-4.04 -4.09)"/>
    <path class="cls-3" d="M244.43,97.68v3h6.39v2.05h-6.39v3.22h7.05V108h-9.3V95.63h9.3v2.05h-7.05Zm2.21-3.09h-1.53l2.1-2.73,2.05,0.4Z" transform="translate(-4.04 -4.09)"/>
    <path class="cls-3" d="M253.18,101.8a6.48,6.48,0,0,1,11.15-4.39l-1.6,1.49a4.07,4.07,0,0,0-3.06-1.44,4.35,4.35,0,0,0,0,8.69,4.1,4.1,0,0,0,3.08-1.44l1.58,1.48a6.44,6.44,0,0,1-4.66,2A6.53,6.53,0,0,1,253.18,101.8Z" transform="translate(-4.04 -4.09)"/>
    <path class="cls-3" d="M266.22,95.63h2.25l6.53,8.69V95.63h2.23V108H275l-6.53-8.69V108h-2.25V95.63Z" transform="translate(-4.04 -4.09)"/>
    <path class="cls-3" d="M280,95.63h2.23V108H280V95.63Z" transform="translate(-4.04 -4.09)"/>
    <path class="cls-3" d="M284.33,101.8a6.48,6.48,0,0,1,11.15-4.39l-1.6,1.49a4.07,4.07,0,0,0-3.06-1.44,4.35,4.35,0,0,0,0,8.69,4.1,4.1,0,0,0,3.08-1.44l1.58,1.48a6.44,6.44,0,0,1-4.66,2A6.53,6.53,0,0,1,284.33,101.8Z" transform="translate(-4.04 -4.09)"/>
    <path class="cls-3" d="M305.69,105.75h-6L298.78,108h-2.5l5.16-12.36h2.5L309.11,108h-2.48Zm-0.81-1.94-2.18-5.2-2.18,5.2h4.35Z" transform="translate(-4.04 -4.09)"/>
  </g>
</svg>
