<svg xmlns="http://www.w3.org/2000/svg" xmlns:xlink="http://www.w3.org/1999/xlink" viewBox="0 0 482.52 482.68">
  <defs>
    <style>
      .cls-1 {
        isolation: isolate;
      }

      .cls-2, .cls-3, .cls-4, .cls-5, .cls-6 {
        fill: #fff;
      }

      .cls-2, .cls-4 {
        stroke-miterlimit: 10;
      }

      .cls-2 {
        stroke: url(#Degradado_sin_nombre_66);
      }

      .cls-4 {
        stroke: #337382;
        stroke-width: 0.28px;
      }

      .cls-5 {
        font-size: 16.95px;
        font-family: Quicksand;
      }

      .cls-6 {
        mix-blend-mode: screen;
      }
    </style>
    <linearGradient id="Degradado_sin_nombre_66" data-name="Degradado sin nombre 66" x1="136.55" y1="248.97" x2="425.66" y2="248.97" gradientUnits="userSpaceOnUse">
      <stop offset="0" stop-color="#016380"/>
      <stop offset="0.17" stop-color="#0184b0"/>
      <stop offset="0.4" stop-color="#00ace9"/>
      <stop offset="0.51" stop-color="#0bf"/>
      <stop offset="0.54" stop-color="#00aef0"/>
      <stop offset="0.65" stop-color="#0080b9"/>
      <stop offset="0.76" stop-color="#015c8d"/>
      <stop offset="0.86" stop-color="#01426e"/>
      <stop offset="0.94" stop-color="#01325b"/>
      <stop offset="1" stop-color="#012c54"/>
    </linearGradient>
  </defs>
  <title>logo15aniversario</title>
  <g class="cls-1">
    <g id="Capa_1" data-name="Capa 1">
      <path class="cls-2" d="M338.39,272.7a73,73,0,0,0-31.59-14,57.73,57.73,0,0,0-28,1.52,53.12,53.12,0,0,0-11.5,4.83l1.87-16.67,1.87-16.67,36.89,0.2,116.52,0.2L417.82,225H278.54v-5.89l17.86,0.2,117.85,0.2-5.83-6.68-124-.19-30.22-.2-4.12,33.36L246,279.18l-3.09,3.38-5,3.52L262.5,88.73l-38-.23L138,152.81l11.2,0.09L222.5,99,194.75,296.61l41.5,0.37,5.4-4.65,3.53-4.51-0.25,4.32-0.25,4.32,3.14,0,3.14,0,0.49-3.88L252,288.8,256,254l4.07-34.83,4.71,0.2,4.71,0.2V225H265.2l-3.14,28.06-3.14,28.06a35.49,35.49,0,0,1,7.85-7.67,44,44,0,0,1,24.33-8.43c26-1.2,42.72,11.18,52.87,23.87a80.82,80.82,0,0,1,13.8,25.68l-2.92.34-2.92.34a57.7,57.7,0,0,0-7.38-16.59,61.51,61.51,0,0,0-31.67-25.31,72,72,0,0,0-12.31-2.34c-7.16-.75-16.34-0.68-24.38,2.63a45,45,0,0,0-17.78,13.89,48.67,48.67,0,0,0-5.72,8.92l3.51-.22,3.51-.22a23.84,23.84,0,0,1,2.62-3.94,43.76,43.76,0,0,1,9.2-8.57c4.39-3.09,10.46-4.48,15.43-5.09a60.16,60.16,0,0,1,8.85-.45l-0.2,2.55-0.2,2.55a63.31,63.31,0,0,0-12,2.3c-6.4,1.89-13.58,5.28-16.75,11.24h9.27c1.55-3.38,15.53-8.27,29.48-4.76s29.36,14.88,29.24,45.67c-6.75,49.09-62.89,53.84-73,1,0,0-1.59,45.43,32.86,45.48a48,48,0,0,0,20.89-4.76l1.89,2.48,1.89,2.48a29.44,29.44,0,0,1-6.37,2.75,65.22,65.22,0,0,1-19.39,2.89,44.1,44.1,0,0,1-22.11-5.73,30.45,30.45,0,0,1-7.32-5.65l-2,2.75-2,2.75a55.38,55.38,0,0,0,21.3,11c13.21,3.56,31.56,3.27,52.09-12.16,13.1-13.2,18.2-26.93,20-37.37s0.38-17.57.38-17.57l3.14-.39,3.14-.39s0.06,2.88-.25,7.61a142.56,142.56,0,0,1-2.5,18.68,62.82,62.82,0,0,1-22.08,34.44A65,65,0,0,1,304.64,402a46.85,46.85,0,0,1-13.88.45L290,405.91l-0.78,3.47a86.32,86.32,0,0,0,39.17-8.24c19.52-9.53,38.91-29.88,38.39-73.14C363.66,299.59,351.3,282.7,338.39,272.7ZM256,92.73l-14,108.6h-6.17L250,92.56Zm-10.67.17L223.18,267l-5.59.31L239.67,93.06Zm-14.83.17,5.5,0.5-10.86,86-5.46.3Zm-11.76,91.61,5.27-.33L213.6,266.9l-6.27.33ZM232.5,287.23H199l1-5.5h33.5Zm0.62-10L201,276.93l1.47-5.74,25.53,0,7.83-66.33,5.83,0.5-4.43,36.95Zm105.82,90.51c-5.32,8-11,11-11,11l-2.11-2.7-2.11-2.7A50.87,50.87,0,0,0,333.19,362a53.33,53.33,0,0,0,8.34-31.81c-1.38-19.62-10.67-31.24-19.63-38a49.6,49.6,0,0,0-17.56-8.54l0.74-2.35,0.74-2.35a62.33,62.33,0,0,1,19.72,9.42c10.06,7.16,20.51,19.23,22.08,38.85S344.26,359.76,338.93,367.73Z" transform="translate(-8.75 -9.4)"/>
      <path class="cls-3" d="M258.84,325.35a3.66,3.66,0,0,1,5.77,0l5.17-3a9.61,9.61,0,0,0-16.1,0Z" transform="translate(-8.75 -9.4)"/>
      <path class="cls-3" d="M261.19,331.25a3.66,3.66,0,0,1-2.88-5l-5.16-3a9.59,9.59,0,0,0,8,13.93v-6Z" transform="translate(-8.75 -9.4)"/>
      <path class="cls-3" d="M270.07,323.28l-5.16,3a3.67,3.67,0,0,1-2.88,5v6A9.59,9.59,0,0,0,270.07,323.28Z" transform="translate(-8.75 -9.4)"/>
      <rect class="cls-4" x="118.41" y="309.31" width="6.16" height="17.83"/>
      <path class="cls-4" d="M136.87,318.71h5.61V322h0.07c1.23-2.57,3.69-3.7,6.5-3.7a5.61,5.61,0,0,1,5.58,3.42A7.06,7.06,0,0,1,161,318.3c5.13,0,6.3,2.91,6.3,7.73v10.5H161.1V327c0-2-.71-3.52-2.46-3.52-2.19,0-3.49,1.74-3.49,5.58v7.53H149V327c0-2-.72-3.52-2.46-3.52-2.19,0-3.49,1.74-3.49,5.58v7.53h-6.16V318.71Z" transform="translate(-8.75 -9.4)"/>
      <path class="cls-4" d="M185,323.81a6.74,6.74,0,0,0-3.73-1,4.58,4.58,0,0,0-4.72,4.92,4.8,4.8,0,0,0,5.06,4.69,8.49,8.49,0,0,0,3.83-.85l0.13,4.58a16.62,16.62,0,0,1-5,.79c-5.89,0-10.37-3.42-10.37-9.31s4.48-9.34,10.37-9.34a11,11,0,0,1,4.89,1Z" transform="translate(-8.75 -9.4)"/>
      <path class="cls-4" d="M222.35,323.81a6.75,6.75,0,0,0-3.73-1,4.58,4.58,0,0,0-4.72,4.92,4.8,4.8,0,0,0,5.06,4.69,8.47,8.47,0,0,0,3.83-.85l0.14,4.58a16.64,16.64,0,0,1-5,.79c-5.89,0-10.37-3.42-10.37-9.31s4.48-9.34,10.37-9.34a11,11,0,0,1,4.89,1Z" transform="translate(-8.75 -9.4)"/>
      <path class="cls-4" d="M188.45,339a7.44,7.44,0,0,0,2.43.38,3.13,3.13,0,0,0,3.11-2.47l-7.22-18.23h6.64l3.83,11.63h0.07L201,318.71h6.16L200.6,335.3c-1.74,4.48-3.08,8.83-8.72,8.83a18,18,0,0,1-3.83-.41Z" transform="translate(-8.75 -9.4)"/>
      <circle class="cls-3" cx="221.01" cy="324.94" r="2.53"/>
      <path class="cls-4" d="M248.86,323.63a6.75,6.75,0,0,0-3.73-1,4.58,4.58,0,0,0-4.72,4.92,4.8,4.8,0,0,0,5.06,4.69,8.47,8.47,0,0,0,3.83-.85l0.14,4.58a16.64,16.64,0,0,1-5,.79c-5.89,0-10.37-3.42-10.37-9.31s4.48-9.34,10.37-9.34a11,11,0,0,1,4.89,1Z" transform="translate(-8.75 -9.4)"/>
      <path class="cls-4" d="M273.05,319.07h5.61v3.29h0.07c1.23-2.57,3.69-3.7,6.5-3.7a5.61,5.61,0,0,1,5.58,3.42,7.06,7.06,0,0,1,6.33-3.42c5.13,0,6.3,2.91,6.3,7.73v10.5h-6.16v-9.58c0-2-.71-3.52-2.46-3.52-2.19,0-3.49,1.74-3.49,5.58v7.53h-6.16v-9.58c0-2-.72-3.52-2.46-3.52-2.19,0-3.49,1.74-3.49,5.58v7.53h-6.16V319.07Z" transform="translate(-8.75 -9.4)"/>
      <text class="cls-5" transform="translate(185.06 304.01)">A<tspan x="10.95" y="0">N</tspan><tspan x="23.42" y="0">I</tspan><tspan x="28.59" y="0">V</tspan><tspan x="40.79" y="0">E</tspan><tspan x="51.18" y="0">R</tspan><tspan x="61.77" y="0">S</tspan><tspan x="72.82" y="0">ARIO</tspan></text>
      <g>
        <path class="cls-3" d="M263.83,166a0.22,0.22,0,0,1,.22-0.22h3.48a3.3,3.3,0,1,1,0,6.59h-3.27v5.05a0.21,0.21,0,0,1-.2.22,0.22,0.22,0,0,1-.22-0.22V166Zm3.7,5.93a2.85,2.85,0,0,0,2.87-2.85,2.88,2.88,0,0,0-2.87-2.88h-3.27V172h3.27Z" transform="translate(-8.75 -9.4)"/>
        <path class="cls-3" d="M279.83,175.11a2.36,2.36,0,0,0-.85-1.83,4,4,0,0,0-3-.88H273.9v5.05a0.21,0.21,0,0,1-.2.22,0.22,0.22,0,0,1-.22-0.22V166a0.22,0.22,0,0,1,.22-0.22h3.48a3.31,3.31,0,0,1,3.31,3.31,3.26,3.26,0,0,1-2.37,3.15,5.09,5.09,0,0,1,.61.31,2.88,2.88,0,0,1,1.54,2.54,4.19,4.19,0,0,0,.25,1.73,0.27,0.27,0,0,0,.27.2,0.24,0.24,0,0,1,.27.17,0.24,0.24,0,0,1-.29.27,0.74,0.74,0,0,1-.61-0.46A3.84,3.84,0,0,1,279.83,175.11ZM277.17,172h0a2.84,2.84,0,0,0,2.83-2.85,2.88,2.88,0,0,0-2.87-2.88H273.9V172h3.27Z" transform="translate(-8.75 -9.4)"/>
        <path class="cls-3" d="M289.27,165.63a6.14,6.14,0,1,1-5.78,6.12A6,6,0,0,1,289.27,165.63Zm0,11.8a5.69,5.69,0,1,0-5.32-5.68A5.57,5.57,0,0,0,289.27,177.43Z" transform="translate(-8.75 -9.4)"/>
        <path class="cls-3" d="M301.85,177.62a0.17,0.17,0,0,1-.07-0.08L297,166.12a0.2,0.2,0,0,1,.1-0.27,0.24,0.24,0,0,1,.31.1L302,176.89,306.59,166a0.2,0.2,0,0,1,.27-0.1,0.21,0.21,0,0,1,.12.27l-4.8,11.41a0,0,0,0,1,0,0,0.15,0.15,0,0,1-.1.1h0a0.1,0.1,0,0,1-.07,0h-0.05l0,0A0.09,0.09,0,0,1,301.85,177.62Z" transform="translate(-8.75 -9.4)"/>
        <path class="cls-3" d="M310.19,177.67h0a0.2,0.2,0,0,1-.2-0.22V166a0.22,0.22,0,0,1,.2-0.22h6.32a0.21,0.21,0,0,1,.2.22,0.2,0.2,0,0,1-.2.2h-6.1v5.29h5.37a0.21,0.21,0,0,1,.2.2,0.2,0.2,0,0,1-.2.22h-5.37v5.31h6.1a0.2,0.2,0,0,1,.2.2,0.21,0.21,0,0,1-.2.22h-6.29Z" transform="translate(-8.75 -9.4)"/>
        <path class="cls-3" d="M320.24,177.67h0a0.2,0.2,0,0,1-.2-0.22V166a0.22,0.22,0,0,1,.2-0.22h6.32a0.21,0.21,0,0,1,.2.22,0.2,0.2,0,0,1-.2.2h-6.1v5.29h5.37a0.21,0.21,0,0,1,.2.2,0.2,0.2,0,0,1-.2.22h-5.37v5.31h6.1a0.2,0.2,0,0,1,.2.2,0.21,0.21,0,0,1-.2.22h-6.29Z" transform="translate(-8.75 -9.4)"/>
        <path class="cls-3" d="M330,166a0.21,0.21,0,0,1,.22-0.22h2.27a5.93,5.93,0,1,1,0,11.87h-2.27a0.21,0.21,0,0,1-.22-0.22V166Zm2.49,11.22a5.51,5.51,0,1,0,0-11h-2.07v11h2.07Z" transform="translate(-8.75 -9.4)"/>
        <path class="cls-3" d="M347.23,165.63a6.14,6.14,0,1,1-5.78,6.12A6,6,0,0,1,347.23,165.63Zm0,11.8a5.69,5.69,0,1,0-5.32-5.68A5.57,5.57,0,0,0,347.23,177.43Z" transform="translate(-8.75 -9.4)"/>
        <path class="cls-3" d="M362.5,175.11a2.36,2.36,0,0,0-.85-1.83,4,4,0,0,0-3-.88h-2.08v5.05a0.21,0.21,0,0,1-.2.22,0.22,0.22,0,0,1-.22-0.22V166a0.22,0.22,0,0,1,.22-0.22h3.48a3.31,3.31,0,0,1,3.31,3.31,3.26,3.26,0,0,1-2.37,3.15,5.09,5.09,0,0,1,.61.31,2.88,2.88,0,0,1,1.54,2.54,4.19,4.19,0,0,0,.25,1.73,0.27,0.27,0,0,0,.27.2,0.24,0.24,0,0,1,.27.17,0.24,0.24,0,0,1-.29.27,0.74,0.74,0,0,1-.61-0.46A3.84,3.84,0,0,1,362.5,175.11Z" transform="translate(-8.75 -9.4)"/>
        <path class="cls-3" d="M301,192.67h0a0.2,0.2,0,0,1-.2-0.22V181a0.22,0.22,0,0,1,.2-0.22h6.32a0.21,0.21,0,0,1,.2.22,0.2,0.2,0,0,1-.2.2h-6.1v5.29h5.37a0.21,0.21,0,0,1,.2.2,0.2,0.2,0,0,1-.2.22h-5.37v5.31h6.1a0.2,0.2,0,0,1,.2.2,0.21,0.21,0,0,1-.2.22H301Z" transform="translate(-8.75 -9.4)"/>
        <path class="cls-3" d="M311.19,181.68v10.76a0.21,0.21,0,0,1-.2.22,0.24,0.24,0,0,1-.22-0.22V181.05a0.27,0.27,0,0,1,.08-0.19,0.23,0.23,0,0,1,.31,0L319,191.78V181.1a0.24,0.24,0,0,1,.22-0.22,0.21,0.21,0,0,1,.2.22v11.34a0.21,0.21,0,0,1-.2.22,0.22,0.22,0,0,1-.2-0.14s0,0,0,0Z" transform="translate(-8.75 -9.4)"/>
        <path class="cls-3" d="M323.19,191a0.22,0.22,0,0,1,.29-0.32,6.83,6.83,0,0,0,4.12,1.61c2.29,0,4.07-1.29,4.07-2.93,0-1.88-1.81-2.31-3.73-2.75s-4-.93-4-3.1c0-1.54,1.64-2.81,3.68-2.81a4.85,4.85,0,0,1,3.61,1.44,0.21,0.21,0,0,1,0,.3,0.23,0.23,0,0,1-.31,0,4.55,4.55,0,0,0-3.29-1.29c-1.78,0-3.24,1.07-3.24,2.37,0,1.81,1.78,2.24,3.66,2.68s4.05,0.93,4.05,3.17c0,1.88-2,3.36-4.49,3.36A7.16,7.16,0,0,1,323.19,191Z" transform="translate(-8.75 -9.4)"/>
        <path class="cls-3" d="M341.54,189.45h-5.93l-1.14,3a0.2,0.2,0,0,1-.19.15l-0.08,0a0.22,0.22,0,0,1-.1-0.29l4.27-11.39a0.19,0.19,0,0,1,.22-0.14,0.27,0.27,0,0,1,.22.14l4.27,11.39a0.23,0.23,0,0,1-.12.29l-0.07,0a0.29,0.29,0,0,1-.22-0.15Zm-5.76-.44h5.59l-2.8-7.42Z" transform="translate(-8.75 -9.4)"/>
        <path class="cls-3" d="M347.95,186.87l-4.15-5.71a0.18,0.18,0,0,1,.05-0.29,0.21,0.21,0,0,1,.29,0l4,5.54,4-5.54a0.23,0.23,0,0,1,.31,0,0.2,0.2,0,0,1,.07.29l-4.19,5.71v5.58a0.21,0.21,0,0,1-.2.22,0.22,0.22,0,0,1-.22-0.22v-5.58Z" transform="translate(-8.75 -9.4)"/>
        <path class="cls-3" d="M359,180.63a6.14,6.14,0,1,1-5.78,6.12A6,6,0,0,1,359,180.63Zm0,11.8a5.69,5.69,0,1,0-5.32-5.68A5.57,5.57,0,0,0,359,192.43Z" transform="translate(-8.75 -9.4)"/>
        <path class="cls-3" d="M367.45,191a0.22,0.22,0,0,1,.29-0.32,6.83,6.83,0,0,0,4.12,1.61c2.29,0,4.07-1.29,4.07-2.93,0-1.88-1.81-2.31-3.73-2.75s-4-.93-4-3.1c0-1.54,1.64-2.81,3.68-2.81a4.85,4.85,0,0,1,3.61,1.44,0.21,0.21,0,0,1,0,.3,0.23,0.23,0,0,1-.31,0,4.55,4.55,0,0,0-3.29-1.29c-1.78,0-3.24,1.07-3.24,2.37,0,1.81,1.78,2.24,3.66,2.68s4.05,0.93,4.05,3.17c0,1.88-2,3.36-4.49,3.36A7.16,7.16,0,0,1,367.45,191Z" transform="translate(-8.75 -9.4)"/>
        <path class="cls-3" d="M298.77,196.25A0.21,0.21,0,0,1,299,196h2.27a5.93,5.93,0,0,1,0,11.87H299a0.21,0.21,0,0,1-.22-0.22V196.25Zm2.49,11.22a5.51,5.51,0,0,0,0-11h-2.07v11h2.07Z" transform="translate(-8.75 -9.4)"/>
        <path class="cls-3" d="M310.35,207.89h0a0.2,0.2,0,0,1-.2-0.22V196.25a0.22,0.22,0,0,1,.2-0.22H316a0.21,0.21,0,0,1,.2.22,0.19,0.19,0,0,1-.2.2h-5.47v5.29h5.37a0.21,0.21,0,0,1,.2.2,0.2,0.2,0,0,1-.2.22h-5.37v5.31h6.1a0.2,0.2,0,0,1,.2.2,0.21,0.21,0,0,1-.2.22h-6.29Z" transform="translate(-8.75 -9.4)"/>
        <path class="cls-3" d="M328.77,204.45h-5.93l-1.14,3a0.2,0.2,0,0,1-.19.15l-0.08,0a0.22,0.22,0,0,1-.1-0.29l4.27-11.39a0.19,0.19,0,0,1,.22-0.14,0.27,0.27,0,0,1,.22.14l4.27,11.39a0.23,0.23,0,0,1-.12.29l-0.07,0a0.29,0.29,0,0,1-.22-0.15ZM323,204h5.59l-2.8-7.42Z" transform="translate(-8.75 -9.4)"/>
        <path class="cls-3" d="M333.06,196a0.22,0.22,0,0,1,.22-0.22h3.48a3.3,3.3,0,1,1,0,6.59h-3.27v5.05a0.21,0.21,0,0,1-.2.22,0.22,0.22,0,0,1-.22-0.22V196Zm3.7,5.93a2.85,2.85,0,0,0,2.87-2.85,2.88,2.88,0,0,0-2.87-2.88h-3.27V202h3.27Z" transform="translate(-8.75 -9.4)"/>
        <path class="cls-3" d="M346.16,196.22h-3.92A0.21,0.21,0,0,1,342,196a0.22,0.22,0,0,1,.22-0.22h8.26a0.21,0.21,0,0,1,.22.22,0.2,0.2,0,0,1-.22.2h-3.9v11.22a0.24,0.24,0,0,1-.22.22,0.21,0.21,0,0,1-.22-0.22V196.22Z" transform="translate(-8.75 -9.4)"/>
        <path class="cls-3" d="M354,196a0.2,0.2,0,0,1,.22-0.22,0.21,0.21,0,0,1,.2.22v11.43a0.21,0.21,0,0,1-.2.22,0.2,0.2,0,0,1-.22-0.22V196Z" transform="translate(-8.75 -9.4)"/>
        <path class="cls-3" d="M362.31,196.22h-3.92a0.21,0.21,0,0,1-.22-0.2,0.22,0.22,0,0,1,.22-0.22h8.26a0.21,0.21,0,0,1,.22.22,0.2,0.2,0,0,1-.22.2h-3.9v11.22a0.24,0.24,0,0,1-.22.22,0.21,0.21,0,0,1-.22-0.22V196.22Z" transform="translate(-8.75 -9.4)"/>
        <path class="cls-3" d="M370.09,196a0.21,0.21,0,0,1,.22-0.22,0.21,0.21,0,0,1,.2.22v6.88a4.32,4.32,0,1,0,8.65,0V196a0.22,0.22,0,0,1,.22-0.22,0.24,0.24,0,0,1,.22.22v6.88a4.76,4.76,0,1,1-9.51,0V196Z" transform="translate(-8.75 -9.4)"/>
        <path class="cls-3" d="M383.36,196a0.21,0.21,0,0,1,.22-0.22h2.27a5.93,5.93,0,1,1,0,11.87h-2.27a0.21,0.21,0,0,1-.22-0.22V196Zm2.49,11.22a5.51,5.51,0,1,0,0-11h-2.07v11h2.07Z" transform="translate(-8.75 -9.4)"/>
      </g>
      <path class="cls-3" d="M276.34,181.12a0.21,0.21,0,0,1,.22-0.22h2.27a5.93,5.93,0,0,1,0,11.87h-2.27a0.21,0.21,0,0,1-.22-0.22V181.12Zm2.49,11.22a5.51,5.51,0,0,0,0-11h-2.07v11h2.07Z" transform="translate(-8.75 -9.4)"/>
      <path class="cls-3" d="M287.91,192.77h0a0.2,0.2,0,0,1-.2-0.22V181.12a0.22,0.22,0,0,1,.2-0.22h5.69a0.21,0.21,0,0,1,.2.22,0.19,0.19,0,0,1-.2.2H288.1v5.29h5.37a0.21,0.21,0,0,1,.2.2,0.2,0.2,0,0,1-.2.22H288.1v5.31h6.1a0.2,0.2,0,0,1,.2.2,0.21,0.21,0,0,1-.2.22h-6.29Z" transform="translate(-8.75 -9.4)"/>
      <g>
        <path class="cls-6" d="M61.42,201c0.29-1.12.63-2.23,1-3.33l4.72-14.87c1.58-4,2.78-6.6,2.79-6.63l0.14-.31,0.33-.1c0.05,0,5.55-1.62,10.84-2.88,2.68-.66,5.33-1.24,7.3-1.65,0,0,2-.42,3-0.55l4.06-7.26c0.47-.81.94-1.67,1.42-2.56,0.87-1.61,5-8.89,6.15-10.68l47.88,0.49L151,151.75l-47.25-.27c-1.12,1.71-4.5,8.45-5.4,10.11-0.49.91-1,1.78-1.44,2.59l-4.51,8.07L92,172.14c-0.39.05-1.6,0.23-3.15,0.57-2,.41-4.6,1-7.27,1.64-4.51,1.08-9.19,2.41-10.45,2.78-0.36.79-1.36,3.08-2.6,6.2l-4.71,14.84a54.39,54.39,0,0,0-2,8L58.93,220c0.18,0.34.58,1,1.16,1.83l3.13,4.59L68,233l-0.71,6.68c-0.17,2.39-.17,5.36-0.17,8.49,0,1.82,0,3.71,0,5.6A75.36,75.36,0,0,0,67.59,265c0.1,1,.19,1.9.27,2.76l0.63,6.68-1.33,1.85c-0.52.72-1.17,1.62-1.68,2.49l-2.45,4,1.41,7.23c0.18,0.76.33,1.62,0.49,2.51a36.89,36.89,0,0,0,1.17,5.07l2.57,8.64c0.33,1,.63,2.07.93,3.12a52.73,52.73,0,0,0,1.75,5.39l5.93,14.6-0.71,2.25-1.08,4.28L74,342.12l4.7,8.95,5.76,8.88c0.6,0.88,1.19,1.81,1.79,2.75a63.93,63.93,0,0,0,5.11,7.19L93.06,372c4.65,5.9,9,11.46,13.08,15.26l7.07,7.3c0.39,0,1.25.12,2.44,0.12l6.2,0.07c4.39,0,8.69-.11,8.73-0.11h0.29l4.64,4c1.75,1.31,4,2.86,6.36,4.49,1.32,0.91,2.68,1.85,4,2.8,0.68,0.46,1.36.94,2,1.42,1.23,0.87,2.38,1.69,3.56,2.4l10,5.57,7.51-1.85,8-2.7,4.57,2c0.85,0.32,1.8.76,2.81,1.22a42.09,42.09,0,0,0,6.67,2.55L205.4,421l-0.45,1.41-14.33-4.55a42.51,42.51,0,0,1-6.87-2.63c-1-.45-1.91-0.87-2.77-1.2l-4.07-1.76-7.47,2.54-8.14,2L150.77,411c-1.24-.76-2.48-1.63-3.67-2.47-0.67-.47-1.34-0.95-2-1.4l-4-2.81c-2.38-1.65-4.64-3.2-6.44-4.55l-4.25-3.61c-1,0-4.73.12-8.5,0.1l-6.2-.07a26.86,26.86,0,0,1-2.88-.17l-0.25,0-7.41-7.65c-4.09-3.85-8.52-9.46-13.2-15.4l-1.63-2.06a65,65,0,0,1-5.22-7.33c-0.6-.93-1.19-1.84-1.78-2.73l-5.8-8.95-5-9.5,2.67-11.06,0.56-1.78L70,315.37a56.33,56.33,0,0,1-1.8-5.54c-0.29-1-.59-2.07-0.92-3.09l-2.57-8.63a38.07,38.07,0,0,1-1.21-5.25c-0.15-.86-0.3-1.69-0.48-2.45l-1.53-7.82,2.74-4.52c0.54-.93,1.21-1.85,1.75-2.6l1-1.4-0.58-6.13c-0.07-.87-0.16-1.78-0.26-2.75a77,77,0,0,1-.55-11.48c0-1.85,0-3.73,0-5.55,0-3.16,0-6.16.17-8.62l0.65-6.14L62,227.23l-3.14-4.6a24.4,24.4,0,0,1-1.38-2.19l-0.13-.23,3-14.35C60.65,204.3,61,202.67,61.42,201Z" transform="translate(-8.75 -9.4)"/>
        <path class="cls-6" d="M205.32,421l17.24,3.6c1.95,0.26,4,.47,6.17.69,1.29,0.13,2.6.26,3.9,0.41s2.49,0.24,3.73.4a42.24,42.24,0,0,0,6.32.46l15.23,0.08,2.69-.25,0.25,0.3s3.48,4.11,7.23,8.09c3.09,3.33,6.41,6.61,7.63,7.8l1.6-.14c0.75-.1,1.73-0.3,2.88-0.53l2.12-.41c1.4-.3,3-0.59,4.68-0.91,3.27-.62,7-1.32,10.58-2.22l14.95-4.45a23.12,23.12,0,0,0,3.42-1.23c0.51-.22,1-0.41,1.37-0.55l1.52-.61,3.49-6.86,3.44-7.26,0.32-.1a8.85,8.85,0,0,0,1.46-.67l4.16-2.18c1.17-.64,2.53-1.34,4-2.08,2.64-1.34,5.62-2.86,8.43-4.61L356,400a20.55,20.55,0,0,0,2.66-1.94c0.38-.32.73-0.6,1-0.84l1.58-1.26,5.28,0.34,4.81,0.23,1.43-1.14,0.84-.67a30.31,30.31,0,0,0,3.29-2.88c1.13-1.1,2.38-2.31,3.71-3.59,2.58-2.48,5.51-5.3,8.36-8.17l10.89-12.79a37.6,37.6,0,0,0,2.3-3.14c0.34-.49.64-0.94,0.92-1.31l1.34-1.94,6.66-1.69,6.26-1.75c0.23-.31.72-1,1.38-2.11l8.84-15.87c1.1-2.26,2.13-4.67,3.22-7.22,0.55-1.29,1.11-2.59,1.68-3.87A130.18,130.18,0,0,0,439,310.72c0.41-1.32.8-2.57,1.18-3.74a70.43,70.43,0,0,0,2.66-9.66c-0.47-.91-2.28-4.37-4.11-7.64s-3.62-6.32-4.16-7.23l-0.41-.11,0.18-.72a36.48,36.48,0,0,0,.82-5.6l1.34-12.73a39.25,39.25,0,0,0,.28-5.76l0.06-12.46c-0.82-.91-78-79.2-78-79.2h2.45s75.86,77.37,76.66,78.26l0.34,0.09-0.06,13.31a40,40,0,0,1-.3,5.94l-1.34,12.68a38.93,38.93,0,0,1-.79,5.54c0.54,0.9,2.38,4,4.18,7.26,2.12,3.8,4.23,7.86,4.25,7.9l0.31,0.6-0.3.19a72.06,72.06,0,0,1-2.7,9.79c-0.37,1.15-.76,2.39-1.17,3.7A130.35,130.35,0,0,1,433.81,329c-0.56,1.27-1.11,2.56-1.66,3.84-1.1,2.57-2.14,5-3.27,7.33L420,356.12c-1.48,2.47-1.81,2.81-2.19,2.78l-6.34,1.77-6.14,1.56-1,1.5c-0.29.38-.57,0.81-0.89,1.28-0.63.93-1.41,2.08-2.39,3.27l-10.93,12.83c-2.9,2.92-5.83,5.74-8.42,8.23-1.33,1.28-2.58,2.48-3.69,3.56a32,32,0,0,1-3.43,3l-0.82.66-1.88,1.5-10.1-.57-1.16.92c-0.32.23-.64,0.5-1,0.79a21.22,21.22,0,0,1-2.83,2.07L344.91,409c-2.88,1.79-5.89,3.33-8.56,4.68-1.43.73-2.77,1.42-3.95,2.07l-4.15,2.17a12,12,0,0,1-1.41.67l-3.18,6.7-3.75,7.38-2.07.83c-0.41.15-.84,0.33-1.31,0.53a25,25,0,0,1-3.61,1.3L298,439.76c-3.69.93-7.42,1.63-10.7,2.25-1.68.31-3.26,0.62-4.67,0.91l-2.12.42c-1.18.23-2.19,0.43-3,.54l-2.32.22-0.25-.24c-1.05-1-4.62-4.53-7.93-8.09-3.19-3.39-6.17-6.84-7-7.85l-2,.19L242.71,428a43.47,43.47,0,0,1-6.53-.47c-1.22-.15-2.46-0.3-3.69-0.39s-2.62-.28-3.91-0.41c-2.14-.21-4.26-0.43-6.27-0.71L205,422.43Z" transform="translate(-8.75 -9.4)"/>
        <path class="cls-6" d="M49.87,197.77A212.45,212.45,0,0,1,63.64,160c8.62-16.77,18.09-31.39,26.68-41.2,1.42-1.65,2.72-3.19,3.9-4.58,2-2.37,3.68-4.34,5-5.81l3.54-3.42,2.21,2.29-3.48,3.36c-1.27,1.37-2.91,3.31-4.88,5.64-1.19,1.41-2.5,3-3.93,4.62-8.43,9.63-17.74,24-26.23,40.53a212.57,212.57,0,0,0-19,65.4,200.81,200.81,0,0,0,5.77,77.68A204.9,204.9,0,0,0,87.88,374.4c14.6,19.11,31.78,35.19,49.69,46.5a76.32,76.32,0,0,0,9.62,5.94l2.7,1.5c1.44,0.76,2.86,1.58,4.26,2.38a77.92,77.92,0,0,0,7.08,3.73L171.78,439c1.07,0.43,2.13.9,3.16,1.36a38.17,38.17,0,0,0,5.65,2.19l17.73,5.62-1,3-17.65-5.6a38.05,38.05,0,0,1-6.07-2.34c-1-.44-2-0.9-3.09-1.33L160,437.37a79,79,0,0,1-7.4-3.89c-1.37-.78-2.77-1.58-4.21-2.35l-2.7-1.5a77.76,77.76,0,0,1-9.89-6.12c-18.11-11.43-35.59-27.77-50.41-47.17a208.14,208.14,0,0,1-35.12-71,204,204,0,0,1-5.86-78.92A217.5,217.5,0,0,1,49.87,197.77Z" transform="translate(-8.75 -9.4)"/>
        <path class="cls-6" d="M37.51,209.9L50,212.51l-0.44,2.11c-0.07.36-.2,1-0.36,1.7-0.23,1.05-.52,2.34-0.73,3.86s-0.37,3.62-.62,6c-0.49,4.45-1,9.48-1.47,15.24a213,213,0,0,0,7.15,63.1l3,10a46.6,46.6,0,0,0,2.1,6.14l6.53,16,9.62,18.14,5.06,7.78A127.17,127.17,0,0,0,90.2,377L96,384.32c0.56,0.74.89,1.1,1,1.21l-9.13,8.86A23.71,23.71,0,0,1,86,392.15L80.29,385A138.32,138.32,0,0,1,69,369.27L62.5,359.08l-9.08-17.4-6.55-16A57.16,57.16,0,0,1,44.25,318l-3-10.05a226.57,226.57,0,0,1-7.62-67.35c0.45-6.18,1-11.57,1.52-15.9,0.25-2.26.47-4.28,0.63-6,0.31-2.2.65-3.8,0.94-5.11,0.11-.53.22-1,0.29-1.41Z" transform="translate(-8.75 -9.4)"/>
        <path class="cls-6" d="M102.79,105l10.3-10,15.34-12.22c1.11-.78,2.18-1.47,3.28-2.17l12.78-8.31c2.62-1.51,5.32-2.91,8.1-4.34,1.58-.82,3.19-1.65,4.82-2.52a211.83,211.83,0,0,1,66.15-20.29A206.23,206.23,0,0,1,373.93,84.65a212,212,0,0,1,47.64,50.1c1,1.59,2,3.11,3,4.6,1.72,2.61,3.39,5.15,4.88,7.68l7.09,13.58c0.61,1.15,1.2,2.28,1.75,3.4l7.69,19.2L449.79,196l-3,.91-4.09-13.74-7.27-17.89c-0.49-1-1.06-2.09-1.65-3.22l-7.06-13.52c-1.43-2.41-3.07-4.91-4.76-7.48-1-1.5-2-3-3-4.59A208.44,208.44,0,0,0,372,87.19,203.05,203.05,0,0,0,224,48.36a208.5,208.5,0,0,0-65.11,20c-1.59.85-3.21,1.68-4.81,2.51-2.73,1.41-5.39,2.78-7.89,4.23l-12.71,8.27c-1.07.69-2.11,1.36-3.1,2L114.61,98,105,107.31Z" transform="translate(-8.75 -9.4)"/>
        <path class="cls-6" d="M207.07,38.59l9.44-1.84c1.07-.22,2.22-0.45,3.44-0.58l17.42-1.65c13.4-.64,39.55-0.59,67.58,6.66,28,7.45,50.82,20.24,61.93,27.21l14.53,10.08c1.09,0.78,2,1.55,2.81,2.27L391.53,87l-8.24,9.69L377,91.3c-0.3-.24-0.71-0.6-1.14-1s-1.13-1-1.8-1.47L359.87,79a222,222,0,0,0-58.15-25.52,222.4,222.4,0,0,0-63.45-6.27l-17,1.62c-0.71.08-1.46,0.25-2.18,0.39l-1.62.32-7.95,1.55Z" transform="translate(-8.75 -9.4)"/>
        <path class="cls-6" d="M198.16,448.13l18.12,3.78a38.11,38.11,0,0,0,6.08.89c1.12,0.1,2.27.21,3.46,0.37l11.38,1.21a77.76,77.76,0,0,0,8,.22c1.61,0,3.25,0,4.93,0l3,0a75,75,0,0,0,11.16-.44c21.3-1.08,44.16-6.66,66.26-16.14A204.89,204.89,0,0,0,395,394.16a200.88,200.88,0,0,0,43.15-64.86A212.64,212.64,0,0,0,453.73,263c0.7-18.51-.35-35.62-3-48.13-0.43-2.17-.82-4.15-1.16-6-0.57-3-1.05-5.49-1.5-7.39l-1.36-4.55,3-.91,1.38,4.63c0.48,2,1,4.57,1.56,7.62,0.34,1.8.72,3.78,1.15,5.93,2.66,12.74,3.74,30.13,3,48.92a215.9,215.9,0,0,1-15.81,67.38,203.88,203.88,0,0,1-43.84,65.89A208.1,208.1,0,0,1,331.84,441c-22.44,9.63-45.68,15.3-67.21,16.37a76.88,76.88,0,0,1-11.49.47l-3,0c-1.68,0-3.29,0-4.87,0a79,79,0,0,1-8.35-.24l-11.43-1.21c-1.18-.15-2.3-0.25-3.38-0.36a38,38,0,0,1-6.52-1l-18-3.76Z" transform="translate(-8.75 -9.4)"/>
        <path class="cls-6" d="M313.06,447.06l4.06-3.79c0.11,0,.59-0.19,1.39-0.53l8.75-3.55a125.14,125.14,0,0,0,16-7.4l12.4-6.85L369,416.29l13.35-10.58a47.55,47.55,0,0,0,5-4.44l7.61-7.36a213.1,213.1,0,0,0,37.19-51.56c2.38-5.07,4.37-9.74,6.13-13.86,0.91-2.15,1.74-4.07,2.48-5.74,0.44-1.14.82-2.41,1.14-3.45,0.21-.69.4-1.31,0.58-1.82l0.59-1.89,12.13,3.84-0.65,2.05c-0.19.56-.33,1-0.49,1.54-0.39,1.28-.88,2.85-1.57,4.62-0.84,1.9-1.63,3.76-2.51,5.83-1.71,4-3.84,9-6.41,14.46a226.49,226.49,0,0,1-39.69,55l-7.66,7.41a57.36,57.36,0,0,1-6.17,5.44l-13.87,11-20.59,12.92L349.37,443A135.71,135.71,0,0,1,332,451l-8.58,3.48a25.72,25.72,0,0,1-2.46.92L319,449.35Z" transform="translate(-8.75 -9.4)"/>
        <rect class="cls-6" x="197.98" y="426.57" width="1.93" height="7.66" transform="matrix(0.3, -0.95, 0.95, 0.3, -280.25, 480.17)"/>
        <path class="cls-6" d="M167.78,419.68l0.79-1.76c0.34,0.15.72,0.31,1.14,0.48l8.89,3.84L177.83,424,169,420.18C168.56,420,168.15,419.84,167.78,419.68Zm16.85,7.2,0.58-1.84,3.47,1.1L188.11,428Z" transform="translate(-8.75 -9.4)"/>
        <path class="cls-6" d="M66,214l1.89,0.38-0.39,1.9c-0.09.57-.25,1.27-0.43,2a45,45,0,0,0-1,5.38c0,0.41-.07.85-0.11,1.31L64,224.87c0-.45.08-0.89,0.11-1.32a47.74,47.74,0,0,1,1-5.62c0.17-.75.32-1.41,0.42-2Zm-2.74,18.07,1.92,0.21c-0.13,1.16-.26,2.36-0.38,3.62l-1.92-.19C63,234.46,63.09,233.25,63.22,232.08Zm-0.9,11,1.93,0.08c-0.11,2.67-.12,5.18,0,7.7,0,2.22,0,4.48.1,6.8l-1.93.06c-0.09-2.34-.12-4.62-0.1-6.83C62.2,248.32,62.21,245.76,62.32,243Zm0.35,20.13,1.93-.13c0.24,3.56.6,7.19,1.06,10.82l-1.91.24C63.27,270.44,62.91,266.76,62.67,263.17Zm2.12,18.17,1.9-.31c0.2,1.18.4,2.38,0.63,3.57l-1.9.35Q65.09,283.14,64.79,281.34Zm2.09,10.79,1.88-.43c1.06,4.76,2.3,9.47,3.68,14l-1.85.56C69.2,301.69,68,296.92,66.88,292.12Zm5.4,19.38,1.83-.62c1.15,3.44,2.43,6.86,3.78,10.18l-1.78.74C74.73,318.45,73.44,315,72.28,311.51Zm6.75,17,1.75-.82c0.45,1,.91,1.94,1.38,2.91l0.18,0.32-1.7.92-0.2-.36C80,330.48,79.49,329.51,79,328.53Zm5,9.77,1.71-.87a100.31,100.31,0,0,0,7.2,12.49L91.34,351A101.84,101.84,0,0,1,84,338.3Zm10.3,17.27,1.62-1.05,3.16,4.86,3.14,3.95-1.51,1.19-3.84-5Zm10.88,14.68,1.53-1.18q1.11,1.43,2.27,2.79l-1.47,1.25Q106.32,371.71,105.18,370.25Zm7.28,8.28,1.39-1.34,2.62,2.7q1.43,1.45,2.81,2.9l3.32,3.44c0.44,0.41.93,0.83,1.42,1.25L122.77,389q-0.77-.65-1.52-1.34l-3.37-3.48-2.79-2.89Q113.78,379.91,112.46,378.53Zm14.47,14,1.25-1.48,4.58,3.91c1.13,1,2.34,2.06,3.72,3.11l-1.17,1.54c-1.43-1.09-2.68-2.15-3.83-3.21Zm14.39,11.29,1.09-1.59c0.92,0.63,1.82,1.25,2.67,1.88l0.32,0.23-1.11,1.57-0.32-.22C143.11,405,142.23,404.41,141.32,403.78Zm9,6.22,1-1.62a38.2,38.2,0,0,0,3.54,2.05l9.1,5.06-0.94,1.69-9.05-5A40.07,40.07,0,0,1,150.33,410Z" transform="translate(-8.75 -9.4)"/>
        <polygon class="cls-6" points="59.49 193.7 61.38 194.09 59.81 201.59 57.92 201.2 59.49 193.7"/>
        <polygon class="cls-6" points="59.52 193.6 61.83 186.3 63.67 186.89 61.35 194.19 59.52 193.6"/>
        <path class="cls-6" d="M72.76,188.82l1.1-3.47,1.84,0.58-1.1,3.48Zm4-10.27,3.82-8.86c0.16-.42.34-0.83,0.5-1.19l1.76,0.79c-0.16.34-.31,0.72-0.48,1.13l-3.84,8.88Z" transform="translate(-8.75 -9.4)"/>
        <path class="cls-6" d="M83.55,163.79l5-9a38.91,38.91,0,0,1,2.13-3.7l1.62,1a38.2,38.2,0,0,0-2.05,3.55l-5.06,9.09ZM94.87,145l0.22-.32c0.63-.86,1.23-1.75,1.86-2.65l1.59,1.09c-0.63.93-1.25,1.81-1.88,2.67l-0.23.32Zm6.3-9c1.09-1.43,2.13-2.69,3.21-3.84l3.88-4.56,1.47,1.25-3.9,4.58c-1.06,1.14-2.07,2.35-3.11,3.72Zm10.61-12.55c0.44-.52.88-1,1.34-1.52l3.48-3.36c1-.92,1.92-1.86,2.89-2.8l2.71-2.62,1.33,1.39-2.7,2.62c-1,.94-1.93,1.89-2.89,2.81l-3.44,3.32c-0.4.44-.83,0.93-1.25,1.42Zm15.84-15.27c0.93-.79,1.88-1.57,2.86-2.32l1.18,1.52c-1,.74-1.88,1.49-2.79,2.27Zm8.58-6.8,5-3.84L145.16,95l1.05,1.62-4.86,3.16-3.94,3.13Zm13.49-9.37a100.65,100.65,0,0,1,12.73-7.34l0.88,1.71a100.81,100.81,0,0,0-12.49,7.2Zm19.17-10.69,0.37-.21c1-.49,2-1,3-1.41L173,81.49c-1,.46-1.94.91-2.91,1.38l-0.32.18Zm10.06-4.54c3.36-1.37,6.83-2.67,10.3-3.84l0.61,1.83C186.41,76,183,77.25,179.66,78.6Zm15.53-5.51c4.6-1.4,9.36-2.65,14.16-3.72L209,69.47c-4.76,1.07-9.48,2.3-14,3.69Zm21.33-5.18q1.81-.33,3.61-0.63l0.31,1.9c-1.19.19-2.38,0.4-3.57,0.62Zm10.85-1.68c3.66-.47,7.34-0.82,10.93-1.07l0.13,1.93c-3.56.25-7.2,0.6-10.82,1.06Zm16.42-1.35c2.34-.08,4.62-0.12,6.83-0.1,2.52-.09,5.09-0.08,7.81,0L257.61,65c-2.67-.11-5.18-0.12-7.7,0-2.22,0-4.48,0-6.79.1Zm22,0.46c1.26,0.12,2.47.25,3.64,0.38l-0.21,1.91c-1.16-.13-2.36-0.26-3.61-0.37Zm10.86,1.18,1.31,0.11a48.21,48.21,0,0,1,5.63,1c0.75,0.17,1.41.32,2,.41l1.94,0.41-0.4,1.88-1.89-.4c-0.57-.1-1.26-0.25-2.05-0.43a45.81,45.81,0,0,0-5.37-1l-1.32-.11Z" transform="translate(-8.75 -9.4)"/>
        <rect class="cls-6" x="292.72" y="65.28" width="1.93" height="7.66" transform="translate(157.35 333.11) rotate(-78.22)"/>
        <rect class="cls-6" x="300.12" y="67.22" width="1.93" height="7.66" transform="translate(133.56 327.15) rotate(-72.4)"/>
        <path class="cls-6" d="M311.33,75.32l0.58-1.84,3.47,1.1-0.58,1.84Zm10.09,3.9,0.77-1.77,8.86,3.82c0.41,0.16.82,0.34,1.18,0.51l-0.79,1.76c-0.34-.16-0.72-0.31-1.14-0.48Z" transform="translate(-8.75 -9.4)"/>
        <path class="cls-6" d="M336,85.95l0.94-1.68,9.05,5a38.22,38.22,0,0,1,3.69,2.13l-1,1.63A38.25,38.25,0,0,0,345.1,91Zm18.61,11.21,1.11-1.58,0.32,0.23c0.86,0.63,1.74,1.23,2.65,1.86l-1.09,1.59c-0.92-.64-1.81-1.26-2.67-1.88Zm8.91,6.26,1.17-1.54c1.43,1.09,2.68,2.13,3.83,3.2l4.55,3.88-1.25,1.46-4.58-3.9C366.13,105.47,364.92,104.47,363.53,103.42ZM376,114l1.25-1.47c0.51,0.44,1,.87,1.52,1.34l3.37,3.49q1.38,1.44,2.8,2.88l2.63,2.71-1.39,1.33-2.62-2.7-2.81-2.89-3.32-3.45C377,114.81,376.49,114.38,376,114Zm15,15.62,1.47-1.25q1.19,1.39,2.33,2.86l-1.53,1.18C392.58,131.42,391.82,130.49,391,129.58Zm6.76,8.53,1.51-1.19,3.83,5,2.57,3.94-1.62,1.05-3.16-4.86Zm9.31,13.41,1.57-1.11A101,101,0,0,1,416,163.14l-1.72.88A101,101,0,0,0,407.11,151.52Zm10.57,19,1.7-.92,0.2,0.36c0.49,1,1,2,1.41,3l-1.75.81c-0.45-1-.91-1.94-1.38-2.9Zm4.45,9.87,1.79-.74c1.37,3.36,2.66,6.83,3.83,10.3l-1.83.61C424.76,187.11,423.48,183.69,422.13,180.37Zm5.44,15.36,1.85-.56c1.4,4.6,2.65,9.36,3.72,14.16l-1.89.42C430.2,205,429,200.27,427.57,195.73Zm5.13,21.11,1.9-.34q0.33,1.81.63,3.6l-1.91.31C433.13,219.23,432.93,218,432.71,216.84Zm1.67,10.75,1.92-.25c0.46,3.66.82,7.34,1.07,10.94l-1.93.12C435.19,234.85,434.83,231.21,434.37,227.59Zm1.34,16.25,1.93-.08q0.13,3.52.1,6.84c0.09,2.52.08,5.09,0,7.81l-1.93-.08c0.11-2.67.12-5.19,0-7.7C435.83,248.41,435.8,246.15,435.71,243.84Zm-0.45,21.7,1.92,0.19q-0.18,1.88-.38,3.63l-1.92-.21C435,268,435.14,266.79,435.26,265.54Zm-1.18,10.86,1.92,0.18c0,0.45-.08.88-0.11,1.31a48.26,48.26,0,0,1-1,5.63c-0.17.74-.32,1.4-0.41,2l-0.4,1.93-1.89-.39,0.4-1.9c0.09-.57.25-1.26,0.43-2.05a45.73,45.73,0,0,0,1-5.37C434,277.32,434,276.86,434.08,276.4Z" transform="translate(-8.75 -9.4)"/>
        <polygon class="cls-6" points="422.71 281.05 424.61 281.44 423.04 288.93 421.15 288.54 422.71 281.05"/>
        <polygon class="cls-6" points="418.86 295.75 421.18 288.44 423.01 289.03 420.7 296.33 418.86 295.75"/>
        <path class="cls-6" d="M417.2,332.16c0.16-.34.32-0.73,0.48-1.14l3.84-8.89,1.77,0.77-3.82,8.85c-0.17.42-.34,0.82-0.5,1.19Zm7.12-16.65,1.1-3.47,1.84,0.58-1.1,3.47Z" transform="translate(-8.75 -9.4)"/>
        <path class="cls-6" d="M213.7,432.89l1.89,0.39c0.57,0.1,1.27.25,2.05,0.43a47.21,47.21,0,0,0,5.37,1l1.32,0.11-0.18,1.92-1.31-.11a48.21,48.21,0,0,1-5.63-1c-0.75-.17-1.41-0.32-2-0.42l-1.94-.4Zm17.89,2.7c1.16,0.13,2.36.26,3.61,0.38L235,437.9q-1.89-.18-3.63-0.38Zm10.82,0.89c2.67,0.11,5.19.13,7.7,0,2.22,0,4.47,0,6.79-.1l0.07,1.93q-3.52.13-6.83,0.1c-2.52.09-5.09,0.08-7.81,0Zm19.92-.35c3.55-.24,7.19-0.59,10.82-1.05l0.24,1.92c-3.66.46-7.34,0.82-10.93,1.06Zm18-2.1c1.18-.19,2.37-0.4,3.57-0.62l0.35,1.89c-1.21.23-2.41,0.44-3.61,0.64ZM291,432c4.75-1.06,9.47-2.3,14-3.68l0.56,1.84c-4.6,1.4-9.36,2.65-14.16,3.73Zm19.19-5.34c3.44-1.16,6.86-2.43,10.18-3.79l0.73,1.79c-3.36,1.37-6.83,2.67-10.3,3.83ZM327,420q1.46-.68,2.91-1.39l0.32-.18,0.92,1.7-0.36.2c-1,.5-2,1-3,1.42Zm9.71-4.93a99.92,99.92,0,0,0,12.49-7.2l1.11,1.58a102.08,102.08,0,0,1-12.73,7.34Zm17.09-10.2,4.86-3.16,3.95-3.14,1.2,1.51-5,3.83-3.94,2.57ZM368.36,394q1.43-1.11,2.79-2.27l1.25,1.47c-0.93.79-1.88,1.57-2.86,2.33Zm8.13-7.14,2.7-2.62,2.9-2.81,3.44-3.32c0.4-.44.83-0.93,1.25-1.42l1.47,1.25c-0.43.51-.88,1-1.34,1.52l-3.48,3.37c-1,.92-1.92,1.85-2.89,2.79s-1.8,1.75-2.71,2.63Zm13.82-14.34,3.9-4.58c1.05-1.14,2.07-2.35,3.11-3.72l1.54,1.16a49.83,49.83,0,0,1-3.21,3.85l-3.87,4.55Zm11.17-14.22c0.63-.92,1.26-1.82,1.88-2.67l0.23-.32,1.57,1.12-0.23.32c-0.63.86-1.24,1.74-1.86,2.65Zm6.19-9a37.36,37.36,0,0,0,2-3.54l5.06-9.09,1.68,0.94-5,9a38.78,38.78,0,0,1-2.13,3.69Z" transform="translate(-8.75 -9.4)"/>
        <rect class="cls-6" x="205.37" y="428.51" width="1.93" height="7.66" transform="translate(-267.84 536.37) rotate(-78.18)"/>
        <path class="cls-6" d="M30.06,199l2.07,0.43-1.74,8.3-2.07-.43ZM26.6,215.6L28.68,216l-0.11.53-0.82,7.8-2.11-.22Zm-1.85,17,2.11,0.23-0.39,3.69a40.73,40.73,0,0,0-.27,4.66l-2.12,0a41.08,41.08,0,0,1,.28-4.88Zm-0.69,17h2.12l0,8.48-2.12,0Zm0.48,17,2.11-.19,0.79,8.38-2.11.22Zm1.68,17,2.09-.35c0.19,1.1.41,2.22,0.64,3.33,0.17,0.87.35,1.74,0.51,2.61l0.46,2.36-2.08.4-0.46-2.37c-0.16-.87-0.33-1.74-0.5-2.58C26.64,285.86,26.42,284.73,26.23,283.6Zm3.24,16.68,2.08-.4,0.83,4.28c0.33,1.25.69,2.57,1.07,3.89l-2,.57q-0.56-2-1.1-4Zm4.39,16.5,2-.64q1.27,4,2.69,8l-2,.71Q35.14,320.81,33.85,316.78Zm5.68,16.06,2-.78Q43,336,44.72,339.88l-1.95.84Q41.08,336.79,39.54,332.84Zm6.74,15.63,1.92-.9q1.8,3.81,3.73,7.58l-1.88,1Q48.08,352.32,46.27,348.48Zm7.8,15.2,1.83-1.08,0.68,1.2q1.81,3,3.72,6l-1.78,1.15q-1.94-3-3.78-6.06ZM63.25,378L65,376.79q2.41,3.47,4.93,6.86l-1.7,1.27Q65.69,381.51,63.25,378Zm10.18,13.65,1.66-1.33c1.76,2.21,3.56,4.38,5.38,6.51l-1.61,1.38Q76.1,395,73.43,391.66Zm11.06,13,1.57-1.43q2.86,3.15,5.79,6.14l-1.52,1.48C88.37,408.78,86.42,406.71,84.49,404.61Zm12,12.15,1.38-1.61,6.45,5.5-1.37,1.61Zm12.9,11,1.39-1.61c1,0.88,2,1.75,3.11,2.55l3.57,2.48-1.21,1.74-3.6-2.5C111.52,429.58,110.45,428.68,109.39,427.77Zm13.82,10,1.21-1.74,6.89,4.76-1,1.86-1.19-.78Zm14.47,9,1-1.85,3.61,2c1.29,0.68,2.55,1.41,3.8,2.12l-1.05,1.84c-1.23-.7-2.47-1.42-3.76-2.1Zm15.06,8,0.84-1.94,7.78,3.36-0.84,1.95Zm15.57,6.73,0.84-1.94,2.07,0.89,5.84,1.85-0.65,2-5.93-1.89Zm16.19,5.4,0.64-2,8.09,2.57-0.64,2Z" transform="translate(-8.75 -9.4)"/>
        <path class="cls-6" d="M31.25,193.3l2.56-8.09,2,0.64-2.56,8.09Zm5.13-16.17,1.89-5.94L39.21,169l1.94,0.84-0.9,2.07-1.85,5.83Zm6.19-15.89,3.36-7.79,1.95,0.84-3.36,7.78Zm7.26-15.45c0.7-1.22,1.41-2.47,2.09-3.75l2-3.64,1.85,1-2,3.61c-0.67,1.29-1.4,2.55-2.12,3.8ZM58.09,131l0.79-1.19L63,123.93l1.74,1.21L59.95,132Zm9.72-14,2.5-3.6c0.85-1.14,1.75-2.2,2.66-3.25l1.61,1.38c-0.88,1-1.75,2-2.55,3.11l-2.48,3.57Zm10.67-13.31L84,97.21l1.61,1.37L80.08,105ZM89.93,91q3-2.95,6.19-5.84l1.43,1.56q-3.14,2.87-6.14,5.79Zm12.58-11.48q3.22-2.75,6.56-5.42l1.32,1.66c-2.21,1.76-4.38,3.56-6.51,5.37Zm13.31-10.62q3.4-2.55,6.91-5l1.21,1.75q-3.47,2.41-6.85,4.93Zm14-9.71q3-1.93,6.06-3.77l1.19-.67,1.08,1.83-1.2.68c-2,1.2-4,2.46-6,3.72Zm14.79-8.49q3.8-1.95,7.65-3.76l0.9,1.92q-3.81,1.8-7.58,3.73ZM160,43.48c2.61-1.13,5.24-2.2,7.88-3.24l0.77,2q-3.92,1.54-7.81,3.21Zm15.86-6.21c2.69-.95,5.39-1.86,8.07-2.71l0.64,2q-4,1.27-8,2.68Zm16.23-5.15c1.33-.37,2.66-0.74,4-1.09l4.35-.85,0.4,2.07-4.28.84c-1.25.34-2.57,0.7-3.9,1.07Zm16.67-3.57,2.37-.46,2.59-.5c1.13-.23,2.27-0.46,3.4-0.65l0.35,2.1c-1.1.18-2.22,0.4-3.33,0.63-0.87.17-1.74,0.35-2.61,0.5l-2.36.47Zm16.89-2.49,0.07,1.06-0.06-1.07,8.41-.79,0.2,2.11-8.38.79Zm17-1.3,8.48,0V26.9l-8.48,0V24.75Zm17,0a39.23,39.23,0,0,1,4.88.28l3.67,0.38-0.22,2.11-3.69-.39a39.6,39.6,0,0,0-4.66-.27Zm17,1.55,8.52,1-0.42,2.08-0.52-.11-7.81-.81ZM293.44,29l8.3,1.74-0.43,2.07L293,31.1Z" transform="translate(-8.75 -9.4)"/>
        <path class="cls-6" d="M306.8,34l0.64-2,8.09,2.56-0.64,2ZM323,39.11l0.64-2L329.55,39l2.16,0.93-0.84,2L328.8,41Zm15.69,6.11,0.84-1.94,7.79,3.36-0.84,1.94Zm15.23,7.15,1.05-1.84c1.23,0.7,2.47,1.41,3.76,2.1l3.64,2-1,1.86-3.62-2C356.41,53.82,355.14,53.09,353.89,52.38Zm14.82,8.28,1-1.86,1.19,0.79,5.89,4.08-1.21,1.75Zm13.85,9.59,1.21-1.75,3.6,2.51c1.13,0.85,2.19,1.75,3.25,2.66l-1.38,1.61c-1-.88-2-1.75-3.11-2.55ZM395.7,80.79l1.37-1.62,6.45,5.5-1.38,1.61Zm12.47,11.33,1.52-1.48q3,3,5.84,6.19L414,98.27Q411.09,95.13,408.17,92.12Zm11.38,12.47,1.61-1.37c1.84,2.14,3.64,4.34,5.43,6.56l-1.66,1.33Q422.29,107.8,419.55,104.6Zm10.54,13.2,1.7-1.27q2.55,3.4,5,6.91L435,124.65Q432.61,121.17,430.09,117.8Zm9.63,13.87,1.78-1.15q1.93,3,3.77,6.06l0.67,1.19-1.83,1.08-0.68-1.2C442.24,135.65,441,133.65,439.72,131.67Zm8.38,14.62,1.89-1q1.95,3.8,3.76,7.64l-1.92.9C450.63,151.32,449.39,148.79,448.1,146.29Zm7.2,15.27,1.95-.83c1.13,2.61,2.2,5.24,3.24,7.87l-2,.78Q457,165.46,455.3,161.56Zm6.16,15.74,2-.71q1.43,4,2.71,8.07l-2,.64Q462.88,181.3,461.46,177.3Zm5.11,16.1,2-.57c0.38,1.33.74,2.66,1.1,4l0.85,4.35-2.08.4-0.84-4.27C467.31,196,466.95,194.72,466.57,193.4Zm3.53,16.49,2.08-.4,0.46,2.37c0.16,0.88.33,1.73,0.5,2.59,0.23,1.14.46,2.27,0.65,3.4l-2.09.35c-0.19-1.1-.41-2.21-0.64-3.33-0.18-.86-0.35-1.74-0.51-2.61Zm2.47,16.72,2.11-.22,0.8,8.4-2.11.2Zm1.29,16.74H476l0,8.49h-2.12Zm0,17,2.12,0a41.12,41.12,0,0,1-.28,4.89l-0.39,3.67-2.11-.22,0.39-3.7A40,40,0,0,0,473.82,260.31Zm-1.55,16.78,2.11,0.23-1,8.52-2.08-.42,0.11-.52Zm-2.64,16.63,2.07,0.44-1.74,8.3-2.07-.44Z" transform="translate(-8.75 -9.4)"/>
        <path class="cls-6" d="M198.71,468.6l8.3,1.74-0.43,2.07-8.3-1.73Zm16.6,3.46,0.52,0.11,7.81,0.81-0.22,2.11-8.53-.95Zm16.76,1.81,3.69,0.39a40.61,40.61,0,0,0,4.66.27l0,2.11a41.85,41.85,0,0,1-4.89-.28l-3.67-.39Zm16.83,0.67,8.49,0v2.13l-8.48,0v-2.12Zm16.84-.47,8.39-.79,0.23,2.11-0.07-1.06,0.06,1.05-8.41.8Zm16.8-1.66c1.11-.19,2.22-0.41,3.33-0.63,0.87-.17,1.74-0.35,2.61-0.51l2.36-.46,0.4,2.08-2.37.46c-0.88.16-1.73,0.33-2.59,0.51-1.13.22-2.27,0.46-3.4,0.65Zm16.63-3.23,4.28-.84,3.89-1.06,0.57,2c-1.33.38-2.66,0.74-4,1.09l-4.35.85Zm16.26-4.33q4-1.27,8-2.69l0.71,2c-2.7,1-5.39,1.86-8.07,2.71Zm15.93-5.64q3.91-1.53,7.81-3.2L340,458c-2.61,1.12-5.25,2.21-7.88,3.23Zm15.51-6.68q3.81-1.79,7.57-3.72l1,1.88q-3.8,2-7.64,3.76Zm15-7.71,1.2-.68q3-1.81,6-3.72l1.15,1.78q-3,1.93-6.06,3.77l-1.19.68Zm14.2-9.09q3.48-2.42,6.85-4.93l1.27,1.7q-3.4,2.54-6.91,5Zm13.54-10.1q3.31-2.64,6.51-5.37l1.38,1.61q-3.22,2.75-6.56,5.42Zm12.84-11q3.15-2.88,6.14-5.79l1.48,1.52q-3,3-6.2,5.84Zm12-11.81,5.5-6.46,1.62,1.37-5.5,6.45Zm11-12.92c0.88-1,1.75-2,2.55-3.11l2.48-3.57,1.74,1.21-2.5,3.6c-0.85,1.14-1.75,2.2-2.66,3.26Zm9.87-13.64,4.75-6.89,1.86,1-0.78,1.19-4.09,5.89Zm8.9-14.3,2-3.61c0.68-1.28,1.41-2.56,2.12-3.79l1.84,1c-0.7,1.23-1.42,2.47-2.09,3.76l-2,3.63Zm7.92-14.86,3.37-7.79,1.94,0.84L454.09,348Zm6.73-15.56,0.89-2.08,1.86-5.83,2,0.64-1.89,5.94-0.93,2.17Zm5.32-16,2.56-8.09,2,0.64-2.56,8.09Z" transform="translate(-8.75 -9.4)"/>
        <path class="cls-6" d="M51.27,386.73a1.65,1.65,0,0,1,.65-1,1.83,1.83,0,0,1,1.2-.22,1.8,1.8,0,0,1,1,.72l0.93,1.47c0.19,0.27.34,0.52,0.54,0.8,0.27,0.46.63,0.95,1,1.53a1.64,1.64,0,0,1-.41,2.21,1.59,1.59,0,0,1-2.18-.39c-0.45-.65-0.82-1.22-1.13-1.7a6.85,6.85,0,0,0-.48-0.69l-1-1.53A1.5,1.5,0,0,1,51.27,386.73ZM75.21,416h0a1.52,1.52,0,0,1,.42-0.77,1.8,1.8,0,0,1,1.13-.45,1.61,1.61,0,0,1,1.13.52,1.59,1.59,0,0,1-2.29,2.21,0,0,0,0,1,0-.05A1.55,1.55,0,0,1,75.21,416Zm30.28,27a2.37,2.37,0,0,1,.22-0.51,1.73,1.73,0,0,1,1-.65,1.64,1.64,0,0,1,1.17.22c0.37,0.27.75,0.5,1.19,0.8l12.28,8.52a51.1,51.1,0,0,0,5.81,3.59l0.24,0.1c2,1.09,3.93,2.22,5.84,3.28l0.39,0.19c1.49,0.84,3,1.66,4.43,2.49,2.52,1.4,4.92,2.78,7.26,3.91,2.69,1.14,5.28,2.26,7.72,3.34l4,1.72c3.19,1.4,6.14,2.66,8.74,3.78,1.76,0.63,3.46,1.17,4.93,1.6l2.43,0.77c4.16,1.36,6.55,2.11,6.55,2.11a1.54,1.54,0,0,1,1,1.89l0,0.08a1.53,1.53,0,0,1-2,1l-6.56-2.06-2.31-.74c-1.55-.45-3.33-1-5.26-1.69l-0.07-.07c-1.93-.82-4-1.7-6.18-2.67L144,467.78c-2.57-1.24-5-2.68-7.68-4.16-1.38-.76-2.79-1.57-4.25-2.34-1.1-.64-2.22-1.25-3.32-1.88l-3.14-1.75a47.67,47.67,0,0,1-6.12-3.75l-8.83-6.13-3.38-2.33c-0.37-.27-0.79-0.52-1.19-0.79A1.56,1.56,0,0,1,105.49,442.94Z" transform="translate(-8.75 -9.4)"/>
        <path class="cls-6" d="M16.61,189.55a241.62,241.62,0,0,1,24.33-59.33,1.43,1.43,0,0,1,.93-0.72,1.58,1.58,0,0,1,1.23.15,1.63,1.63,0,0,1,.57,2.17,239.92,239.92,0,0,0-24,58.46l-0.09.33c-1.27,4.84-2.39,9.8-3.36,14.81l0,0.3c-0.09.5-.22,1-0.31,1.5a1.56,1.56,0,0,1-1.87,1.27,1.45,1.45,0,0,1-1-.67,1.69,1.69,0,0,1-.25-1.21c0.1-.54.25-1.11,0.36-1.7l0-.08C14.11,199.78,15.28,194.64,16.61,189.55Zm-5.05,24.28a1.59,1.59,0,0,1,3.12.65v0a1.59,1.59,0,0,1-1.78,1.28,1.63,1.63,0,0,1-1.34-1.75A0.45,0.45,0,0,1,11.56,213.84ZM8.8,246.92a1.6,1.6,0,0,1,2.69-.71,1.74,1.74,0,0,1,.45,1.13,1.64,1.64,0,0,1-1.64,1.59,1.6,1.6,0,0,1-1.54-1.63v0A0.86,0.86,0,0,1,8.8,246.92Zm2.8,40.49a1.55,1.55,0,0,1,1.31-1.14,1.63,1.63,0,0,1,1.16.26,1.74,1.74,0,0,1,.65,1c0.19,1.28.39,2.51,0.59,3.75,3.61,23.52,11.26,42.15,16.86,55.75l1,2.56v0c2.11,4.32,4.07,8,5.65,11,0.59,1.08,1.12,2.09,1.58,3l0,0a1.64,1.64,0,0,1-.72,2.09,1.6,1.6,0,0,1-2.15-.69c-0.46-.91-1-1.88-1.55-2.95-1.61-3.05-3.61-6.82-5.77-11.29l0,0c-0.37-.93-0.75-1.82-1.12-2.75-5.61-13.7-13.32-32.47-16.94-56.26-0.23-1.29-.43-2.53-0.62-3.8A1.72,1.72,0,0,1,11.6,287.41ZM63.92,97.27a2,2,0,0,1,.34-0.61,1.52,1.52,0,0,1,1.07-.56,1.73,1.73,0,0,1,1.18.36,1.67,1.67,0,0,1,.2,2.24,1.61,1.61,0,0,1-2.25.2A1.59,1.59,0,0,1,63.92,97.27Zm23-24a1.51,1.51,0,0,1,.47-0.79,1.61,1.61,0,0,1,2.25.1,1.67,1.67,0,0,1-.11,2.25,1.63,1.63,0,0,1-2.25-.1A1.56,1.56,0,0,1,86.88,73.25Zm5.54-4.9a1.81,1.81,0,0,1,.49-0.84,238.72,238.72,0,0,1,31.41-22.84,233.87,233.87,0,0,1,38.43-19,1.56,1.56,0,0,1,2,.89,1.66,1.66,0,0,1-.9,2.08A236.71,236.71,0,0,0,95,69.95a1.51,1.51,0,0,1-1.15.36,1.46,1.46,0,0,1-1.08-.55A1.56,1.56,0,0,1,92.41,68.35ZM40.9,370.59h0a1.57,1.57,0,0,1,2.94-.33,1.59,1.59,0,0,1-2.8,1.5,0,0,0,0,1,0-.05A1.63,1.63,0,0,1,40.9,370.59ZM200.75,15.35A1.54,1.54,0,0,1,202,14.22a1.58,1.58,0,1,1-1.24,1.87A1.4,1.4,0,0,1,200.75,15.35Zm32.9-4.44a1.54,1.54,0,0,1,1.4-1.16,1.56,1.56,0,0,1,1.73,1.42,1.63,1.63,0,0,1-1.46,1.72,0,0,0,0,0-.05,0,1.74,1.74,0,0,1-1.09-.37,1.81,1.81,0,0,1-.58-1.11A2.12,2.12,0,0,1,233.65,10.92Zm7.37-.34a1.58,1.58,0,0,1,1.58-1.17c2.5,0,4.91,0,7.23,0h5c0.66,0,1.31,0,2,0a78.59,78.59,0,0,1,10.49.47l17.1,1.81a30.72,30.72,0,0,1,4.68.71l0.67,0.13c0.49,0.13.75,0.14,0.87,0.18h0a1.7,1.7,0,0,1,1,.71,1.51,1.51,0,0,1,.21,1.19A1.57,1.57,0,0,1,290,15.87l-1.58-.32a21.87,21.87,0,0,0-4.27-.64c-3.24-.33-7.72-0.8-13.35-1.41l-3.88-.4a66.62,66.62,0,0,0-10.35-.48l-4.25,0-9.72-.05h0A1.56,1.56,0,0,1,241,11,1.25,1.25,0,0,1,241,10.58Z" transform="translate(-8.75 -9.4)"/>
        <path class="cls-6" d="M319.21,21.34l0-.08a1.54,1.54,0,0,1,2-1h0l0.61,0.16,5.94,1.91L330.08,23c1.59,0.46,3.33,1,5.26,1.69l0.07,0.06c2.79,1.21,5.95,2.56,9.42,4,1.85,0.79,3.78,1.65,5.78,2.53L356,33.66c2.57,1.24,5.08,2.69,7.72,4.17,1.38,0.76,2.79,1.57,4.21,2.33l6.23,3.48,0.27,0.15a48.41,48.41,0,0,1,6.12,3.76L392.68,56a14.12,14.12,0,0,1,1.2.8,1.59,1.59,0,1,1-1.79,2.64c-0.37-.27-0.71-0.49-1.11-0.78l-0.67-.44c-3.9-2.69-7.79-5.42-11.69-8.11a45.67,45.67,0,0,0-5.92-3.66l-0.12,0c-1.11-.63-2.22-1.24-3.32-1.87L366.37,43c-1.53-.85-3-1.66-4.44-2.48-2.56-1.42-4.92-2.78-7.3-3.93l-11.7-5c-3.19-1.37-6.14-2.66-8.78-3.8-1.76-.63-3.46-1.17-5-1.61l-2.39-.76c-4.12-1.35-6.48-2-6.52-2.06A1.66,1.66,0,0,1,319.21,21.34ZM421.77,84.67a1.78,1.78,0,0,1,.41-0.72,1.52,1.52,0,0,1,1.13-.45,1.57,1.57,0,0,1,1.15.48,1.63,1.63,0,0,1-.07,2.26,1.7,1.7,0,0,1-1.12.45,1.44,1.44,0,0,1-1.1-.51A1.53,1.53,0,0,1,421.77,84.67Zm21.39,25.43a1.6,1.6,0,0,1,.64-0.92,1.63,1.63,0,0,1,2.21.4c0.41,0.59.76,1.12,1.07,1.6a8.21,8.21,0,0,0,.49.78l1,1.52a1.64,1.64,0,0,1-.45,2.21,1.59,1.59,0,0,1-2.19-.49l-1-1.48c-0.15-.26-0.34-0.53-0.53-0.8-0.28-.47-0.62-1-1-1.53A1.58,1.58,0,0,1,443.15,110.09Z" transform="translate(-8.75 -9.4)"/>
        <path class="cls-6" d="M208.17,486.75a1.56,1.56,0,0,1,1.84-1.18s0.59,0.11,1.62.34a24.62,24.62,0,0,0,4.26.64c4,0.42,9.77,1,17.2,1.79a73.55,73.55,0,0,0,10.13.51l1.93,0c3.85,0,8,0,12.3.07a1.42,1.42,0,0,1,1.1.47,1.6,1.6,0,0,1,.5,1.13,1.69,1.69,0,0,1-1.6,1.6l-0.92,0c-4,0-7.84,0-11.39,0l-2.1,0a70.66,70.66,0,0,1-10.35-.48l-17.1-1.82a28.34,28.34,0,0,1-4.68-.7l-0.71-.14c-0.45-.12-0.71-0.14-0.79-0.17h0a1.6,1.6,0,0,1-1.21-1.9v0Zm55.12,3a1.56,1.56,0,0,1,1.4-1.17,1.53,1.53,0,0,1,1.18.36,1.59,1.59,0,0,1-.91,2.78,1.6,1.6,0,0,1-1.73-1.42A2.5,2.5,0,0,1,263.28,489.72Zm32.92-4.48a1.54,1.54,0,0,1,1.21-1.12,1.57,1.57,0,0,1,1.21.23,1.4,1.4,0,0,1,.66,1,1.57,1.57,0,0,1-1.23,1.87,1.53,1.53,0,0,1-1.21-.22,1.51,1.51,0,0,1-.66-1A2,2,0,0,1,296.2,485.24Zm39-11.34a1.57,1.57,0,0,1,1-1.07A238.39,238.39,0,0,0,405,431.49a1.6,1.6,0,1,1,2.08,2.43,241.08,241.08,0,0,1-69.85,41.84,1.57,1.57,0,0,1-2-.89A1.52,1.52,0,0,1,335.17,473.89Zm120.9-343.84a1.55,1.55,0,0,1,.79-1,1.82,1.82,0,0,1,1.22-.12,1.63,1.63,0,0,1,.92.82l0,0a1.64,1.64,0,0,1-.72,2.09,1.6,1.6,0,0,1-2.14-.69A1.62,1.62,0,0,1,456.07,130.05Zm3.41,6.55a1.62,1.62,0,0,1,.8-1,1.56,1.56,0,0,1,2.14.69c0.49,1,1.06,2,1.67,3.16,1.58,3,3.54,6.71,5.64,11.07l0,0.06c0.38,0.88.72,1.76,1.09,2.7,5.66,13.71,13.36,32.48,17,56.32,0.2,1.23.39,2.51,0.59,3.79a1.63,1.63,0,0,1-1.31,1.81,1.57,1.57,0,0,1-1.81-1.3c-0.19-1.28-.39-2.52-0.64-3.76-3.61-23.52-11.22-42.13-16.83-55.71l-1-2.55c-2.1-4.36-4.09-8.13-5.67-11.13-0.55-1.07-1.07-2.08-1.54-3h0A1.64,1.64,0,0,1,459.48,136.6ZM410.1,427.38a1.53,1.53,0,0,1,.46-0.76,1.58,1.58,0,0,1,2.21.09,1.68,1.68,0,0,1-.07,2.27,1.63,1.63,0,0,1-2.25-.1A1.59,1.59,0,0,1,410.1,427.38Zm22.92-24a1.53,1.53,0,0,1,1.41-1.21,1.47,1.47,0,0,1,1.13.39,1.6,1.6,0,0,1,.2,2.25v0a1.58,1.58,0,0,1-1.05.51,1.6,1.6,0,0,1-1.14-.34A1.56,1.56,0,0,1,433,403.36ZM456.19,370c0-.12.11-0.27,0.15-0.39A237.28,237.28,0,0,0,483.75,296l0.34-1.79A1.56,1.56,0,0,1,486,293a1.57,1.57,0,0,1,1.27,1.83c-0.09.33-.12,0.62-0.19,0.92s-0.12.62-.15,0.92a242.06,242.06,0,0,1-27.77,74.62,1.58,1.58,0,0,1-2.17.57A1.55,1.55,0,0,1,456.19,370Zm32-116.29a1.57,1.57,0,0,1,3.1.41,1.54,1.54,0,0,1-1.59,1.56,1.57,1.57,0,0,1-1.56-1.59A1.16,1.16,0,0,1,488.17,253.73Zm-2.81,33.11a1.59,1.59,0,0,1,3.12.64,1.58,1.58,0,0,1-1.84,1.32,1.6,1.6,0,0,1-1.31-1.83Z" transform="translate(-8.75 -9.4)"/>
      </g>
    </g>
  </g>
</svg>
