<?xml version="1.0" encoding="utf-8"?>
<!-- Generator: Adobe Illustrator 19.2.1, SVG Export Plug-In . SVG Version: 6.00 Build 0)  -->
<svg version="1.1" xmlns="http://www.w3.org/2000/svg" xmlns:xlink="http://www.w3.org/1999/xlink" x="0px" y="0px"
	 viewBox="0 0 250 182.2" style="enable-background:new 0 0 250 182.2;" xml:space="preserve">
<style type="text/css">
	.st0{display:none;}
	.st1{display:inline;}
	.st2{fill:#013066;}
	.st3{fill:#CF001C;}
	.st4{display:inline;fill:#013C80;}
	.st5{display:inline;fill:#FF0000;}
	.st6{display:inline;fill:#FF0000;stroke:#013C80;}
	.st7{fill:#013C80;}
	.st8{display:inline;fill-rule:evenodd;clip-rule:evenodd;fill:#00A86B;}
	.st9{display:inline;fill-rule:evenodd;clip-rule:evenodd;}
	.st10{fill-rule:evenodd;clip-rule:evenodd;fill:#B92A30;}
	.st11{fill-rule:evenodd;clip-rule:evenodd;fill:#B51F29;}
	.st12{fill-rule:evenodd;clip-rule:evenodd;fill:#FFFFFF;}
	.st13{fill-rule:evenodd;clip-rule:evenodd;fill:#DD083B;}
	.st14{fill-rule:evenodd;clip-rule:evenodd;}
	.st15{fill-rule:evenodd;clip-rule:evenodd;fill:#8ABEC1;}
	.st16{fill-rule:evenodd;clip-rule:evenodd;fill:#BED2D7;}
</style>
<g id="Capa_1" class="st0">
	<g class="st1">
		<path class="st2" d="M111.8,12.1c1.1-1.5,2.1-3,3.2-4.5c-8,0-15.9,0-23.9,0c-1.4,1.9-2.8,3.8-4.2,5.7C71.5,34,56.1,54.8,40.8,75.5
			c-1.6,2.2-3.2,4.4-4.9,6.7c8.1,0,16.2,0,24.2,0c0.1-0.2,0.3-0.4,0.4-0.6C77.6,58.4,94.7,35.3,111.8,12.1z"/>
		<path class="st3" d="M42.1,31.6c-6,8.1-11.9,16.2-17.9,24.2C18.6,63.5,13,71.1,7.3,78.7c-0.8,1.1-1.6,2.1-2.4,3.3
			c0.4,0,0.7,0.1,0.9,0.1c7.5,0,15,0,22.6,0c0.5,0,0.9-0.2,1.2-0.6c0.5-0.7,1-1.4,1.5-2.1c5.8-7.9,11.6-15.7,17.4-23.6
			c5.3-7.2,10.6-14.3,15.9-21.5c5.3-7.2,10.6-14.4,15.9-21.6c1.2-1.7,2.4-3.4,3.6-5c-8,0-16,0-24.1,0c-0.1,0.1-0.2,0.3-0.3,0.4
			C53.8,15.9,48,23.8,42.1,31.6z"/>
		<path class="st2" d="M181.2,80.9c0-7.1,0-14.2,0-21.4c0-1.1,0.1-2.2,0-3.3c-0.3-3.2-2.2-5.7-6.1-5.4c-0.7,0.1-1.3,0.1-2,0.1
			c-8.4,0-16.8,0-25.2,0c-0.3,0-0.6,0-1,0c0,10.4,0,20.8,0,31.1c2.2,0,4.4,0,6.6,0c0-7.8,0-15.5,0-23.2c2.3,0,4.6,0,6.9,0
			c0,7.8,0,15.5,0,23.2c2.3,0,4.5,0,6.8,0c0-7.8,0-15.5,0-23.2c2.4,0,4.7,0,7.1,0c0,0.4,0,0.7,0,1c0,3.7,0,7.4,0,11.1
			c0,3.7,0,7.5,0,11.2c0.2,0,0.3,0,0.5,0c2.1-0.1,4.2-0.1,6.4-0.2C181.2,81.6,181.2,81.3,181.2,80.9z"/>
		<path class="st2" d="M190.7,74.2c0-5.2,0-10.3,0-15.5c7,0,13.8,0,20.7,0c0-2.6,0-5.1,0-7.7c-0.4,0-0.7,0-1,0c-7.1,0-14.2,0-21.4,0
			c-0.9,0-1.6,0.3-2.3,0.8c-2,1.6-2.9,3.8-2.9,6.3c-0.1,6.3,0,12.6,0,18.8c0,1.4,0.4,2.8,1.3,3.9c0.7,0.8,1.7,1,2.6,1.3
			c7.9,0,15.8,0,23.7,0c0-2.6,0-5.2,0-8C204.5,74.2,197.6,74.2,190.7,74.2z"/>
		<path class="st2" d="M246,51c-2,0-4,0-6.2,0c0,1.5,0,3,0,4.4c0,0.3-0.1,0.8-0.4,1c-2.8,2.5-5.7,4.9-8.6,7.3
			c-2.9-2.5-5.8-4.9-8.7-7.4c-0.2-0.2-0.3-0.6-0.3-0.9c0-1.4,0-2.9,0-4.4c-2.3,0-4.5,0-6.9,0c0,1.9,0,3.8,0,5.7c0,0.4,0.2,1,0.5,1.3
			c1.3,1.3,2.8,2.6,4.2,3.9c1.8,1.6,3.6,3.2,5.4,4.9c-0.7,0.6-1.3,1.1-1.9,1.6c-2.4,2-4.9,4-7.3,6c-0.7,0.6-1,1.2-0.9,2.1
			c0.1,1.5,0,2.9,0,4.4c0,0.4,0,0.7,0,1c2.3,0,4.5,0,6.7,0c0-1.2,0-2.3,0-3.4c0-0.5,0.1-0.9,0.6-1.2c1.3-1,2.6-2.1,3.9-3.2
			c1.5-1.2,3.1-2.5,4.6-3.7c2.9,2.4,5.7,4.7,8.5,7c0.3,0.2,0.4,0.6,0.4,1c0.1,1.2,0,2.3,0,3.5c2.3,0,4.4,0,6.6,0c0-1.9,0-3.7,0-5.5
			c0-0.9-0.3-1.6-1-2.1c-1.2-1-2.4-1.9-3.6-2.9c-1.9-1.5-3.8-3.1-5.7-4.6c1.2-1,2.3-1.9,3.4-2.8c2.3-2.1,4.7-4.1,7-6.2
			c0-2.1,0-4.3,0-6.4C246.3,51.2,246.2,51,246,51z"/>
		<path class="st2" d="M93,58.8c6.9,0,13.8,0,20.7,0c0-2.6,0-5.2,0-7.8c-0.2,0-0.4-0.1-0.6-0.1c-7.4,0-14.8,0-22.1,0
			c-0.5,0-1.2,0.2-1.6,0.5c-2.3,1.6-3.2,3.9-3.3,6.6c-0.1,6.3-0.1,12.5,0,18.8c0,1.1,0.4,2.2,0.7,3.2c0.4,1,1.2,1.7,2.3,1.8
			c0.7,0.1,1.3,0.2,2,0.2c7.2,0,14.4,0,21.6,0c0.3,0,0.6,0,0.9-0.1c0-2.6,0-5.2,0-7.8c-7,0-13.8,0-20.7,0C93,69,93,64,93,58.8z"/>
		<path class="st2" d="M123.3,58.8c7,0,13.8,0,20.7,0c0-2.6,0-5.2,0-7.9c-0.4,0-0.7,0-1.1,0c-7.1,0-14.1,0-21.2,0
			c-1.1,0-1.9,0.3-2.7,1c-1.8,1.6-2.6,3.6-2.7,6c-0.1,6.4-0.1,12.7,0,19.1c0,1,0.4,2.2,0.8,3.1c0.8,1.7,2.5,1.9,4.2,1.9
			c7.3,0,14.5,0,21.8,0c0.3,0,0.5,0,0.8-0.1c0-2.6,0-5.1,0-7.8c-7,0-13.8,0-20.7,0C123.3,69.1,123.3,64,123.3,58.8z"/>
		<path class="st2" d="M196.1,69.5c5.1,0,10.1,0,15.1,0c0-2.1,0-4.1,0-6.1c-5.1,0-10.1,0-15.1,0C196.1,65.4,196.1,67.4,196.1,69.5z"
			/>
		<path class="st2" d="M144,69.5c0-2.1,0-4.1,0-6.1c-5.1,0-10.1,0-15.1,0c0,2.1,0,4.1,0,6.1C133.9,69.5,138.9,69.5,144,69.5z"/>
	</g>
</g>
<g id="Capa_2" class="st0">
	<rect x="7.2" y="3.2" class="st4" width="43" height="43.3"/>
	<polygon class="st5" points="36.2,41.3 29.3,41.1 38.4,25.4 45.7,25.4 	"/>
	<polygon class="st5" points="26.2,41.3 19.3,41.1 28.4,25.4 35.7,25.4 	"/>
	<polygon class="st6" points="10.7,50.4 2.6,50.2 18.4,25.7 25.3,25.5 	"/>
	<g class="st1">
		<g>
			<path class="st7" d="M69.5,17.6c-0.6,0.3-2,0.6-3.7,0.6c-5.1,0-7.7-3-7.7-7c0-4.8,3.6-7.4,8-7.4c1.7,0,3,0.3,3.6,0.6L69,6.9
				c-0.7-0.3-1.6-0.5-2.8-0.5c-2.6,0-4.7,1.5-4.7,4.6c0,2.8,1.7,4.6,4.7,4.6c1,0,2.1-0.2,2.8-0.5L69.5,17.6z"/>
			<path class="st7" d="M73.7,13.9c0.1,1.3,1.5,1.9,3,1.9c1.1,0,2-0.1,2.9-0.4l0.4,2.1c-1.1,0.4-2.4,0.6-3.8,0.6
				c-3.6,0-5.7-2-5.7-5.2c0-2.6,1.7-5.4,5.4-5.4c3.4,0,4.7,2.5,4.7,5c0,0.5-0.1,1-0.1,1.3L73.7,13.9z M77.6,11.7c0-0.7-0.3-2-1.8-2
				c-1.4,0-2,1.2-2.1,2H77.6z"/>
			<path class="st7" d="M82.6,11.1c0-1.3,0-2.3-0.1-3.2h2.8l0.1,1.4h0.1c0.5-0.7,1.4-1.6,3.2-1.6c1.4,0,2.5,0.7,2.9,1.7h0
				c0.4-0.5,0.9-1,1.4-1.2c0.6-0.3,1.2-0.5,2-0.5c2,0,3.6,1.4,3.6,4.4v6h-3.2v-5.5c0-1.5-0.5-2.3-1.6-2.3c-0.8,0-1.3,0.5-1.5,1.1
				c-0.1,0.2-0.1,0.5-0.1,0.8V18H89v-5.7c0-1.3-0.5-2.1-1.5-2.1c-0.8,0-1.3,0.6-1.5,1.1c-0.1,0.2-0.1,0.5-0.1,0.8V18h-3.2V11.1z"/>
			<path class="st7" d="M103.8,13.9c0.1,1.3,1.5,1.9,3,1.9c1.1,0,2-0.1,2.9-0.4l0.4,2.1c-1.1,0.4-2.4,0.6-3.8,0.6
				c-3.6,0-5.7-2-5.7-5.2c0-2.6,1.7-5.4,5.4-5.4c3.4,0,4.7,2.5,4.7,5c0,0.5-0.1,1-0.1,1.3L103.8,13.9z M107.7,11.7
				c0-0.7-0.3-2-1.8-2c-1.4,0-2,1.2-2.1,2H107.7z"/>
			<path class="st7" d="M112.8,11.1c0-1.3,0-2.3-0.1-3.2h2.9l0.2,1.4h0.1c0.4-0.7,1.5-1.6,3.3-1.6c2.2,0,3.8,1.4,3.8,4.4v6h-3.3
				v-5.6c0-1.3-0.5-2.2-1.7-2.2c-0.9,0-1.5,0.6-1.7,1.2c-0.1,0.2-0.1,0.5-0.1,0.8V18h-3.3V11.1z"/>
			<path class="st7" d="M129.1,5.1v2.8h2.4v2.3h-2.4v3.7c0,1.2,0.3,1.8,1.3,1.8c0.5,0,0.7,0,1-0.1l0,2.4c-0.4,0.1-1.2,0.3-2.1,0.3
				c-1.1,0-2-0.4-2.5-0.9c-0.6-0.6-0.9-1.6-0.9-3v-4.2h-1.4V7.8h1.4V5.9L129.1,5.1z"/>
			<path class="st7" d="M138.1,18.2c-3.1,0-5.5-1.9-5.5-5.2c0-3.3,2.3-5.4,5.7-5.4c3.2,0,5.4,2.1,5.4,5.2
				C143.7,16.5,141,18.2,138.1,18.2L138.1,18.2z M138.2,15.9c1.3,0,2.1-1.2,2.1-3c0-1.5-0.6-3-2.1-3c-1.6,0-2.2,1.5-2.2,3
				C136,14.6,136.8,15.9,138.2,15.9L138.2,15.9z"/>
		</g>
	</g>
	<g class="st1">
		<g>
			<path class="st7" d="M65.3,37.9l-1.1,9h-6.4l1.4-21.7h9.1l2.5,11.5l4.2-11.5l8.9,0l-1.6,21.7l-6.4,0l0.6-9l-3.8,9l-5.6-0.1
				L65.3,37.9z"/>
		</g>
	</g>
	<g class="st1">
		<g>
			<path class="st7" d="M204.4,37.9l-1.1,9H197l1.4-21.7h9.1l2.5,11.5l4.2-11.5l8.9,0l-1.6,21.7l-6.4,0l0.6-9l-3.8,9l-5.6-0.1
				L204.4,37.9z"/>
		</g>
	</g>
	<path class="st1" d="M74.4,49.7"/>
	<g class="st1">
		<g>
			<path class="st7" d="M95.9,46.9c-6.7,0-11.8-4-11.8-10.7c0-6.7,4.8-11,12.2-11c6.9,0,11.6,4.4,11.6,10.6
				C108,43.4,102,46.9,95.9,46.9L95.9,46.9z M96.1,42.2c2.8,0,4.5-2.5,4.5-6.2c0-3.1-1.3-6.2-4.5-6.2c-3.4,0-4.7,3.1-4.7,6.2
				C91.4,39.6,93,42.2,96.1,42.2L96.1,42.2z"/>
		</g>
	</g>
	<g class="st1">
		<g>
			<path class="st7" d="M134,30.5l-7.1,0.1l0.3-5.3h21l-0.1,5.2h-7.5l-1,16.3l-6.9-0.2L134,30.5z"/>
		</g>
	</g>
	<polygon class="st4" points="165.9,25.4 165.5,30.5 156,30.5 155.8,33.6 163,33.6 163,38.5 155.2,38.5 155.2,41.7 164.1,41.7 
		164.1,46.5 148.2,46.5 150,25.3 	"/>
	<polygon class="st4" points="167.5,25.3 167.5,30.4 174.6,30.4 166,41.6 166,46.4 182,46.4 182,41.6 173.9,41.6 183,30.6 183,25.4 
			"/>
	<path class="st4" d="M185,25.3h6.9L191,39c0,0,0,2.4,3.3,2.5c3.3,0.1,3.3-3.3,3.3-3.3l2,8.7h-7.8c0,0-7.4-0.6-7.4-5.8
		C184.3,35.9,185,25.3,185,25.3z"/>
	<g class="st1">
		<g>
			<path class="st7" d="M239.1,25.3h-6.9l-10.6,21.5h7l3.1-5.8h6.5l2,5.9h7.1L239.1,25.3z M233.5,36.6l1.4-3.9h0.8l1.1,3.9H233.5z"
				/>
		</g>
	</g>
	<path class="st4" d="M125.1,30.9l-0.2-4.7c0,0-2.1-1.1-4.8-1.1c0,0-10.2-0.5-11,11.1c0,0-0.4,10.3,10.7,10.5c0,0,4.3-0.1,5-1.3
		v-3.9c0,0-9.6,2.8-9.6-5.2S125.1,30.9,125.1,30.9z"/>
</g>
<g id="Capa_3" class="st0">
	<polygon class="st8" points="39.1,3.5 39,3.5 39,3.7 38.7,3.7 38.7,4.1 38.6,4.1 38.6,4.5 38.5,4.5 38.5,4.7 38.4,4.7 38.4,5 
		38.2,5 38.2,5.5 38.1,5.5 38.1,5.7 38,5.7 38,5.9 37.9,5.9 37.9,6.2 37.8,6.2 37.8,6.5 37.6,6.5 37.6,6.8 37.5,6.8 37.5,7.1 
		37.4,7.1 37.4,7.5 37.3,7.5 37.3,7.7 37.2,7.7 37.2,8 37,8 37,8.3 36.9,8.3 36.9,8.6 36.7,8.6 36.7,9.1 36.6,9.1 36.6,9.4 
		36.4,9.4 36.4,9.7 36.3,9.7 36.3,9.9 36.2,9.9 36.2,10.4 36.1,10.4 36.1,10.6 36,10.6 36,10.8 35.8,10.8 35.8,11.1 35.7,11.1 
		35.7,11.4 35.6,11.4 35.6,11.8 35.5,11.8 35.5,12 35.4,12 35.4,12.4 35.2,12.4 35.2,12.6 35.1,12.6 35.1,12.9 35,12.9 35,13.5 
		34.9,13.5 34.9,13.6 34.8,13.6 34.8,13.7 34.6,13.7 34.6,13.8 34.5,13.8 34.5,14.4 34.4,14.4 34.4,14.6 34.3,14.6 34.3,14.9 
		34.2,14.9 34.2,15.3 34,15.3 34,15.5 33.9,15.5 33.9,15.8 33.8,15.8 33.8,16 33.7,16 33.7,16.5 33.6,16.5 33.6,16.6 33.5,16.6 
		33.5,17.2 33.3,17.2 33.3,17.3 33.2,17.3 33.2,17.6 33.1,17.6 33.1,17.8 33,17.8 33,18.4 32.7,18.4 32.7,18.6 32.6,18.6 32.6,18.9 
		32.5,18.9 32.5,19.3 32.4,19.3 32.4,19.6 32.3,19.6 32.3,19.8 32.1,19.8 32.1,20.2 32,20.2 32,20.4 31.9,20.4 31.9,20.7 31.8,20.7 
		31.8,21.1 31.7,21.1 31.7,21.4 31.5,21.4 31.5,21.6 31.4,21.6 31.4,21.9 31.3,21.9 31.3,22.2 31.2,22.2 31.2,22.5 31.1,22.5 
		31.1,23.1 30.8,23.1 30.8,23.3 30.7,23.3 30.7,23.5 30.6,23.5 30.6,23.8 30.5,23.8 30.5,24.3 30.3,24.3 30.3,24.5 30.2,24.5 
		30.2,24.7 30.1,24.7 30.1,25.1 30,25.1 30,25.3 29.9,25.3 29.9,25.7 29.7,25.7 29.7,26.1 29.6,26.1 29.6,26.4 29.5,26.4 29.5,26.5 
		29.4,26.5 29.4,26.9 29.3,26.9 29.3,27.1 29.1,27.1 29.1,27.6 29,27.6 29,28 28.9,28 28.9,28.3 28.7,28.3 28.7,28.6 28.5,28.6 
		28.5,28.9 28.4,28.9 28.4,29.2 28.3,29.2 28.3,29.4 28.2,29.4 28.2,29.6 28.1,29.6 28.1,30 27.9,30 27.9,30.4 27.8,30.4 27.8,30.6 
		27.7,30.6 27.7,31 27.6,31 27.6,31.2 27.5,31.2 27.5,31.4 27.3,31.4 27.3,31.8 27.2,31.8 27.2,32.3 27.1,32.3 27.1,32.5 27,32.5 
		27,32.9 26.9,32.9 26.9,33.1 26.6,33.1 26.6,33.4 26.5,33.4 26.5,33.8 26.4,33.8 26.4,34.1 26.3,34.1 26.3,34.3 26.1,34.3 
		26.1,34.7 26,34.7 26,35 25.9,35 25.9,35.3 25.8,35.3 25.8,35.5 25.7,35.5 25.7,35.9 25.6,35.9 25.6,36.1 25.4,36.1 25.4,36.3 
		25.3,36.3 25.3,36.9 25.2,36.9 25.2,37.1 25.1,37.1 25.1,37.3 25,37.3 25,37.9 24.8,37.9 24.8,38.1 24.6,38.1 24.6,38.4 24.5,38.4 
		24.5,38.7 24.4,38.7 24.4,39 24.2,39 24.2,39.2 24.1,39.2 24.1,39.7 24,39.7 24,39.9 23.9,39.9 23.9,40.2 23.8,40.2 23.8,40.4 
		23.6,40.4 23.6,40.8 23.5,40.8 23.5,41 23.4,41 23.4,41.6 23.3,41.6 23.3,41.9 23.2,41.9 23.2,42.1 23,42.1 23,42.6 22.9,42.6 
		22.9,42.8 22.8,42.8 22.8,43.1 22.6,43.1 22.6,43.3 22.4,43.3 22.4,43.7 22.3,43.7 22.3,43.9 22.2,43.9 22.2,44.3 22.1,44.3 
		22.1,44.6 22,44.6 22,44.8 21.8,44.8 21.8,45.1 21.7,45.1 21.7,45.6 21.6,45.6 21.6,45.7 21.5,45.7 21.5,46.2 21.4,46.2 21.4,46.5 
		21.2,46.5 21.2,46.8 21.1,46.8 21.1,47 21,47 21,47.5 20.9,47.5 20.9,47.7 20.8,47.7 20.8,48 20.5,48 20.5,48.2 20.4,48.2 
		20.4,48.6 20.3,48.6 20.3,48.9 20.2,48.9 20.2,49.2 20,49.2 20,49.5 19.9,49.5 19.9,49.8 19.8,49.8 19.8,50.1 19.7,50.1 19.7,50.4 
		19.6,50.4 19.6,50.8 19.4,50.8 19.4,51.2 19.3,51.2 19.3,51.6 19.2,51.6 19.2,51.7 19.1,51.7 19.1,51.9 19,51.9 19,52.4 18.8,52.4 
		18.8,52.6 18.7,52.6 18.7,52.9 18.5,52.9 18.5,53.3 18.4,53.3 18.4,53.6 18.2,53.6 18.2,53.8 18.1,53.8 18.1,54.1 18,54.1 18,54.4 
		17.9,54.4 17.9,54.7 17.8,54.7 17.8,54.9 17.6,54.9 17.6,55.5 17.5,55.5 17.5,55.6 17.4,55.6 17.4,55.9 17.3,55.9 17.3,56.3 
		17.2,56.3 17.2,56.6 17.1,56.6 17.1,56.9 16.9,56.9 16.9,57.3 16.8,57.3 16.8,57.5 16.7,57.5 16.7,57.8 16.5,57.8 16.5,58 16.3,58 
		16.3,58.5 16.2,58.5 16.2,58.9 16.1,58.9 16.1,59.2 16,59.2 16,59.3 15.9,59.3 15.9,59.6 15.7,59.6 15.7,59.8 15.6,59.8 15.6,60.4 
		15.5,60.4 15.5,60.7 15.4,60.7 15.4,61 15.3,61 15.3,61.3 15.1,61.3 15.1,61.6 15,61.6 15,61.9 14.9,61.9 14.9,62.2 14.8,62.2 
		14.8,62.4 14.7,62.4 14.7,62.8 14.4,62.8 14.4,63.2 14.3,63.2 14.3,63.4 14.2,63.4 14.2,63.6 14.1,63.6 14.1,63.9 13.9,63.9 
		13.9,64.2 13.8,64.2 13.8,64.7 13.7,64.7 13.7,64.8 13.6,64.8 13.6,65.2 13.5,65.2 13.5,65.4 13.3,65.4 13.3,66 13.2,66 13.2,66.3 
		13.1,66.3 13.1,66.5 13,66.5 13,66.8 12.9,66.8 12.9,67.1 12.7,67.1 12.7,67.4 12.6,67.4 12.6,67.7 12.4,67.7 12.4,68.1 12.3,68.1 
		12.3,68.3 12.1,68.3 12.1,68.6 12,68.6 12,68.8 11.9,68.8 11.9,69.4 11.8,69.4 11.8,69.6 11.7,69.6 11.7,70 11.5,70 11.5,70.2 
		11.4,70.2 11.4,70.6 11.3,70.6 11.3,70.7 11.2,70.7 11.2,71.2 11.1,71.2 11.1,71.4 10.9,71.4 10.9,71.7 10.8,71.7 10.8,72 10.7,72 
		10.7,72.4 10.6,72.4 10.6,72.6 10.3,72.6 10.3,73 10.2,73 10.2,73.2 10.1,73.2 10.1,73.5 10,73.5 10,74.1 9.9,74.1 9.9,74.3 
		9.8,74.3 9.8,74.5 9.6,74.5 9.6,74.9 9.5,74.9 9.5,75.3 9.4,75.3 9.4,75.5 9.3,75.5 9.3,75.9 9.2,75.9 9.2,76.1 9,76.1 9,76.3 
		8.9,76.3 8.9,76.6 8.8,76.6 8.8,77.1 8.7,77.1 8.7,77.3 8.6,77.3 8.6,77.5 8.3,77.5 8.3,77.9 8.2,77.9 8.2,78.1 8.1,78.1 8.1,78.5 
		8,78.5 8,78.9 7.8,78.9 7.8,79.1 7.7,79.1 7.7,79.6 7.6,79.6 7.6,79.9 7.5,79.9 7.5,80.2 7.4,80.2 7.4,80.4 7.2,80.4 7.2,80.8 
		7.1,80.8 7.1,81 7,81 7,81.2 6.9,81.2 6.9,81.7 6.8,81.7 6.8,82 6.6,82 6.6,82.2 6.5,82.2 6.5,82.4 6.3,82.4 6.3,82.8 6.2,82.8 
		6.2,83.3 6,83.3 6,83.6 5.9,83.6 5.9,83.9 5.8,83.9 5.8,84.1 5.7,84.1 5.7,84.4 5.6,84.4 5.6,84.8 5.4,84.8 5.4,85.1 5.3,85.1 
		5.3,85.3 5.2,85.3 5.2,85.7 5.1,85.7 5.1,85.9 5,85.9 5,86.3 4.8,86.3 4.8,86.6 4.7,86.6 4.7,86.9 4.6,86.9 4.6,87.1 4.5,87.1 
		4.5,87.4 4.2,87.4 4.2,87.9 4.1,87.9 4.1,88.2 4,88.2 4,88.3 3.9,88.3 3.9,88.7 3.8,88.7 3.8,89 3.6,89 3.6,89.5 3.5,89.5 
		3.5,89.7 3.4,89.7 3.4,90 3.3,90 3.3,90.2 3.2,90.2 3.2,90.6 57.6,90.6 57.6,90.2 57.8,90.2 57.8,90 57.9,90 57.9,89.7 58,89.7 
		58,89.1 58.1,89.1 58.1,88.9 58.2,88.9 58.2,88.7 58.3,88.7 58.3,88.3 58.5,88.3 58.5,88.1 58.6,88.1 58.6,87.8 58.7,87.8 
		58.7,87.6 58.8,87.6 58.8,87.1 58.9,87.1 58.9,86.9 59.1,86.9 59.1,86.6 59.2,86.6 59.2,86.3 59.4,86.3 59.4,86 59.5,86 59.5,85.7 
		59.7,85.7 59.7,85.3 59.8,85.3 59.8,85.1 59.9,85.1 59.9,84.8 60,84.8 60,84.2 60.1,84.2 60.1,84 60.3,84 60.3,83.8 60.4,83.8 
		60.4,83.4 60.5,83.4 60.5,83.2 60.6,83.2 60.6,82.9 60.7,82.9 60.7,82.4 60.9,82.4 60.9,82.2 61,82.2 61,82 61.1,82 61.1,81.7 
		61.2,81.7 61.2,81.4 61.5,81.4 61.5,81.1 61.6,81.1 61.6,80.8 61.7,80.8 61.7,80.4 61.8,80.4 61.8,80.3 61.9,80.3 61.9,79.9 
		62.1,79.9 62.1,79.3 62.2,79.3 62.2,79.1 62.3,79.1 62.3,79 62.4,79 62.4,78.5 62.5,78.5 62.5,78.3 62.7,78.3 62.7,77.9 62.8,77.9 
		62.8,77.5 40.5,77.5 40.5,77.2 40.6,77.2 40.6,77.1 40.8,77.1 40.8,76.9 40.9,76.9 40.9,76.3 41.1,76.3 41.1,76.2 41.2,76.2 
		41.2,75.9 41.4,75.9 41.4,75.5 41.5,75.5 41.5,75.3 41.6,75.3 41.6,75 41.7,75 41.7,74.5 41.8,74.5 41.8,74.3 41.9,74.3 41.9,74.1 
		42.1,74.1 42.1,73.7 42.2,73.7 42.2,73.5 42.3,73.5 42.3,73.2 42.4,73.2 42.4,72.6 42.5,72.6 42.5,72.3 42.7,72.3 42.7,72.1 
		42.8,72.1 42.8,72 42.9,72 42.9,71.4 43.1,71.4 43.1,71.2 43.3,71.2 43.3,70.7 43.4,70.7 43.4,70.6 43.5,70.6 43.5,70.4 43.6,70.4 
		43.6,70 43.7,70 43.7,69.6 43.9,69.6 43.9,69.3 44,69.3 44,69.2 44.1,69.2 44.1,68.8 44.2,68.8 44.2,68.6 44.3,68.6 44.3,68.1 
		44.5,68.1 44.5,67.7 44.6,67.7 44.6,67.5 44.7,67.5 44.7,67.1 44.8,67.1 44.8,66.8 44.9,66.8 44.9,66.5 45.2,66.5 45.2,66.3 
		45.3,66.3 45.3,66 45.4,66 45.4,65.7 45.5,65.7 45.5,65.4 45.7,65.4 45.7,65.2 45.8,65.2 45.8,64.7 45.9,64.7 45.9,64.5 46,64.5 
		46,64.1 46.1,64.1 46.1,63.9 46.3,63.9 46.3,63.4 46.4,63.4 46.4,63.2 46.5,63.2 46.5,62.8 46.6,62.8 46.6,62.7 46.7,62.7 
		46.7,62.3 46.9,62.3 46.9,61.9 47,61.9 47,33 58.9,33 58.9,32.5 59.1,32.5 59.1,32.3 59.2,32.3 59.2,32 59.4,32 59.4,31.8 
		59.5,31.8 59.5,31.4 59.7,31.4 59.7,31.2 59.8,31.2 59.8,30.6 59.9,30.6 59.9,30.4 60,30.4 60,30.2 60.1,30.2 60.1,30 60.3,30 
		60.3,29.5 60.4,29.5 60.4,29.2 60.5,29.2 60.5,28.9 60.6,28.9 60.6,28.6 60.7,28.6 60.7,28.3 60.9,28.3 60.9,28 61,28 61,27.6 
		61.1,27.6 61.1,27.5 61.2,27.5 61.2,27.1 61.5,27.1 61.5,26.7 61.6,26.7 61.6,26.5 61.7,26.5 61.7,26.1 61.8,26.1 61.8,25.7 
		61.9,25.7 61.9,25.5 62.1,25.5 62.1,25.1 62.2,25.1 62.2,24.7 62.3,24.7 62.3,24.5 62.4,24.5 62.4,24.3 62.5,24.3 62.5,24 62.7,24 
		62.7,23.7 62.8,23.7 62.8,23.3 62.9,23.3 62.9,23.1 63,23.1 63,22.7 63.1,22.7 63.1,22.5 63.3,22.5 63.3,22.2 63.5,22.2 63.5,21.9 
		63.6,21.9 63.6,21.5 63.7,21.5 63.7,21 63.9,21 63.9,20.8 64,20.8 64,20.4 64.1,20.4 64.1,20.3 64.2,20.3 64.2,19.8 64.3,19.8 
		64.3,19.6 64.5,19.6 64.5,19.3 64.6,19.3 64.6,19.1 64.7,19.1 64.7,18.6 64.8,18.6 64.8,18.4 64.9,18.4 64.9,18.2 65.1,18.2 
		65.1,17.8 65.2,17.8 65.2,17.6 65.3,17.6 65.3,17.3 65.5,17.3 65.5,16.7 65.7,16.7 65.7,16.5 65.8,16.5 65.8,16.2 65.9,16.2 
		65.9,16 66,16 66,15.5 66.1,15.5 66.1,15.3 66.2,15.3 66.2,14.9 66.4,14.9 66.4,14.7 66.5,14.7 66.5,14.4 66.6,14.4 66.6,14.2 
		66.7,14.2 66.7,13.7 66.8,13.7 66.8,13.5 67,13.5 67,13 67.1,13 67.1,12.9 67.2,12.9 67.2,12.6 67.3,12.6 67.3,12.4 67.6,12.4 
		67.6,11.8 67.7,11.8 67.7,11.7 67.8,11.7 67.8,11.3 67.9,11.3 67.9,11 68,11 68,10.6 68.2,10.6 68.2,10.4 68.3,10.4 68.3,10 
		68.4,10 68.4,9.8 68.5,9.8 68.5,9.5 68.6,9.5 68.6,9.1 68.8,9.1 68.8,8.8 68.9,8.8 68.9,8.6 69,8.6 69,8.3 69.1,8.3 69.1,8 69.2,8 
		69.2,7.7 69.4,7.7 69.4,7.5 69.5,7.5 69.5,7.4 69.6,7.4 69.6,7 69.7,7 69.7,6.5 69.8,6.5 69.8,6.2 70,6.2 70,5.9 70.1,5.9 
		70.1,5.7 70.2,5.7 70.2,5.5 70.3,5.5 70.3,5.1 70.4,5.1 70.4,4.7 70.6,4.7 70.6,4.5 70.7,4.5 70.7,4.1 70.8,4.1 70.8,3.9 70.9,3.9 
		70.9,3.7 71,3.7 71,3.3 71.2,3.3 71.2,3.2 39.1,3.2 39.1,3.5 	"/>
	<path class="st9" d="M83.5,47.6h0.1v-0.1h0.1V47h0.1v-0.2H84v-0.2h0.1V46h0.1v-0.2h0.1v-0.5h0.1v-0.2h0.1v-0.2h0.1v-0.2h0.1v-0.7
		h0.1v-0.2H85v-0.4h0.1v-0.2h0.1v-0.4h0.1v-0.4h0.1V42h0.2v-0.2h0.1v-0.4H86V41h0.1v-0.2h0.1v-0.5h0.2v0.1h0.1v0.5h0.1v0.4h0.1v0.4
		H87v0.5h0.1v0.2h0.1v0.4h0.1v0.4h0.1v0.2h0.1v0.5h0.2V44h0.1v0.5H88v0.2h0.1v0.4h0.1v0.5h0.1v0.1h0.1v0.2h0.1v0.4h0.1v0.6h0.1v0.2
		H89v0.4h0.1v0.4h-5.6V47.6L83.5,47.6z M100.6,52.9h-0.1v-0.4h-0.1v-0.4h-0.1v-0.4h-0.1v-0.4H100v-0.4h-0.2v-0.2h-0.1v-0.2h-0.1
		v-0.5h-0.1v-0.2h-0.1v-0.2h-0.1v-0.5H99v-0.2h-0.1v-0.2h-0.1v-0.5h-0.1v-0.1h-0.1v-0.4h-0.1v-0.2h-0.1v-0.4h-0.1v-0.5h-0.1v-0.4H98
		v-0.1h-0.1V46h-0.1v-0.2h-0.1v-0.2h-0.1v-0.5h-0.1v-0.2h-0.1v-0.2h-0.1v-0.5H97V44h-0.1v-0.4h-0.1v-0.4h-0.1v-0.2h-0.1v-0.4h-0.1
		v-0.4h-0.1v-0.5h-0.1v-0.2h-0.1v-0.2h-0.1v-0.5h-0.2v-0.1h-0.1v-0.5h-0.1v-0.2h-0.1v-0.2h-0.1v-0.5h-0.1v-0.2H95v-0.2h-0.1v-0.5
		h-0.1v-0.1h-0.1v-0.5h-0.1v-0.2h-0.1v-0.2h-0.1v-0.5h-0.1v-0.4H94v-0.2h-0.1V36h-0.2v-0.5h-0.1v-0.2h-0.1v-0.1h-14v0.2h-0.1v0.5
		h-0.1v0.2h-0.1v0.6h-0.1v0.2h-0.1v0.2h-0.1v0.2h-0.1v0.5h-0.1v0.2h-0.1v0.2h-0.1v0.5h-0.1v0.2H78v0.2h-0.1v0.5h-0.1v0.4h-0.1v0.1
		h-0.2v0.5h-0.1V41h-0.1v0.4H77v0.5h-0.1v0.2h-0.1v0.2h-0.1v0.4h-0.1v0.4h-0.1v0.2h-0.1v0.4h-0.1v0.2h-0.1v0.4h-0.1v0.4h-0.1V45
		h-0.1v0.2h-0.1v0.4h-0.1v0.2h-0.2v0.5h-0.1v0.4H75v0.2h-0.1v0.2h-0.1v0.5h-0.1v0.2h-0.1v0.2h-0.1v0.5h-0.1v0.2h-0.1V49H74v0.5h-0.1
		v0.1h-0.1V50h-0.1v0.4h-0.1v0.4h-0.2v0.4h-0.1v0.4h-0.1v0.4H73V52h-0.1v0.4h-0.1v0.2h-0.1V53h-0.1v0.4h-0.1v0.2h-0.1v0.4h-0.1v0.4
		H72v0.2h-0.1v0.2h-0.1V55h-0.1v0.5h-0.1v0.1h-0.1V56h-0.1v0.4h-0.1v0.2H71v0.2h-0.1v0.5h-0.1v0.2h-0.1v0.2h-0.1v0.5h-0.1v0.1h-0.1
		v-6.8H59.2V35.2H49v23.5h31.5v-0.4h0.1v-0.4h0.1v-0.5h0.1v-0.5H81v-0.5h0.1V56h0.1v-0.4h0.1v-0.2h0.1V55h0.1v-0.1h0.1v-0.2h0.1
		v-0.6h0.1v-0.2H82v-0.2h8.6v0.4h0.1v0.6h0.1V55H91v0.4h0.1v0.2h0.1v0.2h0.1v0.6h0.1v0.2h0.1v0.4h0.2v0.5H92v0.2h0.1v0.5h0.1v0.4
		h10.7v-0.2h-0.1V58h-0.1v-0.1h-0.1v-0.5h-0.1v-0.1h-0.1v-0.4h-0.1v-0.5h-0.2v-0.2h-0.1v-0.4h-0.1v-0.2h-0.1v-0.2h-0.1v-0.5h-0.1
		v-0.2h-0.1v-0.2h-0.1v-0.5H101v-0.1h-0.1v-0.4h-0.1v-0.4h-0.1V52.9L100.6,52.9z"/>
	<path class="st9" d="M178.6,43.9h-0.1v0.2h-0.1v0.1h-0.1v0.2h-0.1v0.1H178v0.1h-0.1v0.1h-0.2V45h-0.2v0.1h-0.6v0.1h-0.6v0.1h-4.2
		v-4.9h4.2v0.1h0.2v0.1h0.7v0.1h0.4v0.1h0.2V41h0.2v0.1h0.1v0.1h0.1v0.1h0.1v0.2h0.1v0.2h0.1v0.4h0.1v1.1h-0.1V43.9L178.6,43.9z
		 M186.9,49.9h-0.1v-0.1h-0.1v-0.1h-0.1v-0.1h-0.1v-0.2h-0.2v-0.1h-0.1V49h-0.1v-0.1h-0.1v-0.1h-0.2v-0.1h-0.2v-0.1H185v-0.1h-0.1
		v-0.2h-0.4v-0.1h-0.4V48h-0.4v-0.1H183v-0.1h-0.2v-0.1h0.6v-0.1h0.4v-0.1h0.1v-0.1h0.5v-0.1h0.2V47h0.4v-0.1h0.5v-0.1h0.2v-0.1h0.2
		v-0.1h0.1v-0.2h0.2v-0.1h0.2V46h0.2v-0.1h0.1v-0.1h0.1v-0.1h0.1v-0.1h0.4v-0.2h0.1v-0.1h0.1v-0.1h0.1V45h0.1v-0.2h0.1v-0.1h0.1
		v-0.1h0.1v-0.4h0.1v-0.2h0.1v-0.2h0.1v-0.5h0.1v-0.1h0.1v-2.8h-0.1v-0.8h-0.1v-0.2h-0.1V39h-0.1v-0.2h-0.1v-0.4h-0.1v-0.1H188v-0.1
		h-0.1v-0.2h-0.1v-0.1h-0.1v-0.2h-0.1v-0.1h-0.1v-0.1H187v-0.1h-0.1v-0.1h-0.1v-0.1h-0.2v-0.1h-0.1v-0.1h-0.2v-0.1h-0.1v-0.1h-0.1
		v-0.1h-0.1v-0.1h-0.5v-0.1H185V36h-0.6v-0.1h-0.2v-0.1h-0.7v-0.2h-0.7v-0.1h-0.6v-0.1h-1.3v-0.1h-18.4v23.5h10.2v-7.9h3.6v0.1h0.5
		V51h0.2v0.1h0.4v0.4h0.2v0.2h0.1v0.1h0.1V52h0.1v0.5h0.1v0.1h0.1V53h0.1v0.8h0.1v0.5h0.1v1.1h0.1v0.5h0.1v1.1h0.1v1h0.1v0.6h0.1
		v0.1h10.5v-0.4h-0.1v-0.4h-0.1v-0.2h-0.2v-0.7h-0.1v-0.2h-0.1v-0.5h-0.1v-0.8h-0.1v-0.6h-0.1v-0.7h-0.1v-0.7h-0.1V53h-0.1v-0.5H188
		V52h-0.1v-0.4h-0.1v-0.2h-0.1v-0.4h-0.1v-0.2h-0.1v-0.2h-0.1v-0.1H187v-0.4h-0.1V49.9L186.9,49.9z"/>
	<path class="st9" d="M140.2,47.5h0.1V47h0.1v-0.2h0.1v-0.2h0.1v-0.4h0.1V46h0.1v-0.5h0.1v-0.4h0.1v-0.4h0.1v-0.2h0.1v-0.4h0.1V44
		h0.1v-0.4h0.1v-0.4h0.1v-0.4h0.1v-0.4h0.1v-0.2h0.1V42h0.1v-0.2h0.1v-0.1h0.1v-0.2h0.1v-0.5h0.1v-0.2h0.1v-0.4h0.2v0.5h0.1v0.4h0.1
		v0.2h0.1v0.4h0.1v0.4h0.1v0.2h0.1v0.5h0.1v0.2h0.1v0.2h0.1v0.5h0.1V44h0.1v0.5h0.1v0.1h0.1v0.2h0.1v0.4h0.1v0.4h0.1v0.4h0.1v0.4
		h0.1v0.4h0.1v0.2h0.1v0.4h0.1v0.4h0.1v0.2h-5.6V47.5L140.2,47.5z M136.2,35.5H136v0.4h-0.1v0.2h-0.1v0.4h-0.1v0.4h-0.1v0.2h-0.1
		v0.2h-0.1v0.6h-0.1V38h-0.1v0.2H135v0.5h-0.1v0.4h-0.1v0.2h-0.1v0.4h-0.2v0.4h-0.1v0.2h-0.1v0.4H134V41h-0.1v0.2h-0.1v0.4h-0.1V42
		h-0.1v0.1h-0.1v0.5h-0.1v0.2h-0.1v0.5H133v0.4h-0.1v0.2h-0.1v0.4h-0.1v0.4h-0.1v0.2h-0.2v0.2h-0.1v0.5h-0.1v0.2H132V46h-0.1v0.5
		h-0.1v0.4h-0.1V47h-0.1v0.2h-0.1v0.5h-0.1V48h-0.1v0.6H131v0.2h-0.1V49h-0.1v0.2h-0.1v0.4h-0.1V50h-0.2v0.4h-0.1v0.4H130V51h-0.1
		v0.2h-0.1v0.4h-0.1v0.2h-0.1v0.4h-0.1v0.4h-0.1v0.2h-0.1v0.6h-0.1v0.4H129v0.2h-0.1v0.4h-0.1v0.2h-0.1v0.2h-0.1V55h-0.2v0.5h-0.1
		v0.2H128v0.5h-0.1v0.2h-0.1v0.2h-0.1v0.2h-0.1v0.5h-0.1v0.2h-0.1v0.2h-0.1v0.5h-0.1v0.2h10.1v-0.1h0.1v-0.6h0.1v-0.2h0.1v-0.2h0.1
		v-0.7h0.1v-0.2h0.1V56h0.1v-0.4h0.1v-0.2h0.1v-0.5h0.1v-0.5h0.1v-0.4h0.1v-0.2h0.1v-0.2h8.6v0.2h0.1v0.5h0.1v0.4h0.1v0.2h0.1v0.5
		h0.1v0.4h0.1V56h0.1v0.6h0.1v0.2h0.1v0.5h0.1v0.5h0.2v0.1h0.1v0.5h0.1v0.2h10.5v-0.4h-0.1v-0.4h-0.1v-0.2h-0.1v-0.4H159v-0.4h-0.1
		v-0.2h-0.2v-0.2h-0.1v-0.6h-0.1v-0.1h-0.1v-0.2h-0.1v-0.6h-0.1v-0.2h-0.1v-0.2h-0.1v-0.4h-0.1v-0.4h-0.1v-0.2h-0.1v-0.4h-0.1v-0.2
		h-0.1v-0.4h-0.1v-0.4H157v-0.2h-0.1v-0.2h-0.2v-0.2h-0.1V51h-0.1v-0.2h-0.1v-0.2h-0.1v-0.6H156v-0.2h-0.1v-0.5h-0.1v-0.2h-0.1v-0.2
		h-0.1v-0.2h-0.1v-0.4h-0.1v-0.4h-0.1v-0.2h-0.1v-0.4h-0.1v-0.2h-0.1v-0.2h-0.2v-0.5h-0.1v-0.2h-0.1v-0.2h-0.1v-0.6h-0.1v-0.2H154
		v-0.2h-0.1v-0.4h-0.1v-0.4h-0.1v-0.2h-0.1v-0.4h-0.1v-0.2h-0.1v-0.4h-0.1v-0.4H153v-0.2h-0.1v-0.2h-0.1v-0.2h-0.2v-0.5h-0.1v-0.2
		h-0.1v-0.6h-0.1v-0.2h-0.1v-0.2H152v-0.5h-0.1v-0.1h-0.1v-0.4h-0.1v-0.1h-0.1v-0.5h-0.1v-0.4h-0.1v-0.4h-0.1v-0.2H151v-0.2h-0.1
		v-0.2h-0.1v-0.4h-0.2v-0.4h-0.1v-0.2h-0.1v-0.6h-0.1v-0.1h-14V35.5L136.2,35.5z"/>
	<polygon class="st9" points="203.2,35.2 203.2,35.3 202.6,35.3 202.6,35.4 202.2,35.4 202.2,35.5 201.6,35.5 201.6,35.6 
		201.5,35.6 201.5,35.8 201.3,35.8 201.3,35.9 200.7,35.9 200.7,36 200.6,36 200.6,36.1 200.2,36.1 200.2,36.2 199.8,36.2 
		199.8,36.3 199.2,36.3 199.2,36.5 198.9,36.5 198.9,36.7 198.6,36.7 198.6,36.8 198.5,36.8 198.5,36.9 198.3,36.9 198.3,37.1 
		198,37.1 198,37.2 197.8,37.2 197.8,37.3 197.6,37.3 197.6,37.4 197.4,37.4 197.4,37.5 197.1,37.5 197.1,37.8 196.8,37.8 
		196.8,37.9 196.7,37.9 196.7,38 196.6,38 196.6,38.1 196.4,38.1 196.4,38.3 196.2,38.3 196.2,38.4 196.1,38.4 196.1,38.5 196,38.5 
		196,38.6 195.9,38.6 195.9,38.7 195.8,38.7 195.8,38.9 195.6,38.9 195.6,39 195.5,39 195.5,39.1 195.4,39.1 195.4,39.2 195.2,39.2 
		195.2,39.3 195,39.3 195,39.5 194.9,39.5 194.9,39.7 194.8,39.7 194.8,39.8 194.7,39.8 194.7,39.9 194.6,39.9 194.6,40.1 
		194.4,40.1 194.4,40.2 194.3,40.2 194.3,40.4 194.2,40.4 194.2,40.7 194.1,40.7 194.1,40.8 194,40.8 194,41 193.8,41 193.8,41.1 
		193.7,41.1 193.7,41.4 193.6,41.4 193.6,41.7 193.5,41.7 193.5,41.9 193.4,41.9 193.4,42.1 193.1,42.1 193.1,42.3 193,42.3 
		193,42.8 192.9,42.8 192.9,43.1 192.8,43.1 192.8,43.7 192.7,43.7 192.7,44.3 192.5,44.3 192.5,45.1 192.4,45.1 192.4,47.8 
		192.5,47.8 192.5,48.9 192.7,48.9 192.7,49.3 192.8,49.3 192.8,50 192.9,50 192.9,50.4 193,50.4 193,51 193.1,51 193.1,51.2 
		193.4,51.2 193.4,51.6 193.5,51.6 193.5,51.8 193.6,51.8 193.6,52 193.7,52 193.7,52.4 193.8,52.4 193.8,52.5 194,52.5 194,52.8 
		194.1,52.8 194.1,52.9 194.2,52.9 194.2,53.1 194.3,53.1 194.3,53.3 194.4,53.3 194.4,53.5 194.6,53.5 194.6,53.7 194.7,53.7 
		194.7,53.8 194.8,53.8 194.8,53.9 194.9,53.9 194.9,54.1 195,54.1 195,54.3 195.2,54.3 195.2,54.4 195.4,54.4 195.4,54.5 
		195.5,54.5 195.5,54.7 195.6,54.7 195.6,54.8 195.8,54.8 195.8,54.9 195.9,54.9 195.9,55 196,55 196,55.1 196.1,55.1 196.1,55.4 
		196.4,55.4 196.4,55.5 196.5,55.5 196.5,55.6 196.7,55.6 196.7,55.7 196.8,55.7 196.8,55.9 197.1,55.9 197.1,56 197.2,56 
		197.2,56.2 197.6,56.2 197.6,56.3 197.7,56.3 197.7,56.5 197.9,56.5 197.9,56.6 198.2,56.6 198.2,56.7 198.4,56.7 198.4,56.8 
		198.6,56.8 198.6,56.9 198.8,56.9 198.8,57.1 199,57.1 199,57.3 199.5,57.3 199.5,57.4 199.7,57.4 199.7,57.5 200.3,57.5 
		200.3,57.7 200.4,57.7 200.4,57.8 200.8,57.8 200.8,57.9 201.2,57.9 201.2,58 201.7,58 201.7,58.3 202.2,58.3 202.2,58.4 
		202.8,58.4 202.8,58.5 203.7,58.5 203.7,58.6 204.5,58.6 204.5,58.7 204.9,58.7 204.9,58.9 206.2,58.9 206.2,59 211,59 211,58.9 
		212.8,58.9 212.8,58.7 214.2,58.7 214.2,58.6 214.7,58.6 214.7,58.5 215.9,58.5 215.9,58.4 216.4,58.4 216.4,58.3 217,58.3 217,58 
		217.5,58 217.5,57.9 218.3,57.9 218.3,57.8 219,57.8 219,45.3 208.2,45.3 208.2,49.8 210.4,49.8 210.4,52.9 210.2,52.9 210.2,53 
		209.4,53 209.4,53.1 207.1,53.1 207.1,53 206.8,53 206.8,52.9 206.1,52.9 206.1,52.8 205.8,52.8 205.8,52.6 205.6,52.6 205.6,52.5 
		205.2,52.5 205.2,52.4 205,52.4 205,52.2 204.7,52.2 204.7,52 204.6,52 204.6,51.9 204.5,51.9 204.5,51.8 204.4,51.8 204.4,51.7 
		204.3,51.7 204.3,51.6 204.1,51.6 204.1,51.4 204,51.4 204,51.2 203.9,51.2 203.9,51.1 203.8,51.1 203.8,51 203.7,51 203.7,50.7 
		203.5,50.7 203.5,50.5 203.3,50.5 203.3,50.1 203.2,50.1 203.2,49.9 203.1,49.9 203.1,49.6 202.9,49.6 202.9,48.9 202.8,48.9 
		202.8,48.2 202.7,48.2 202.7,46 202.8,46 202.8,45.3 202.9,45.3 202.9,44.8 203.1,44.8 203.1,44.6 203.2,44.6 203.2,44.3 
		203.3,44.3 203.3,44 203.5,44 203.5,43.9 203.7,43.9 203.7,43.7 203.8,43.7 203.8,43.4 203.9,43.4 203.9,43.3 204,43.3 204,43.2 
		204.1,43.2 204.1,43.1 204.3,43.1 204.3,42.9 204.4,42.9 204.4,42.8 204.5,42.8 204.5,42.7 204.6,42.7 204.6,42.6 204.7,42.6 
		204.7,42.3 205,42.3 205,42.2 205.1,42.2 205.1,42.1 205.3,42.1 205.3,42 205.6,42 205.6,41.9 205.9,41.9 205.9,41.7 206.2,41.7 
		206.2,41.6 206.4,41.6 206.4,41.4 206.8,41.4 206.8,41.3 207.1,41.3 207.1,41.1 207.4,41.1 207.4,41 208,41 208,40.9 208.6,40.9 
		208.6,40.8 209.8,40.8 209.8,40.7 212.5,40.7 212.5,40.8 213.8,40.8 213.8,40.9 214.6,40.9 214.6,41 215.4,41 215.4,41.1 216,41.1 
		216,41.3 216.4,41.3 216.4,41.4 216.8,41.4 216.8,41.6 217.1,41.6 217.1,41.7 217.3,41.7 217.3,41.9 217.5,41.9 217.5,42 218,42 
		218,35.8 217.9,35.8 217.9,35.5 217.1,35.5 217.1,35.4 216.4,35.4 216.4,35.3 215.5,35.3 215.5,35.2 214.9,35.2 214.9,35 212.9,35 
		212.9,34.9 211.2,34.9 211.2,34.8 205.7,34.8 205.7,34.9 205.2,34.9 205.2,35 204,35 204,35.2 203.2,35.2 	"/>
	<polygon class="st9" points="247.8,52.9 234.7,52.9 234.7,49.8 247,49.8 247,44.1 234.7,44.1 234.7,40.9 247.6,40.9 247.6,35.2 
		224.9,35.2 224.9,58.6 247.8,58.6 247.8,52.9 	"/>
	<polygon class="st9" points="115.3,58.6 115.3,50.1 127.4,50.1 127.4,44.6 115.4,44.6 115.4,40.9 127.8,40.9 127.8,35.2 
		105.3,35.2 105.3,58.6 115.3,58.6 	"/>
	<polygon class="st9" points="127.4,50.1 115.3,50.1 115.3,58.6 115.4,58.6 115.4,50.4 127.4,50.4 127.4,50.1 	"/>
</g>
<g id="Capa_4">
	<path class="st10" d="M124.6,15.4c0.1,0,0.2,0,0.2,0C124.7,15.4,124.6,15.4,124.6,15.4z"/>
	<path class="st10" d="M124.1,15.4c0.1,0,0.2,0,0.3,0C124.2,15.4,124.1,15.4,124.1,15.4z"/>
	<path class="st11" d="M120.3,24.5l4.6,3.2l2.6-0.6l-5.1-4.5l0.9-6.9c-8.1,1.3-15.8,7.8-11.5,11.6L120.3,24.5z"/>
	<polygon class="st10" points="125.1,15.4 125.1,15.4 125,15.4 	"/>
	<path class="st12" d="M127.4,119.6v-16.7l4.7,6.2h7.3l1.6-6.4l-13.2-19.1l1-4.7l-1.5-2V57l2.1,0l4-5.9l21.1,5.5l20.5,27.8l0.1,3.9
		L155,109.8l-5.8,0.7l1.7-9.9l4-0.7l8.2-13.2l-9.8-6.2l-2.5-11.8l-6.8-7.7l-1.7,0.3l5.8,7.5c0.4,1,2.3,13,2.5,13.9l-5.2,37H127.4
		L127.4,119.6z M127.4,92.6l10,13.7l0.2-0.6l0.7-2.4l-10.8-15.1V92.6L127.4,92.6z M127.4,53.8h1.5l8-12.4l0-12.5l-9.5,1.6V53.8z
		 M123.4,78.8l0.7,0.1l-0.7-1V78.8L123.4,78.8z M127.4,30.5v23.3h-4V30.5l0.8,0.5L127.4,30.5L127.4,30.5z M127.4,57v20l-4-5.1V57
		L127.4,57L127.4,57z M127.4,88.2v4.4l-4-5.4v-1.7l1.3-1.1L127.4,88.2L127.4,88.2z M127.4,102.9v16.7h-4V97.7L127.4,102.9z
		 M115.8,83.2l5.1-4.8l2.6,0.4v-0.9l-4.3-5.8l-5,1.1v9.4L115.8,83.2L115.8,83.2z M123.4,30.5v23.3h-2l-3.5-15.3v-5.8l5.2-2.4l0,0
		L123.4,30.5L123.4,30.5z M123.4,57l-3.4,0l-5.5-7.6l-0.4,0.2v16.2l2.3,3.1l4.4-0.5l2.6,3.4V57L123.4,57z M123.4,85.5v1.7l-0.7-1
		L123.4,85.5L123.4,85.5z M123.4,97.7v21.9h-9.3V89.7l4.2,1.1L123.4,97.7z M114.1,73.2l-1.1,0.2l-4.3,5.2v6.1l4-2.6l1.4,0.5V73.2
		L114.1,73.2z M114.1,49.7v16.2l-5.4-7.4v-5.1L114.1,49.7L114.1,49.7z M114.1,89.7v29.8h-5.4v-14l0,0V93l4.8-3.5L114.1,89.7
		L114.1,89.7z M108.7,67.4l2.1,2.8l2.6,0.3l-4.6-6.6V67.4z M108.7,78.6l-1.2,1.4l-10.7,1.6v10.8l11.9-7.7V78.6L108.7,78.6z M96.8,80
		V63.5l9,13.7L96.8,80L96.8,80z M108.7,53.4v5.1l-2.5-3.4L108.7,53.4L108.7,53.4z M108.7,64l-11-15.6l4.8-3.8l-0.1-4.1l-5.3-6.2l0,0
		h0l-0.4-0.1v17.3l11.9,16V64L108.7,64z M108.7,93v12.5l-4.6-9.1L108.7,93z M96.8,81.6l-10.1,1.5L96.8,80V63.5l-1-1.5L88.5,67
		l-8.2,30l10.9-1l5.6-3.6V81.6L96.8,81.6z M96.8,34.1v17.3l-1.4-1.9l0-4.3l-7,5.4l-2.7,0l-4.8-6.1c-0.2-0.3-0.4-0.5-0.6-0.7L93,33.6
		l0,0h0L96.8,34.1z"/>
	<path class="st13" d="M123.2,15.7l-0.9,6.9l5.1,4.5h0c8.6-1.9,12.7-1.1,19.7-0.1v-1.2c-5.6-0.5-9.6-1.9-12-5.7
		c-0.1-0.2-0.2-0.3-0.3-0.5l0,0c-0.1-0.2-0.2-0.3-0.4-0.5l0,0c-0.1-0.1-0.2-0.3-0.4-0.4l0,0c-0.1-0.1-0.3-0.3-0.4-0.4l0,0l0,0
		c-0.1-0.1-0.3-0.2-0.4-0.4l0,0c-0.1-0.1-0.3-0.2-0.4-0.3l0,0c-0.1-0.1-0.3-0.2-0.4-0.3l-0.1,0c-0.1-0.1-0.3-0.2-0.4-0.3l0,0
		c-0.2-0.1-0.3-0.2-0.5-0.2l0,0c-0.2-0.1-0.3-0.1-0.5-0.2l-0.1,0c-0.2-0.1-0.3-0.1-0.5-0.2l-0.1,0c-0.2-0.1-0.3-0.1-0.5-0.2l-0.1,0
		c-0.1,0-0.3-0.1-0.4-0.1l-0.1,0c-0.2,0-0.3-0.1-0.5-0.1l-0.1,0c-0.2,0-0.3-0.1-0.5-0.1l-0.1,0c-0.1,0-0.3,0-0.4-0.1
		c-0.1,0-0.1,0-0.2,0c-0.1,0-0.2,0-0.4,0c-0.1,0-0.1,0-0.2,0c-0.1,0-0.3,0-0.4,0c-0.1,0-0.1,0-0.2,0c-0.1,0-0.3,0-0.4,0l-0.2,0
		c-0.1,0-0.2,0-0.3,0c-0.1,0-0.2,0-0.3,0c-0.1,0-0.2,0-0.3,0c-0.1,0-0.2,0-0.3,0c-0.1,0-0.2,0-0.3,0c-0.1,0-0.2,0-0.3,0
		c-0.1,0-0.2,0-0.3,0C123.4,15.6,123.3,15.7,123.2,15.7L123.2,15.7z"/>
	<path class="st14" d="M155.5,85.3l3.8,2l-3.8,7.7v4.1l7.8-12.5l-7.8-4.9V85.3L155.5,85.3z M155.5,119.6v-3.5l39.1-0.1L170,40.8
		h-14.6v-3.5l16.9,0l26.7,82.2H155.5L155.5,119.6z M155.5,112.7v-3.4l19.8-21l-0.1-3.9l-19.7-26.7v-3.6l0.8,0.2L177.3,84v5.2
		l-21.2,23.4L155.5,112.7z M153.4,84.3l2,1.1v-3.6l-2-1.3l-2.5-11.8l-6.8-7.7l-1.7,0.3l5.8,7.5c0.4,1,2.3,13,2.5,13.9l-5.2,37h10
		v-3.5l-7.4,0l0.3-2.3l7.1-1v-3.4l-0.4,0.5l-5.8,0.7l1.7-9.9l4-0.7l0.5-0.8V95l-0.7,1.5l-3.1,0.5L153.4,84.3L153.4,84.3z
		 M155.5,37.3v3.5h-15.1l-3.5,5.7v-5l0.1-0.1l0-12.5l-0.1,0v-3.1c3.5,0,6.5,0.5,10.4,1.1v-1.2c-4.5-0.4-8-1.4-10.4-3.7v-4.5
		c0.9,1,1.6,2,2.1,2.9c2.2,3.6,10.4,3.3,10.3,5.3v1.7c-0.4,2.7-6.9,1.8-9.3,1.7l0,8.1L155.5,37.3L155.5,37.3z M155.5,54.2v3.6
		l-0.8-1.1L136.8,52v-2.8L155.5,54.2L155.5,54.2z M136.8,109.1v-2.8h0.6l0.8-3l-1.4-2v-4.8l4.3,6.2l-1.6,6.4H136.8z M136.8,17.6V22
		c-0.6-0.6-1.1-1.2-1.6-1.9c-2.7-4.2-7.5-5.1-12.1-4.4v-2.3c1.6-0.2,3-0.3,4.2-0.3C131.7,13.1,134.8,15.3,136.8,17.6L136.8,17.6z
		 M136.8,25.8v3.1L124.3,31l-1.2-0.7v-4l1.8,1.2C130,26.3,133.6,25.8,136.8,25.8L136.8,25.8z M136.8,41.5v5l-1.4,2.3l1.4,0.4V52
		l-3.2-0.8l-4,5.9l-6.4,0v-3.2h5.8L136.8,41.5L136.8,41.5z M136.8,96.5v4.8l-12.1-16.9l-1.6,1.3v-5.1l2.4,0.1l-2.4-3.3v-6l5.8,7.5
		l-1,4.7L136.8,96.5L136.8,96.5z M136.8,106.3h-2.6l-11-15.2v6.1l9,11.9h4.7V106.3z M123.1,13.4v2.3c-8,1.3-15.6,7.8-11.4,11.6
		l8.6-2.8l2.8,1.9v4l-4-2.3l-5.2,1.7V43l7.5,10.8h1.8V57l-3.1,0l-5.5-7.6l-7.3,4.9v-3.8l5.8-3.7l-2-2.3l0-3.8h-3.8v-3.5l3.8,0v-7.4
		l-2.3-1.8v-3.9C108.7,16.7,116.8,14.1,123.1,13.4L123.1,13.4z M123.1,71.5l-2.3-3l-4.4,0.5l-9.2-12.6v5.4l6.1,8.7l-2.6-0.3
		l-1.2,3.4l-2.3-3.3V75l0.4,0.5l-0.4,0.4v4.2l0.3,0l5.5-6.6l6.1-1.4l4,5.4V71.5L123.1,71.5z M123.1,80.6v5.1l-2.4,2l2.4,3.3v6.1
		l-4.8-6.4l-4.8-1.3l-6.3,4.6v-4.7l5.1-3.8l3.7,1.1l6.3-6.1L123.1,80.6L123.1,80.6z M107.2,119.6v-17l1.5,2.9v14H107.2z M107.2,37.4
		v3.5h-2l0,4.7l-3.8,3.2l2.7,3.8l3-1.9v3.8l-1,0.7l1,1.4v5.4l-9.5-13.5l4.8-3.8l-0.1-4.1l-5.3-6.2L93,33.6v-3.2l5.3,0.5l5.3,6.4
		L107.2,37.4L107.2,37.4z M107.2,70.4L93.6,51L93,51.4v3.3l0.3-0.2l2.6,3.9l-3,2v3.6l4.5-3.1l9.6,14.1V70.4L107.2,70.4z M107.2,75.9
		v4.2L93,82.1v-1l12.7-3.9L107.2,75.9L107.2,75.9z M107.2,89.4v4.7l-3.1,2.3l3.1,6.2v17H93v-3.5l12.7,0v-7.5l-5.3-9.9l-5.2,4
		l-2.3,0.3v-3L107.2,89.4z M93,30.4v3.2l0,0L80.3,43.7l-0.6,4.1l4.9,6.4l4,0.4l4.4-3.3v3.3l-4.7,3.3l-5.5-0.4l-1.7-2.1l-19.9,60.7
		l31.8,0v3.5H57.1l21.6-67.8l-2-2.7l0.4-6.4l15.3-12.2L93,30.4L93,30.4z M93,60.3l-6.4,4.2l-9.8,33l4.1,6.9l12.2-1.6v-3l-9.8,1.3
		L80.3,97l8.2-30l4.5-3.1V60.3L93,60.3z M93,81.1l-6.4,1.9l6.4-0.9V81.1z"/>
	<path class="st15" d="M170,40.8l24.5,75.2l-39.1,0.1v-3.4l0.7-0.1l21.2-23.4V84l-21.1-29.6l-0.8-0.2V40.8H170L170,40.8z M155.5,95
		l3.8-7.7l-3.8-2V95z M155.5,116.1l-7.4,0l0.3-2.3l7.1-1V116.1L155.5,116.1z M155.5,54.2l-20.1-5.4l5-8h15.1V54.2L155.5,54.2z
		 M155.5,85.3V95l-0.7,1.5l-3.1,0.5l1.8-12.7L155.5,85.3L155.5,85.3z M101.4,48.7l3.8-3.2l0-4.7h5.8l0,3.8l2,2.3l-8.8,5.6
		L101.4,48.7L101.4,48.7z M81.2,55.4l1.7,2.1l5.5,0.4l5-3.5l2.6,3.9l-9.4,6.2l-9.8,33l4.1,6.9l14.5-1.9l5.2-4l5.3,9.9v7.5l-44.6,0
		L81.2,55.4z"/>
	<path class="st16" d="M137.4,106.3l-14.3-19.6v4.4l11,15.2L137.4,106.3L137.4,106.3L137.4,106.3z M123.1,104.6v-7.4l5.6,7.4H123.1
		L123.1,104.6z M123.1,80.6v-1.9l1.1,0.2l1.4,1.8L123.1,80.6L123.1,80.6z M123.1,58.2V57l1.2,0L123.1,58.2L123.1,58.2z M155,99.9
		l11.9-12.5l0-3.1l-10-6.2l-5.9-9.5l2.5,11.8l9.8,6.2L155,99.9z M123.1,86.7l-0.4-0.6l-2,1.7l2.4,3.3V86.7L123.1,86.7z M123.1,57
		v1.2l-1.1,1.1h-3.5v-4.4L120,57L123.1,57L123.1,57z M123.1,78.7v1.9l-0.8,0l-3.9,3.7v-3.7l2.4-2.3L123.1,78.7L123.1,78.7z
		 M123.1,97.2v7.4h-1l-3.7-5.7v-7.8L123.1,97.2L123.1,97.2z M118.5,49.6v-8.8l2.9,13h0L118.5,49.6L118.5,49.6z M118.5,32.5v-4.2
		l0.6-0.2l4,2.3L118.5,32.5z M118.5,28.3v4.2l-0.5,0.2v5.8l0.5,2.4v8.8l-4.6-6.7V29.8L118.5,28.3L118.5,28.3z M118.5,54.9l-4-5.5
		l-3.4,2.3l6.8,7.6h0.5V54.9L118.5,54.9z M118.5,80.7v3.7l-2.5,2.4l0,0l-3.7-1.1l-10.7,7.9v-4.3l11.1-7.2l3.1,1.1L118.5,80.7
		L118.5,80.7z M118.5,91.1l-0.2-0.3l-4.8-1.3l-9.4,6.9l4.6,9.1v5.6l1.9-6.5l-2.7-6l5.6-7.4l5,7.7V91.1L118.5,91.1z M101.6,70.9v-4.1
		l6,8.7l-1.8,1.8L101.6,70.9L101.6,70.9z M101.6,62.4l7.9,11.3l1.2-3.4l-9.2-12.3V62.4z M101.6,57.9v4.5l-8-11.4l-5,3.7l-4-0.4
		l-4.9-6.4l0.6-4.1l5.4,6.8l2.7,0l7-5.4l0,4.3L101.6,57.9L101.6,57.9z M101.6,66.8l-4.1-5.9l-1.9,1.3l0.2-0.1l5.8,8.8V66.8
		L101.6,66.8z M101.6,89.3v4.3L93,99.9l-9.8,1.3L80.3,97l10.9-1L101.6,89.3z"/>
	<path d="M202.7,139v0.7c0,0,0,0.1,0,0.1c-0.4,4.2-4.6,6.4-8.5,6.4c-2.6,0-5.3-1.3-7.4-3.9l3.5-3.2c2.2,2.6,6.9,2.7,7.1,0.4
		c0.1-1.2-1.9-1.9-3.7-2.2c-3.5-0.5-6.7-2.7-6.6-6.9c0.2-4.2,3.8-6.5,7.8-6.5c2.6,0,5.2,0.7,7.4,3.4l-3.6,2.7
		c-2.3-2.4-6.1-2.3-6.2,0.2c0.1,1,1.2,1.6,2.9,2C198.9,133.2,202.5,134.4,202.7,139L202.7,139z M176.6,146.5v-5.1
		c1.7,0,3.5-0.8,3.5-2.4v-7.7c0-1.6-1.8-2.4-3.5-2.4v-5c4.5,0,8.9,2.5,8.9,7.4v7.7C185.5,144,181.1,146.5,176.6,146.5L176.6,146.5z
		 M53.4,131.4v7.7c0,4.9,4.5,7.4,9,7.4c4.5,0,8.9-2.5,8.9-7.4h-5.5c0,3.1-7,3.1-7,0v-7.7c0-3.2,7-3.3,7,0h5.5c0-4.9-4.5-7.4-9-7.4
		C57.9,124,53.4,126.4,53.4,131.4L53.4,131.4z M176.6,124v5c-1.7,0-3.5,0.8-3.5,2.4v7.7c0,1.6,1.7,2.4,3.5,2.4v5.1
		c-4.5,0-8.9-2.5-8.9-7.4v-7.7C167.6,126.4,172.1,124,176.6,124L176.6,124L176.6,124z M149.7,124.4v5.2h5.8V146h5.5v-16.4h5.8v-5.2
		H149.7L149.7,124.4z M136.5,135.4l6.2,10.6h5.5v-21.6h-5.4v11l-6.6-11h-5.2V146h5.5V135.4L136.5,135.4z M128.6,124.4h-15V146h15
		v-5.2H119v-3.2h8.8v-4.8H119v-3.2h9.5V124.4L128.6,124.4z M96.3,135.4l2.7,7.4h3.8l2.7-7.4V146h5.5v-21.6h-5.5l-4.6,10.5l-4.5-10.5
		h-5.5V146h5.5V135.4L96.3,135.4z M88.2,124.4h-15V146h15v-5.2h-9.5v-3.2h8.8v-4.8h-8.8v-3.2h9.5V124.4z"/>
	<path d="M119.4,173.5v-3.8l6.2-17.8h5l7.7,21.6h-5.9l-1.4-4.3h-4.8l1.2-4.8h2.2l-1.4-6.3l-4.2,15.5H119.4L119.4,173.5z M119.4,157
		h1.3v-5.2h-1.3V157L119.4,157z M179.8,157l-8.7,14.5v2h20.4l4.2-15.5l1.4,6.3H195l-1.2,4.8h4.8l1.4,4.3h5.9l-7.7-21.6h-5l-6.1,16.6
		h-7.8l7.8-14.8v-1.8h-15.3v5.1H179.8L179.8,157z M169.7,151.9h-15v21.6h15v-5.2h-9.5v-3.2h8.8v-4.8h-8.8V157h9.5V151.9L169.7,151.9
		z M153.6,168.1h-8.8v-16.2h-5.5v21.6h14.3V168.1z M119.4,151.9v5.2h-4.5v16.4h-5.5V157h-5.5v-5.2H119.4L119.4,151.9z M119.4,169.7
		l-1.3,3.8h1.3V169.7L119.4,169.7z M103.9,173.5h0.4l-0.4-0.4V173.5z M103.9,151.9v5.2h-0.4v-5.2H103.9L103.9,151.9z M103.9,173.1
		l-5.9-7c2.6-0.8,4.3-3.1,4.2-7.1c-0.1-5.1-3.6-7.1-8-7.1h-8.6v21.6h5.5V168v-1.3v-4.7v-1.3V157h3.2c3.4,0,3.4,4.9,0,4.9h-2.2v4.7
		l5.3,6.9h6.4V173.1L103.9,173.1z M75,173.9v-5.1c1.7,0,3.5-0.8,3.5-2.4v-7.7c0-1.6-1.8-2.4-3.5-2.4v-5c4.5,0,8.9,2.5,8.9,7.4v7.7
		C83.9,171.5,79.5,173.9,75,173.9L75,173.9z M65.2,151.9h-15v21.6h5.5V166h6.6L64,161h-8.3v-3.9h7.8L65.2,151.9L65.2,151.9z
		 M75,151.4v5c-1.7,0-3.5,0.8-3.5,2.4v7.7c0,1.6,1.7,2.4,3.5,2.4v5.1c-4.5,0-8.9-2.5-8.9-7.4v-7.7C66,153.9,70.5,151.4,75,151.4
		L75,151.4z"/>
</g>
</svg>
