<?xml version="1.0" encoding="utf-8"?>
<!-- Generator: Adobe Illustrator 19.2.1, SVG Export Plug-In . SVG Version: 6.00 Build 0)  -->
<svg version="1.1" id="Capa_2" xmlns="http://www.w3.org/2000/svg" xmlns:xlink="http://www.w3.org/1999/xlink" x="0px" y="0px"
	 viewBox="0 0 192.8 90" style="enable-background:new 0 0 192.8 90;" xml:space="preserve">
<style type="text/css">
	.st0{fill-rule:evenodd;clip-rule:evenodd;fill:#103578;}
	.st1{fill-rule:evenodd;clip-rule:evenodd;fill:#E33036;}
	.st2{fill-rule:evenodd;clip-rule:evenodd;fill:#FFFFFF;}
</style>
<g>
	<path class="st0" d="M188.6,51.4c0,0-0.1-0.1-0.1-0.5v-0.1c0-0.2-0.1-0.3-0.2-0.3c0.2-0.1,0.3-0.2,0.3-0.5c0-0.3-0.2-0.5-0.6-0.5
		h-0.8v2h0.4c0,0,0-0.8,0-0.9h0.1c0.1,0,0.1,0,0.2,0c0,0,0.1,0,0.1,0c0.1,0,0.1,0.1,0.1,0.3V51c0,0.2,0,0.3,0.1,0.4v0h0.5
		L188.6,51.4L188.6,51.4z M183.2,65c0-0.5,0-17.4,0-17.4h-5.9v22.3h12.5V65C189.8,65,183.7,65,183.2,65L183.2,65z M66,63.1
		c0,1.5-0.2,2.9-1.7,2.9c-1.2,0-1.7-0.5-1.7-1.7l0-10.8c0-0.8,0.2-1.3,0.5-1.6c0.3-0.3,0.7-0.4,1.4-0.4c0.9,0,1.5,1,1.5,2.6v1.7h5.9
		v-2.1c0-4.3-2.5-6.6-7.6-6.6c-5.1,0-7.5,2.3-7.5,7.2v8.9c0,4.9,2.3,7.2,7.2,7.2c5.2,0,8-2.4,8-6.6v-2.9H66V63.1z M89.4,68.5
		c-0.2-0.9-0.3-2.7-0.3-4.4c-0.1-1-0.1-1.8-0.1-2.5c-0.1-1.3-1-2.4-2.3-2.9c2.1-1.2,2.5-3.1,2.5-5c0-4.3-2.1-6.3-6.9-6.3h-8.1v22.3
		h5.9c0,0,0-8.1,0-8.6c0.4,0,1.5,0,1.5,0h0.1c0.9,0.1,1.3,0.7,1.5,2.1c0.1,0.7,0.1,1.6,0.1,2.6c0,0.8,0,1.6,0.1,2.4
		c0,0.5,0.2,1,0.3,1.3l0.1,0.2H90v-0.7l-0.1-0.1C89.7,69,89.6,68.8,89.4,68.5L89.4,68.5z M81.7,56.9L81.7,56.9c-0.1,0-1.3,0-1.6,0
		c0-0.4,0-4.4,0-4.8c0.6,0,1.2,0,1.6,0.1c0.4,0.1,0.8,0.2,1.1,0.4c0.4,0.4,0.5,1,0.5,1.9C83.3,56.8,82.1,56.9,81.7,56.9L81.7,56.9z
		 M100.5,64.2c0,0.4-0.1,1.8-1.6,1.8c-1.1,0-1.6-0.5-1.6-1.7V47.6h-5.8v16c0,4.4,2.6,6.8,7.5,6.8c4.9,0,7.5-2.3,7.5-6.8v-16h-5.9
		V64.2z M120.9,52v-4.4h-12.6v4.9c0,0,5.4,0,6.1,0c-0.3,0.7-6.6,13.2-6.6,13.2v4.2h13.5V65c0,0-6.1,0-6.8,0
		C114.8,64.4,120.9,52,120.9,52L120.9,52z M135.6,47.6h-3.4L127,69.9h5.9c0,0,0.6-3.8,0.7-4.3h3.8c0.1,0.4,0.8,4.3,0.8,4.3h6
		L139,47.6H135.6z M135.6,61.3h-1.3l1.3-7.9v-0.1c0.3,2,1.2,7.6,1.2,8H135.6z M157.8,52v-4.4h-12.7v4.9c0,0,5.4,0,6.1,0
		c-0.3,0.7-6.6,13.2-6.6,13.2v4.2h13.5V65c0,0-6.1,0-6.8,0C151.7,64.4,157.8,52,157.8,52L157.8,52z M168.9,64.2
		c0,0.4-0.1,1.8-1.6,1.8c-1.1,0-1.6-0.5-1.6-1.7V47.6h-5.9v16c0,4.4,2.6,6.8,7.5,6.8c5,0,7.5-2.3,7.5-6.8v-16h-5.9V64.2z
		 M184.5,43.9h-2.9c-3,0-5.5-2.5-5.5-5.4V35h5.3v4.1c0,0.8,0.7,1.5,1.5,1.5c1.2,0,1.4-0.8,1.5-1.7c0.1-0.9-0.1-1.6-0.5-2.2
		c-0.6-0.9-1.5-1.6-2.5-2.4c-2.1-1.7-4.2-3.2-4.7-4.3c-0.4-0.7-0.6-1.5-0.6-2.5c0-3,2.5-5.5,5.5-5.5h2.9c3,0,5.4,2.5,5.4,5.5v2.5
		h-5.6v-3.2c0-0.8-0.7-1.5-1.5-1.5c-1.1,0-1.4,0.7-1.3,1.7c0,0.6,0.1,1.1,0.6,1.6l6.2,5.5c1.8,1.6,1.6,2.1,1.6,4.3
		C190,41.4,187.5,43.9,184.5,43.9L184.5,43.9z M65.6,37c0,1.4-0.2,2.6-1.7,2.6c-1.1,0-1.6-0.5-1.6-1.6l0.1-9.9
		c0-0.7,0.1-1.2,0.4-1.5c0.3-0.3,0.7-0.4,1.3-0.4c0.9,0,1.4,0.9,1.4,2.4v1.5H71v-1.9c0-4-2.4-6-7.2-6c-4.8,0-7.1,2.1-7.1,6.6v8.2
		c0,4.4,2.2,6.6,6.7,6.6c4.9,0,7.6-2.2,7.6-6.1V35h-5.5V37z M79.5,22.3L79.5,22.3c-4.6,0-7.2,2.3-7.2,6.2v8.2c0,4.9,2.2,7.1,7.1,7.1
		h0c5,0,7.1-2.1,7.1-7.1v-8.2C86.6,24.5,84.1,22.3,79.5,22.3L79.5,22.3z M81.1,37c0,1.3-0.2,2.6-1.5,2.6h0c-1.1,0-1.6-0.9-1.6-2.6
		v-8.2c0-1.7,0.5-2.5,1.6-2.5c1.3,0,1.6,1,1.6,2.5V37z M97.4,32.9c-0.7-1.9-3.6-10.1-3.6-10.1h-5.6v20.5h5.3c0,0-0.3-8-0.4-10.1
		c0.7,2,3.6,10.1,3.6,10.1h5.6V22.7h-5.3C96.9,22.7,97.3,30.9,97.4,32.9L97.4,32.9z M112,37c0,1.4-0.2,2.7-1.6,2.7
		c-1.1,0-1.5-0.5-1.5-1.6l0-9.9c0-0.7,0.1-1.2,0.4-1.5c0.3-0.3,0.7-0.4,1.3-0.4c0.8,0,1.3,0.9,1.3,2.4v1.5h5.4v-2c0-4-2.3-6-7-6
		c-4.7,0-6.9,2.1-6.9,6.6v8.2c0,4.5,2.1,6.6,6.6,6.6c4.8,0,7.4-2.2,7.4-6.1V35H112V37z M132.4,42c-0.2-0.8-0.2-2.5-0.3-4
		c-0.1-0.8-0.1-1.7-0.1-2.2c-0.1-1.3-0.9-2.2-2.1-2.6c2-1.1,2.3-2.8,2.3-4.6c0-4-2-5.7-6.3-5.7h-7.4v20.5h5.4c0,0,0-7.5,0-7.9
		c0.3,0,1.4,0,1.4,0h0.1c0.8,0.1,1.2,0.6,1.3,1.9c0.1,0.7,0.1,1.5,0.1,2.4c0,0.7,0,1.5,0.1,2.2c0,0.5,0.2,0.9,0.3,1.2l0.1,0.1h5.8
		v-0.6l-0.1-0.1C132.7,42.4,132.6,42.3,132.4,42L132.4,42z M125.3,31.3L125.3,31.3c0,0-1.1,0-1.5,0c0-0.4,0-4,0-4.4
		c0.6,0,1.1,0,1.5,0.1c0.4,0.1,0.8,0.2,1,0.4c0.3,0.3,0.5,0.8,0.5,1.7C126.8,31.2,125.7,31.3,125.3,31.3L125.3,31.3z M139.1,34.9
		c0.4,0,6.3,0,6.3,0v-4.5c0,0-5.9,0-6.3,0c0-0.4,0-2.8,0-3.2c0.4,0,6.6,0,6.6,0v-4.5h-12.1v20.5H146v-4.5c0,0-6.5,0-6.9,0
		C139.1,38.4,139.1,35.3,139.1,34.9L139.1,34.9z M146.3,27.2c0,0,3.6,0,4,0c0,0.4,0,16,0,16h5.6c0,0,0-15.6,0-16c0.4,0,4.1,0,4.1,0
		v-4.5h-13.7V27.2z M167.9,22.3L167.9,22.3c-4.6,0-7.2,2.3-7.2,6.2v8.2c0,4.9,2.2,7.1,7.1,7.1h0c5,0,7.1-2.1,7.1-7.1v-8.2
		C175,24.5,172.5,22.3,167.9,22.3L167.9,22.3z M169.4,37c0,1.3-0.2,2.6-1.5,2.6h0c-1.1,0-1.6-0.9-1.6-2.6v-8.2
		c0-1.7,0.5-2.5,1.6-2.5c1.3,0,1.6,1,1.6,2.5V37z M186.8,47.8c0.7,0,1.4,0.3,1.9,0.8c0.5,0.5,0.8,1.1,0.8,1.9c0,0.7-0.3,1.4-0.8,1.9
		c-0.5,0.5-1.1,0.8-1.9,0.8c-0.7,0-1.4-0.3-1.9-0.8c-0.5-0.5-0.8-1.1-0.8-1.9c0-0.7,0.3-1.4,0.8-1.9C185.4,48.1,186,47.8,186.8,47.8
		L186.8,47.8z M188.4,48.8c-0.4-0.4-1-0.7-1.6-0.7c-0.6,0-1.2,0.2-1.6,0.7c-0.4,0.4-0.7,1-0.7,1.6c0,0.6,0.3,1.2,0.7,1.6
		c0.4,0.4,1,0.7,1.6,0.7c0.6,0,1.2-0.3,1.6-0.7c0.4-0.4,0.7-1,0.7-1.6C189.1,49.8,188.8,49.2,188.4,48.8L188.4,48.8z M185.9,50.4
		c0,0,0,0.1-0.1,0.3C185.9,50.5,185.9,50.4,185.9,50.4l-0.3-0.9H185v2h0.4v-0.7c0-0.3,0-0.6,0-0.9c0.1,0.4,0.4,1.6,0.4,1.6h0.3
		c0,0,0.2-1.1,0.3-1.5c0,0.3,0,0.5,0,0.8v0.7h0.4v-2h-0.7L185.9,50.4z M187.9,50.3h-0.3c0-0.1,0-0.4,0-0.5h0.3c0.1,0,0.2,0,0.2,0.2
		C188.1,50.2,188,50.3,187.9,50.3L187.9,50.3z"/>
	<polygon class="st1" points="29.3,20.5 4.5,20.5 4.5,70.3 54.2,70.3 54.2,20.5 	"/>
	<path class="st2" d="M29.3,65.9C18,65.9,8.8,56.7,8.8,45.4C8.8,34,18,24.9,29.3,24.9c11.3,0,20.5,9.2,20.5,20.5
		C49.9,56.7,40.7,65.9,29.3,65.9L29.3,65.9z"/>
	<polygon class="st0" points="45.5,40.2 34.6,40.2 34.6,29.3 24.1,29.3 24.1,40.2 13.2,40.2 13.2,50.6 24.1,50.6 24.1,61.5 
		34.6,61.5 34.6,50.6 45.5,50.6 	"/>
</g>
</svg>
