<?xml version="1.0" encoding="utf-8"?>
<!-- Generator: Adobe Illustrator 19.2.1, SVG Export Plug-In . SVG Version: 6.00 Build 0)  -->
<svg version="1.1" id="Capa_1" xmlns="http://www.w3.org/2000/svg" xmlns:xlink="http://www.w3.org/1999/xlink" x="0px" y="0px"
	 viewBox="0 0 300 140" style="enable-background:new 0 0 300 140;" xml:space="preserve">
<style type="text/css">
	.st0{fill:none;}
	.st1{fill:#E4291F;}
	.st2{fill:#90908F;}
</style>
<g>
	<rect x="5" y="6.7" class="st0" width="290.5" height="125.3"/>
	<path class="st1" d="M59.3,100.6c-21.7,0-39.4-17.6-39.4-39.4c0-21.9,17.6-39.6,39.4-39.6c21.7,0,39.4,17.6,39.4,39.5L89,61.1
		c-0.1-16.5-13.4-29.7-29.7-29.7c-16.4,0-29.7,13.3-29.7,29.9c0,16.4,13.3,29.7,29.7,29.7L59.3,100.6z"/>
	<polygon class="st2" points="109.4,130.1 109.4,108.7 88.4,108.7 88.4,130.1 78.9,130.1 78.9,80.6 88.4,80.6 88.4,100.5 
		109.4,100.5 109.4,80.6 118.9,80.6 118.9,130.1 	"/>
	<path class="st2" d="M152.7,111.7c0,7.5-3.5,11.2-8.1,11.2c-5.5,0-8.2-3.8-8.2-11.4c0-7.5,4.1-10.8,8.3-10.8
		C150.2,100.8,152.7,104.6,152.7,111.7z M162.4,111.2c0-12.6-6.7-18.3-17-18.3c-11.1,0-18.7,8.2-18.7,19.6c0,13,6.7,18.4,17.1,18.4
		C154.7,130.9,162.4,122.7,162.4,111.2z"/>
	<rect x="170" y="76.6" class="st2" width="9.4" height="53.5"/>
	<path class="st2" d="M203.3,130.8c-10.1,0-16.4-5.3-16.4-17.7c0-11.4,5.9-20.1,18.9-20.1c2.5,0,5.1,0.4,7.5,1l-1,8.2
		c-2-0.7-4.2-1.3-6.6-1.3c-6,0-9,4.4-9,11.3c0,6.3,2.4,10.5,8.7,10.5c2.5,0,5.2-0.5,7.2-1.5l0.7,8
		C210.8,130.1,207.2,130.8,203.3,130.8z"/>
	<path class="st2" d="M225.4,88.9c-3.2,0-5.8-2.6-5.8-5.7c0-3.1,2.6-5.6,5.8-5.6c3.2,0,5.9,2.5,5.9,5.6
		C231.2,86.4,228.6,88.9,225.4,88.9z M220.7,94.3h9.4v35.8h-9.4V94.3z"/>
	<path class="st2" d="M284.3,130.1v-23.1c0-3.9-0.9-6.3-4.3-6.3c-4.1,0-8.5,4.8-8.5,11.9v17.4h-9.3v-23.1c0-3.6-0.7-6.3-4.3-6.3
		c-4.3,0-8.3,5.1-8.3,11.9v17.4h-9.4V94.3h8.9c0,1.7-0.1,3.8-0.5,6h0.1c2.2-4.5,6.6-7.3,12-7.3c6.5,0,9.2,3.8,10.1,7.3
		c1.7-3.6,5.9-7.3,12-7.3c7,0,10.9,3.9,10.9,12.2v25H284.3z"/>
	<polygon points="44.4,55.6 16.3,27.3 6.9,36.7 35,64.9 	"/>
	<polygon points="63,36.7 34.9,8.6 25.6,18 53.7,46.2 	"/>
</g>
</svg>
