<?xml version="1.0" encoding="utf-8"?>
<!-- Generator: Adobe Illustrator 19.2.1, SVG Export Plug-In . SVG Version: 6.00 Build 0)  -->
<svg version="1.1" id="Capa_1" xmlns="http://www.w3.org/2000/svg" xmlns:xlink="http://www.w3.org/1999/xlink" x="0px" y="0px"
	 viewBox="0 0 250 89.7" style="enable-background:new 0 0 250 89.7;" xml:space="preserve">
<style type="text/css">
	.st0{fill:#013066;}
	.st1{fill:#CF001C;}
</style>
<g>
	<path class="st0" d="M111.8,12.1c1.1-1.5,2.1-3,3.2-4.5c-8,0-15.9,0-23.9,0c-1.4,1.9-2.8,3.8-4.2,5.7C71.5,34,56.1,54.8,40.8,75.5
		c-1.6,2.2-3.2,4.4-4.9,6.7c8.1,0,16.2,0,24.2,0c0.1-0.2,0.3-0.4,0.4-0.6C77.6,58.4,94.7,35.3,111.8,12.1z"/>
	<path class="st1" d="M42.1,31.6c-6,8.1-11.9,16.2-17.9,24.2C18.6,63.5,13,71.1,7.3,78.7c-0.8,1.1-1.6,2.1-2.4,3.3
		c0.4,0,0.7,0.1,0.9,0.1c7.5,0,15,0,22.6,0c0.5,0,0.9-0.2,1.2-0.6c0.5-0.7,1-1.4,1.5-2.1c5.8-7.9,11.6-15.7,17.4-23.6
		c5.3-7.2,10.6-14.3,15.9-21.5c5.3-7.2,10.6-14.4,15.9-21.6c1.2-1.7,2.4-3.4,3.6-5c-8,0-16,0-24.1,0c-0.1,0.1-0.2,0.3-0.3,0.4
		C53.8,15.9,48,23.8,42.1,31.6z"/>
	<path class="st0" d="M181.2,80.9c0-7.1,0-14.2,0-21.4c0-1.1,0.1-2.2,0-3.3c-0.3-3.2-2.2-5.7-6.1-5.4c-0.7,0.1-1.3,0.1-2,0.1
		c-8.4,0-16.8,0-25.2,0c-0.3,0-0.6,0-1,0c0,10.4,0,20.8,0,31.1c2.2,0,4.4,0,6.6,0c0-7.8,0-15.5,0-23.2c2.3,0,4.6,0,6.9,0
		c0,7.8,0,15.5,0,23.2c2.3,0,4.5,0,6.8,0c0-7.8,0-15.5,0-23.2c2.4,0,4.7,0,7.1,0c0,0.4,0,0.7,0,1c0,3.7,0,7.4,0,11.1
		c0,3.7,0,7.5,0,11.2c0.2,0,0.3,0,0.5,0c2.1-0.1,4.2-0.1,6.4-0.2C181.2,81.6,181.2,81.3,181.2,80.9z"/>
	<path class="st0" d="M190.7,74.2c0-5.2,0-10.3,0-15.5c7,0,13.8,0,20.7,0c0-2.6,0-5.1,0-7.7c-0.4,0-0.7,0-1,0c-7.1,0-14.2,0-21.4,0
		c-0.9,0-1.6,0.3-2.3,0.8c-2,1.6-2.9,3.8-2.9,6.3c-0.1,6.3,0,12.6,0,18.8c0,1.4,0.4,2.8,1.3,3.9c0.7,0.8,1.7,1,2.6,1.3
		c7.9,0,15.8,0,23.7,0c0-2.6,0-5.2,0-8C204.5,74.2,197.6,74.2,190.7,74.2z"/>
	<path class="st0" d="M246,51c-2,0-4,0-6.2,0c0,1.5,0,3,0,4.4c0,0.3-0.1,0.8-0.4,1c-2.8,2.5-5.7,4.9-8.6,7.3
		c-2.9-2.5-5.8-4.9-8.7-7.4c-0.2-0.2-0.3-0.6-0.3-0.9c0-1.4,0-2.9,0-4.4c-2.3,0-4.5,0-6.9,0c0,1.9,0,3.8,0,5.7c0,0.4,0.2,1,0.5,1.3
		c1.3,1.3,2.8,2.6,4.2,3.9c1.8,1.6,3.6,3.2,5.4,4.9c-0.7,0.6-1.3,1.1-1.9,1.6c-2.4,2-4.9,4-7.3,6c-0.7,0.6-1,1.2-0.9,2.1
		c0.1,1.5,0,2.9,0,4.4c0,0.4,0,0.7,0,1c2.3,0,4.5,0,6.7,0c0-1.2,0-2.3,0-3.4c0-0.5,0.1-0.9,0.6-1.2c1.3-1,2.6-2.1,3.9-3.2
		c1.5-1.2,3.1-2.5,4.6-3.7c2.9,2.4,5.7,4.7,8.5,7c0.3,0.2,0.4,0.6,0.4,1c0.1,1.2,0,2.3,0,3.5c2.3,0,4.4,0,6.6,0c0-1.9,0-3.7,0-5.5
		c0-0.9-0.3-1.6-1-2.1c-1.2-1-2.4-1.9-3.6-2.9c-1.9-1.5-3.8-3.1-5.7-4.6c1.2-1,2.3-1.9,3.4-2.8c2.3-2.1,4.7-4.1,7-6.2
		c0-2.1,0-4.3,0-6.4C246.3,51.2,246.2,51,246,51z"/>
	<path class="st0" d="M93,58.8c6.9,0,13.8,0,20.7,0c0-2.6,0-5.2,0-7.8c-0.2,0-0.4-0.1-0.6-0.1c-7.4,0-14.8,0-22.1,0
		c-0.5,0-1.2,0.2-1.6,0.5c-2.3,1.6-3.2,3.9-3.3,6.6c-0.1,6.3-0.1,12.5,0,18.8c0,1.1,0.4,2.2,0.7,3.2c0.4,1,1.2,1.7,2.3,1.8
		c0.7,0.1,1.3,0.2,2,0.2c7.2,0,14.4,0,21.6,0c0.3,0,0.6,0,0.9-0.1c0-2.6,0-5.2,0-7.8c-7,0-13.8,0-20.7,0C93,69,93,64,93,58.8z"/>
	<path class="st0" d="M123.3,58.8c7,0,13.8,0,20.7,0c0-2.6,0-5.2,0-7.9c-0.4,0-0.7,0-1.1,0c-7.1,0-14.1,0-21.2,0
		c-1.1,0-1.9,0.3-2.7,1c-1.8,1.6-2.6,3.6-2.7,6c-0.1,6.4-0.1,12.7,0,19.1c0,1,0.4,2.2,0.8,3.1c0.8,1.7,2.5,1.9,4.2,1.9
		c7.3,0,14.5,0,21.8,0c0.3,0,0.5,0,0.8-0.1c0-2.6,0-5.1,0-7.8c-7,0-13.8,0-20.7,0C123.3,69.1,123.3,64,123.3,58.8z"/>
	<path class="st0" d="M196.1,69.5c5.1,0,10.1,0,15.1,0c0-2.1,0-4.1,0-6.1c-5.1,0-10.1,0-15.1,0C196.1,65.4,196.1,67.4,196.1,69.5z"
		/>
	<path class="st0" d="M144,69.5c0-2.1,0-4.1,0-6.1c-5.1,0-10.1,0-15.1,0c0,2.1,0,4.1,0,6.1C133.9,69.5,138.9,69.5,144,69.5z"/>
</g>
</svg>
