<?xml version="1.0" encoding="utf-8"?>
<!-- Generator: Adobe Illustrator 19.2.1, SVG Export Plug-In . SVG Version: 6.00 Build 0)  -->
<svg version="1.1" id="Capa_1" xmlns="http://www.w3.org/2000/svg" xmlns:xlink="http://www.w3.org/1999/xlink" x="0px" y="0px"
	 viewBox="0 0 192.8 90" style="enable-background:new 0 0 192.8 90;" xml:space="preserve">
<style type="text/css">
	.st0{fill-rule:evenodd;clip-rule:evenodd;fill:#1D3D91;}
	.st1{fill-rule:evenodd;clip-rule:evenodd;fill:#E30613;}
</style>
<g>
	<path class="st0" d="M117.9,41c0,0.1,0,0.3,0,0.5c0,0.2,0,0.4,0,0.5c0,1.4-0.1,2.7-0.3,3.8c-0.2,1.2-0.5,2.3-1,3.3
		c-1.4,3-3.3,5.4-5.9,7.1c-2.5,1.7-5.4,2.6-8.6,2.7c-2.4,0.1-4.6-0.3-6.6-1.2c-2-0.9-3.9-2.2-5.5-3.9c-1.4-1.5-2.4-3.2-3.2-5.1
		c-0.8-1.9-1.2-3.9-1.2-6.1c-0.1-2.2,0.3-4.3,1.1-6.3c0.8-2,2-3.9,3.6-5.5c1.5-1.6,3.2-2.8,5.1-3.6c1.9-0.8,4-1.2,6.3-1.3
		c3.4-0.1,6.3,0.7,8.8,2.3c2.5,1.6,4.5,4,5.9,7.1l-7.4,0.2c-0.9-1.1-2-1.9-3.3-2.5c-1.2-0.5-2.6-0.8-4.1-0.7
		c-2.7,0.1-4.9,1.1-6.7,3.1c-1.8,2-2.7,4.4-2.6,7.2c0.1,2.8,1.1,5.2,3,7.1c1.9,1.9,4.3,2.8,7,2.7c1.9,0,3.6-0.6,5.2-1.7
		c1.5-1.1,2.6-2.5,3.3-4.3l-12.3,0.4l-0.1-5.3L117.9,41L117.9,41z"/>
	<path class="st0" d="M151,34.7l-7.5,0.2c-0.9-1.2-2-2.1-3.3-2.7c-1.2-0.6-2.6-0.9-4.2-0.8c-1.3,0-2.5,0.3-3.6,0.8
		c-1.1,0.5-2.1,1.3-3,2.2c-0.9,1-1.6,2.1-2.1,3.4c-0.5,1.3-0.7,2.6-0.7,3.9c0.1,2.9,1.1,5.3,3,7.2c1.9,1.9,4.2,2.9,6.8,2.8
		c1.6,0,2.9-0.4,4.1-1c1.2-0.6,2.2-1.5,2.9-2.6l7.5-0.2c-1.4,3.3-3.3,5.8-5.7,7.5c-2.4,1.7-5.3,2.6-8.6,2.7
		c-2.4,0.1-4.5-0.3-6.5-1.2c-2-0.9-3.8-2.2-5.5-3.9c-1.4-1.5-2.4-3.1-3.2-5c-0.7-1.9-1.1-3.9-1.2-6.1c-0.1-2.2,0.3-4.3,1.1-6.3
		c0.8-2,1.9-3.9,3.5-5.5c1.5-1.6,3.1-2.8,5-3.6c1.9-0.8,3.8-1.3,6-1.3c3.4-0.1,6.4,0.7,8.9,2.2C147.3,28.8,149.3,31.3,151,34.7
		L151,34.7z"/>
	<path class="st0" d="M184.1,33.7l-7.5,0.2c-0.9-1.2-2-2.1-3.3-2.7c-1.3-0.6-2.6-0.8-4.2-0.8c-1.3,0.1-2.5,0.3-3.6,0.8
		c-1.1,0.5-2.1,1.2-3,2.2c-0.9,1-1.6,2.1-2.1,3.4c-0.5,1.3-0.7,2.6-0.7,3.9c0.1,2.9,1.1,5.3,3,7.2c1.9,1.9,4.2,2.8,6.8,2.8
		c1.5-0.1,2.9-0.4,4.1-1c1.2-0.6,2.2-1.5,2.9-2.6l7.5-0.2c-1.4,3.3-3.3,5.8-5.7,7.5c-2.4,1.7-5.3,2.6-8.7,2.7
		c-2.3,0.1-4.5-0.3-6.5-1.2c-2-0.9-3.8-2.2-5.4-3.9c-1.4-1.4-2.5-3.1-3.2-5c-0.7-1.9-1.1-3.9-1.2-6.1c-0.1-2.2,0.3-4.3,1.1-6.3
		c0.7-2,1.9-3.8,3.5-5.5c1.5-1.6,3.1-2.8,5-3.6c1.8-0.8,3.8-1.3,5.9-1.3c3.4-0.1,6.4,0.7,8.9,2.2C180.4,27.9,182.5,30.4,184.1,33.7
		L184.1,33.7z"/>
	<polygon class="st0" points="33.1,69.1 41.8,59.7 26.2,44.6 43.3,25.9 46.8,29.2 55.5,20 43.1,7.8 8.5,44.9 33.1,69.1 	"/>
	<polygon class="st1" points="36.1,71.6 62.4,43.7 55.8,37.6 44.5,49.6 38.6,43.9 58.7,22.4 80.1,43.4 45.3,80.9 36.1,71.6 	"/>
</g>
</svg>
