<?xml version="1.0" encoding="utf-8"?>
<!-- Generator: Adobe Illustrator 19.2.1, SVG Export Plug-In . SVG Version: 6.00 Build 0)  -->
<svg version="1.1" xmlns="http://www.w3.org/2000/svg" xmlns:xlink="http://www.w3.org/1999/xlink" x="0px" y="0px"
	 viewBox="0 0 250 53.2" style="enable-background:new 0 0 250 53.2;" xml:space="preserve">
<style type="text/css">
	.st0{display:none;}
	.st1{display:inline;}
	.st2{fill:#013066;}
	.st3{fill:#CF001C;}
	.st4{fill:#013C80;}
	.st5{fill:#FF0000;}
	.st6{fill:#FF0000;stroke:#013C80;}
</style>
<g id="Capa_1" class="st0">
	<g class="st1">
		<path class="st2" d="M111.8,12.1c1.1-1.5,2.1-3,3.2-4.5c-8,0-15.9,0-23.9,0c-1.4,1.9-2.8,3.8-4.2,5.7C71.5,34,56.1,54.8,40.8,75.5
			c-1.6,2.2-3.2,4.4-4.9,6.7c8.1,0,16.2,0,24.2,0c0.1-0.2,0.3-0.4,0.4-0.6C77.6,58.4,94.7,35.3,111.8,12.1z"/>
		<path class="st3" d="M42.1,31.6c-6,8.1-11.9,16.2-17.9,24.2C18.6,63.5,13,71.1,7.3,78.7c-0.8,1.1-1.6,2.1-2.4,3.3
			c0.4,0,0.7,0.1,0.9,0.1c7.5,0,15,0,22.6,0c0.5,0,0.9-0.2,1.2-0.6c0.5-0.7,1-1.4,1.5-2.1c5.8-7.9,11.6-15.7,17.4-23.6
			c5.3-7.2,10.6-14.3,15.9-21.5c5.3-7.2,10.6-14.4,15.9-21.6c1.2-1.7,2.4-3.4,3.6-5c-8,0-16,0-24.1,0c-0.1,0.1-0.2,0.3-0.3,0.4
			C53.8,15.9,48,23.8,42.1,31.6z"/>
		<path class="st2" d="M181.2,80.9c0-7.1,0-14.2,0-21.4c0-1.1,0.1-2.2,0-3.3c-0.3-3.2-2.2-5.7-6.1-5.4c-0.7,0.1-1.3,0.1-2,0.1
			c-8.4,0-16.8,0-25.2,0c-0.3,0-0.6,0-1,0c0,10.4,0,20.8,0,31.1c2.2,0,4.4,0,6.6,0c0-7.8,0-15.5,0-23.2c2.3,0,4.6,0,6.9,0
			c0,7.8,0,15.5,0,23.2c2.3,0,4.5,0,6.8,0c0-7.8,0-15.5,0-23.2c2.4,0,4.7,0,7.1,0c0,0.4,0,0.7,0,1c0,3.7,0,7.4,0,11.1
			c0,3.7,0,7.5,0,11.2c0.2,0,0.3,0,0.5,0c2.1-0.1,4.2-0.1,6.4-0.2C181.2,81.6,181.2,81.3,181.2,80.9z"/>
		<path class="st2" d="M190.7,74.2c0-5.2,0-10.3,0-15.5c7,0,13.8,0,20.7,0c0-2.6,0-5.1,0-7.7c-0.4,0-0.7,0-1,0c-7.1,0-14.2,0-21.4,0
			c-0.9,0-1.6,0.3-2.3,0.8c-2,1.6-2.9,3.8-2.9,6.3c-0.1,6.3,0,12.6,0,18.8c0,1.4,0.4,2.8,1.3,3.9c0.7,0.8,1.7,1,2.6,1.3
			c7.9,0,15.8,0,23.7,0c0-2.6,0-5.2,0-8C204.5,74.2,197.6,74.2,190.7,74.2z"/>
		<path class="st2" d="M246,51c-2,0-4,0-6.2,0c0,1.5,0,3,0,4.4c0,0.3-0.1,0.8-0.4,1c-2.8,2.5-5.7,4.9-8.6,7.3
			c-2.9-2.5-5.8-4.9-8.7-7.4c-0.2-0.2-0.3-0.6-0.3-0.9c0-1.4,0-2.9,0-4.4c-2.3,0-4.5,0-6.9,0c0,1.9,0,3.8,0,5.7c0,0.4,0.2,1,0.5,1.3
			c1.3,1.3,2.8,2.6,4.2,3.9c1.8,1.6,3.6,3.2,5.4,4.9c-0.7,0.6-1.3,1.1-1.9,1.6c-2.4,2-4.9,4-7.3,6c-0.7,0.6-1,1.2-0.9,2.1
			c0.1,1.5,0,2.9,0,4.4c0,0.4,0,0.7,0,1c2.3,0,4.5,0,6.7,0c0-1.2,0-2.3,0-3.4c0-0.5,0.1-0.9,0.6-1.2c1.3-1,2.6-2.1,3.9-3.2
			c1.5-1.2,3.1-2.5,4.6-3.7c2.9,2.4,5.7,4.7,8.5,7c0.3,0.2,0.4,0.6,0.4,1c0.1,1.2,0,2.3,0,3.5c2.3,0,4.4,0,6.6,0c0-1.9,0-3.7,0-5.5
			c0-0.9-0.3-1.6-1-2.1c-1.2-1-2.4-1.9-3.6-2.9c-1.9-1.5-3.8-3.1-5.7-4.6c1.2-1,2.3-1.9,3.4-2.8c2.3-2.1,4.7-4.1,7-6.2
			c0-2.1,0-4.3,0-6.4C246.3,51.2,246.2,51,246,51z"/>
		<path class="st2" d="M93,58.8c6.9,0,13.8,0,20.7,0c0-2.6,0-5.2,0-7.8c-0.2,0-0.4-0.1-0.6-0.1c-7.4,0-14.8,0-22.1,0
			c-0.5,0-1.2,0.2-1.6,0.5c-2.3,1.6-3.2,3.9-3.3,6.6c-0.1,6.3-0.1,12.5,0,18.8c0,1.1,0.4,2.2,0.7,3.2c0.4,1,1.2,1.7,2.3,1.8
			c0.7,0.1,1.3,0.2,2,0.2c7.2,0,14.4,0,21.6,0c0.3,0,0.6,0,0.9-0.1c0-2.6,0-5.2,0-7.8c-7,0-13.8,0-20.7,0C93,69,93,64,93,58.8z"/>
		<path class="st2" d="M123.3,58.8c7,0,13.8,0,20.7,0c0-2.6,0-5.2,0-7.9c-0.4,0-0.7,0-1.1,0c-7.1,0-14.1,0-21.2,0
			c-1.1,0-1.9,0.3-2.7,1c-1.8,1.6-2.6,3.6-2.7,6c-0.1,6.4-0.1,12.7,0,19.1c0,1,0.4,2.2,0.8,3.1c0.8,1.7,2.5,1.9,4.2,1.9
			c7.3,0,14.5,0,21.8,0c0.3,0,0.5,0,0.8-0.1c0-2.6,0-5.1,0-7.8c-7,0-13.8,0-20.7,0C123.3,69.1,123.3,64,123.3,58.8z"/>
		<path class="st2" d="M196.1,69.5c5.1,0,10.1,0,15.1,0c0-2.1,0-4.1,0-6.1c-5.1,0-10.1,0-15.1,0C196.1,65.4,196.1,67.4,196.1,69.5z"
			/>
		<path class="st2" d="M144,69.5c0-2.1,0-4.1,0-6.1c-5.1,0-10.1,0-15.1,0c0,2.1,0,4.1,0,6.1C133.9,69.5,138.9,69.5,144,69.5z"/>
	</g>
</g>
<g id="Capa_2">
	<rect x="7.2" y="3.2" class="st4" width="43" height="43.3"/>
	<polygon class="st5" points="36.2,41.3 29.3,41.1 38.4,25.4 45.7,25.4 	"/>
	<polygon class="st5" points="26.2,41.3 19.3,41.1 28.4,25.4 35.7,25.4 	"/>
	<polygon class="st6" points="10.7,50.4 2.6,50.2 18.4,25.7 25.3,25.5 	"/>
	<g>
		<g>
			<path class="st4" d="M69.5,17.6c-0.6,0.3-2,0.6-3.7,0.6c-5.1,0-7.7-3-7.7-7c0-4.8,3.6-7.4,8-7.4c1.7,0,3,0.3,3.6,0.6L69,6.9
				c-0.7-0.3-1.6-0.5-2.8-0.5c-2.6,0-4.7,1.5-4.7,4.6c0,2.8,1.7,4.6,4.7,4.6c1,0,2.1-0.2,2.8-0.5L69.5,17.6z"/>
			<path class="st4" d="M73.7,13.9c0.1,1.3,1.5,1.9,3,1.9c1.1,0,2-0.1,2.9-0.4l0.4,2.1c-1.1,0.4-2.4,0.6-3.8,0.6
				c-3.6,0-5.7-2-5.7-5.2c0-2.6,1.7-5.4,5.4-5.4c3.4,0,4.7,2.5,4.7,5c0,0.5-0.1,1-0.1,1.3L73.7,13.9z M77.6,11.7c0-0.7-0.3-2-1.8-2
				c-1.4,0-2,1.2-2.1,2H77.6z"/>
			<path class="st4" d="M82.6,11.1c0-1.3,0-2.3-0.1-3.2h2.8l0.1,1.4h0.1c0.5-0.7,1.4-1.6,3.2-1.6c1.4,0,2.5,0.7,2.9,1.7h0
				c0.4-0.5,0.9-1,1.4-1.2c0.6-0.3,1.2-0.5,2-0.5c2,0,3.6,1.4,3.6,4.4v6h-3.2v-5.5c0-1.5-0.5-2.3-1.6-2.3c-0.8,0-1.3,0.5-1.5,1.1
				c-0.1,0.2-0.1,0.5-0.1,0.8V18H89v-5.7c0-1.3-0.5-2.1-1.5-2.1c-0.8,0-1.3,0.6-1.5,1.1c-0.1,0.2-0.1,0.5-0.1,0.8V18h-3.2V11.1z"/>
			<path class="st4" d="M103.8,13.9c0.1,1.3,1.5,1.9,3,1.9c1.1,0,2-0.1,2.9-0.4l0.4,2.1c-1.1,0.4-2.4,0.6-3.8,0.6
				c-3.6,0-5.7-2-5.7-5.2c0-2.6,1.7-5.4,5.4-5.4c3.4,0,4.7,2.5,4.7,5c0,0.5-0.1,1-0.1,1.3L103.8,13.9z M107.7,11.7
				c0-0.7-0.3-2-1.8-2c-1.4,0-2,1.2-2.1,2H107.7z"/>
			<path class="st4" d="M112.8,11.1c0-1.3,0-2.3-0.1-3.2h2.9l0.2,1.4h0.1c0.4-0.7,1.5-1.6,3.3-1.6c2.2,0,3.8,1.4,3.8,4.4v6h-3.3
				v-5.6c0-1.3-0.5-2.2-1.7-2.2c-0.9,0-1.5,0.6-1.7,1.2c-0.1,0.2-0.1,0.5-0.1,0.8V18h-3.3V11.1z"/>
			<path class="st4" d="M129.1,5.1v2.8h2.4v2.3h-2.4v3.7c0,1.2,0.3,1.8,1.3,1.8c0.5,0,0.7,0,1-0.1l0,2.4c-0.4,0.1-1.2,0.3-2.1,0.3
				c-1.1,0-2-0.4-2.5-0.9c-0.6-0.6-0.9-1.6-0.9-3v-4.2h-1.4V7.8h1.4V5.9L129.1,5.1z"/>
			<path class="st4" d="M138.1,18.2c-3.1,0-5.5-1.9-5.5-5.2c0-3.3,2.3-5.4,5.7-5.4c3.2,0,5.4,2.1,5.4,5.2
				C143.7,16.5,141,18.2,138.1,18.2L138.1,18.2z M138.2,15.9c1.3,0,2.1-1.2,2.1-3c0-1.5-0.6-3-2.1-3c-1.6,0-2.2,1.5-2.2,3
				C136,14.6,136.8,15.9,138.2,15.9L138.2,15.9z"/>
		</g>
	</g>
	<g>
		<g>
			<path class="st4" d="M65.3,37.9l-1.1,9h-6.4l1.4-21.7h9.1l2.5,11.5l4.2-11.5l8.9,0l-1.6,21.7l-6.4,0l0.6-9l-3.8,9l-5.6-0.1
				L65.3,37.9z"/>
		</g>
	</g>
	<g>
		<g>
			<path class="st4" d="M204.4,37.9l-1.1,9H197l1.4-21.7h9.1l2.5,11.5l4.2-11.5l8.9,0l-1.6,21.7l-6.4,0l0.6-9l-3.8,9l-5.6-0.1
				L204.4,37.9z"/>
		</g>
	</g>
	<path d="M74.4,49.7"/>
	<g>
		<g>
			<path class="st4" d="M95.9,46.9c-6.7,0-11.8-4-11.8-10.7c0-6.7,4.8-11,12.2-11c6.9,0,11.6,4.4,11.6,10.6
				C108,43.4,102,46.9,95.9,46.9L95.9,46.9z M96.1,42.2c2.8,0,4.5-2.5,4.5-6.2c0-3.1-1.3-6.2-4.5-6.2c-3.4,0-4.7,3.1-4.7,6.2
				C91.4,39.6,93,42.2,96.1,42.2L96.1,42.2z"/>
		</g>
	</g>
	<g>
		<g>
			<path class="st4" d="M134,30.5l-7.1,0.1l0.3-5.3h21l-0.1,5.2h-7.5l-1,16.3l-6.9-0.2L134,30.5z"/>
		</g>
	</g>
	<polygon class="st4" points="165.9,25.4 165.5,30.5 156,30.5 155.8,33.6 163,33.6 163,38.5 155.2,38.5 155.2,41.7 164.1,41.7 
		164.1,46.5 148.2,46.5 150,25.3 	"/>
	<polygon class="st4" points="167.5,25.3 167.5,30.4 174.6,30.4 166,41.6 166,46.4 182,46.4 182,41.6 173.9,41.6 183,30.6 183,25.4 
			"/>
	<path class="st4" d="M185,25.3h6.9L191,39c0,0,0,2.4,3.3,2.5c3.3,0.1,3.3-3.3,3.3-3.3l2,8.7h-7.8c0,0-7.4-0.6-7.4-5.8
		C184.3,35.9,185,25.3,185,25.3z"/>
	<g>
		<g>
			<path class="st4" d="M239.1,25.3h-6.9l-10.6,21.5h7l3.1-5.8h6.5l2,5.9h7.1L239.1,25.3z M233.5,36.6l1.4-3.9h0.8l1.1,3.9H233.5z"
				/>
		</g>
	</g>
	<path class="st4" d="M125.1,30.9l-0.2-4.7c0,0-2.1-1.1-4.8-1.1c0,0-10.2-0.5-11,11.1c0,0-0.4,10.3,10.7,10.5c0,0,4.3-0.1,5-1.3
		v-3.9c0,0-9.6,2.8-9.6-5.2S125.1,30.9,125.1,30.9z"/>
</g>
</svg>
