<svg id="Layer_1" data-name="Layer 1" xmlns="http://www.w3.org/2000/svg" viewBox="0 0 343.03 341.42"><defs><style>.cls-1{fill:#a8a8a8;}.cls-2{fill:#016380;}</style></defs><title>circulo</title><path class="cls-1" d="M119.75,130.33a65.49,65.49,0,0,1,102.86,0l92.11-53.07a171.64,171.64,0,0,0-287.07,0Z" transform="translate(0.35 0.28)"/><path class="cls-1" d="M161.7,235.2a65.06,65.06,0,0,1-51.37-88.63L18.23,93.63A169.75,169.75,0,0,0-.35,170.71c0,91.22,71.77,165.52,162,170.43Z" transform="translate(0.35 0.28)"/><path class="cls-2" d="M324.06,93.63l-92,52.94a65.08,65.08,0,0,1-51.44,88.63V341.14c90.29-4.86,162.06-79.21,162.06-170.44A169,169,0,0,0,324.1,93.62" transform="translate(0.35 0.28)"/></svg>