<svg id="Capa_1" data-name="Capa 1" xmlns="http://www.w3.org/2000/svg" xmlns:xlink="http://www.w3.org/1999/xlink" viewBox="0 0 485.99 338.93">
  <defs>
    <style>
      .cls-1 {
        fill: url(#Degradado_sin_nombre_7);
      }

      .cls-2 {
        fill: url(#Degradado_sin_nombre_7-2);
      }

      .cls-3 {
        fill: #bebebe;
      }

      .cls-4 {
        fill: url(#Degradado_sin_nombre_7-3);
      }

      .cls-5 {
        fill: #0073a5;
      }

      .cls-6 {
        fill: #0f75b6;
      }
    </style>
    <linearGradient id="Degradado_sin_nombre_7" data-name="Degradado sin nombre 7" x1="169.1" y1="297.39" x2="267.68" y2="297.39" gradientTransform="matrix(1, 0, 0, -1, -6.88, 492.16)" gradientUnits="userSpaceOnUse">
      <stop offset="0" stop-color="#308ec7"/>
      <stop offset="1" stop-color="#62c4dd"/>
    </linearGradient>
    <linearGradient id="Degradado_sin_nombre_7-2" x1="263.71" y1="289.7" x2="499.47" y2="289.7" xlink:href="#Degradado_sin_nombre_7"/>
    <linearGradient id="Degradado_sin_nombre_7-3" x1="171.34" y1="424.83" x2="496.69" y2="424.83" xlink:href="#Degradado_sin_nombre_7"/>
  </defs>
  <title>logo_sesenta</title>
  <path class="cls-1" d="M191.1,187.31c-28.18-24.32-26.71-51.76-26.71-51.76a91.89,91.89,0,0,0,13.84,71.64,144.81,144.81,0,0,0,53.46,40.1C236.92,249.87,249,254,249,254c12.08-12.14,11.6-31.63,11.6-32h-0.73s-3.2-1-8.05-2.78a176.44,176.44,0,0,1-50.87-24.41A102,102,0,0,1,191.1,187.31Z" transform="translate(-6.59 -4.73)"/>
  <path class="cls-2" d="M491.29,146.54c-8.56,49.4-77.74,84.29-153.88,83.65v-0.38l-7.41.35a214.91,214.91,0,0,1-63.9-7,61.35,61.35,0,0,1-9.27,33.42c32,8.05,37,7.29,45,8.4,9.94,1.41,42.43.45,66.46-3.61s57.51-16,81.25-33.58c39.46-29.49,43.81-65.09,43-88.41A52.05,52.05,0,0,1,491.29,146.54Z" transform="translate(-6.59 -4.73)"/>
  <path class="cls-3" d="M432.72,63.08c-2.91-1.34-5.88-2.62-8.88-3.9a256.67,256.67,0,0,0-95.41-18.76q-13.26,0-25.75,1.21a387.64,387.64,0,0,0-40,7.09,199.35,199.35,0,0,0-47.93,19.55,181.55,181.55,0,0,0-21.63,15.18l86.27,29.27c11.47-8.37,29.17-13.8,49.08-13.8s37.64,5.4,49.11,13.8l88-29.36-0.77-.67A145.48,145.48,0,0,0,432.72,63.08Z" transform="translate(-6.59 -4.73)"/>
  <path class="cls-3" d="M165.16,129.89a28.12,28.12,0,0,0-.54,5.18c0,22.37,13.64,43.3,36.33,59.65a176.44,176.44,0,0,0,50.87,24.51,256.8,256.8,0,0,0,67.61,11V170.82c-30.26-2.52-53.55-17.54-53.55-35.72a23.48,23.48,0,0,1,4.47-13.36L183.85,92.41A89.47,89.47,0,0,0,170.56,114a150.4,150.4,0,0,0-5.27,16.3v-0.35Z" transform="translate(-6.59 -4.73)"/>
  <path class="cls-4" d="M488.06,94.87c-3.2-20.23-12-28.15-19.87-39-16-17.7-33.93-27.8-55.63-36.84-26-11.57-53.94-13.1-63.9-14.09a303.54,303.54,0,0,0-63.2,4.35c-27.7,4.92-63.9,21-80.9,35.75S176,74.65,171.67,85.48a79.31,79.31,0,0,0-6.39,44.45,75.15,75.15,0,0,1,5.34-16,61.48,61.48,0,0,1,10.26-18.37,82.5,82.5,0,0,1,12.27-12.14h-0.26a158.93,158.93,0,0,1,21.89-15.08,185.83,185.83,0,0,1,27.73-13.87,170.17,170.17,0,0,1,20.32-5.69,243.57,243.57,0,0,1,39.81-7.32,205,205,0,0,1,26.17-1.66,283,283,0,0,1,64.45,8.6,250.63,250.63,0,0,1,30.42,10.74q4.6,1.89,8.88,3.9A162.35,162.35,0,0,1,453.71,74.3a99.05,99.05,0,0,1,10.86,8.34l0.8,0.67h0a98.77,98.77,0,0,1,8.82,9.07h0a76.49,76.49,0,0,1,11.63,17.35,56.46,56.46,0,0,1,3.2,6.77S491.32,115,488.06,94.87Z" transform="translate(-6.59 -4.73)"/>
  <path class="cls-5" d="M492.15,133.79a37.49,37.49,0,0,0-.42-5,61.6,61.6,0,0,0-5.66-19.17,76.49,76.49,0,0,0-11.63-17.35h0l-87.77,29.27a23.52,23.52,0,0,1,4.44,13.36c0,18.18-23.26,33.2-53.55,35.72V230c76.14,0.64,145.32-34.25,153.88-83.65a60.71,60.71,0,0,0,.89-11.47A3.9,3.9,0,0,0,492.15,133.79Z" transform="translate(-6.59 -4.73)"/>
  <path class="cls-6" d="M188.93,48.38S89,87.62,30.77,177.92c-8.66,12.78-20.23,34.92-20.7,46a206,206,0,0,1-2.88,20.48s6.71-22.62,39.94-46.94,87.9-27.61,80.39-27.19,29.17-2.43,54.32,4.06A138,138,0,0,1,234.52,198c25.56,19.71,24.38,35.59,24.38,35.59s5.88-17.25-8.08-40.83c-13.71-21.66-39.72-33.71-39.72-33.71-18.05-9.87-47.42-14.92-69.34-15.4-26.71-1-59,10.83-59,10.83a204.17,204.17,0,0,1,36.84-35.15,245,245,0,0,1,42.62-27.93C168.48,69.34,188.93,48.38,188.93,48.38Z" transform="translate(-6.59 -4.73)"/>
  <path class="cls-6" d="M6.64,250.64A77.58,77.58,0,0,0,18,293.9c11.06,16.77,36.87,34.8,58,41.54a190.47,190.47,0,0,0,100.17,2.88c15.75-4.22,46.71-14.22,70.77-40.67a65.31,65.31,0,0,0,16.36-31.54,95,95,0,0,0,1.37-28.21c-3.51,8.21-8.6,30.61-38.34,51.79-24.06,17.09-51.76,25.27-86.69,27.7-23.1,1.6-65.6-3.83-94.13-21.44C14.53,277.06,8.37,256.17,6.64,250.64Z" transform="translate(-6.59 -4.73)"/>
</svg>
