<svg id="Capa_1" data-name="Capa 1" xmlns="http://www.w3.org/2000/svg" viewBox="0 0 1428.38 347.86">
  <defs>
    <style>
      .cls-1 {
        fill: #fff;
      }
    </style>
  </defs>
  <title>logo-blanco</title>
  <rect class="cls-1" x="425.03" y="100.81" width="60.12" height="173.21"/>
  <path class="cls-1" d="M519.86,100.81h54.7v31.91h0.64c12-25,36.06-35.92,63.37-35.92,24.7,0,45.06,10.65,54.37,33.25,14-23.29,37.08-33.25,61.71-33.25,50,0,61.4,28.26,61.4,75.17V274H756V180.91c0-19.58-7-34.2-24-34.2-21.38,0-34,16.92-34,54.18V274H638V180.91c0-19.58-7-34.2-24.06-34.2-21.31,0-34,16.92-34,54.18V274H519.86V100.81Z" transform="translate(0 0)"/>
  <path class="cls-1" d="M989.48,150.35c-11-6.65-22-9.64-36.37-9.64-26,0-46,17.93-46,47.86,0,27.59,23.35,45.59,49.32,45.59,13.67,0,27.39-3,37.39-8.29l1.28,44.54A162.87,162.87,0,0,1,946.16,278c-57.38,0-101.09-33.18-101.09-90.43,0-57.5,43.71-90.75,101.09-90.75,18,0,33.93,3,47.65,9.69Z" transform="translate(0 0)"/>
  <path class="cls-1" d="M1353.17,150.35c-11-6.65-22-9.64-36.37-9.64-26,0-46,17.93-46,47.86,0,27.63,23.34,45.56,49.4,45.56,13.65,0,27.3-3,37.34-8.29l1.33,44.54A163,163,0,0,1,1309.8,278c-57.38,0-101-33.18-101-90.43,0-57.5,43.64-90.75,101-90.75,18,0,34.07,3,47.74,9.69Z" transform="translate(0 0)"/>
  <path class="cls-1" d="M1022.67,298.33a73.43,73.43,0,0,0,23.67,3.63c14.76,0,26-8.67,30.38-24L1006.34,100.8H1071l37.39,113h0.63l35.67-113h60.06L1141.12,262c-17,43.59-30,85.84-85.06,85.84a175,175,0,0,1-37.34-4Z" transform="translate(0 0)"/>
  <path class="cls-1" d="M120.1,130.61a65.46,65.46,0,0,1,102.86,0l92.11-53.07A171.64,171.64,0,0,0,28,77.54Z" transform="translate(0 0)"/>
  <path class="cls-1" d="M162.05,235.48a65.06,65.06,0,0,1-51.37-88.63L18.58,93.91A169.75,169.75,0,0,0,0,171c0,91.19,71.77,165.49,162.05,170.4V235.48Z" transform="translate(0 0)"/>
  <path class="cls-1" d="M324.41,93.91l-92,52.94A65,65,0,0,1,181,235.48V341.42c90.26-4.86,162-79.21,162-170.4a169,169,0,0,0-18.58-77.08" transform="translate(0 0)"/>
  <path class="cls-1" d="M1391.57,112.48a21.56,21.56,0,1,0,15.29-6.32,20.83,20.83,0,0,0-15.28,6.35m2.78,28.37a19.65,19.65,0,0,1,0-26.18,17.37,17.37,0,0,1,24.56-.44c0.15,0.14.3,0.29,0.44,0.44a19.7,19.7,0,0,1,0,26.22,17.44,17.44,0,0,1-24.65.35c-0.12-.11-0.23-0.23-0.35-0.35m4.23-.45h4.13V129.16h3.47l7,11.21h4.41l-7.19-11.2a6.1,6.1,0,0,0,4.76-2,7.25,7.25,0,0,0,1.77-5.07q0-7.12-8.69-7.13h-9.71v25.45Zm4.13-22.11h4.92a7.3,7.3,0,0,1,3.75.87,3.06,3.06,0,0,1,1.47,2.85c0,1.56-.44,2.6-1.29,3.15a7.5,7.5,0,0,1-3.92.81h-4.92v-7.67h0Z" transform="translate(0 0)"/>
</svg>
