<svg id="Capa_1" data-name="Capa 1" xmlns="http://www.w3.org/2000/svg" viewBox="0 0 1428.37 347.85"><defs><style>.cls-1{fill:#016380;}.cls-2{fill:#a8a8a8;}</style></defs><title>logo</title><rect class="cls-1" x="425.03" y="100.81" width="60.12" height="173.21"/><path class="cls-1" d="M519.86,100.79h54.7V132.7h.64c12-25,36.06-35.92,63.37-35.92,24.7,0,45.06,10.65,54.37,33.25,14-23.29,37.08-33.25,61.71-33.25,50,0,61.4,28.26,61.4,75.17V274H756V180.89c0-19.58-7-34.2-24-34.2-21.38,0-34,16.92-34,54.18V274H638V180.89c0-19.58-7-34.2-24.06-34.2-21.31,0-34,16.92-34,54.18V274H519.86Z" transform="translate(0 0.02)"/><path class="cls-1" d="M989.48,150.33c-11-6.65-22-9.64-36.37-9.64-26,0-46,17.93-46,47.86,0,27.59,23.35,45.59,49.32,45.59,13.67,0,27.39-3,37.39-8.29l1.28,44.54A162.87,162.87,0,0,1,946.16,278c-57.38,0-101.09-33.18-101.09-90.43,0-57.5,43.71-90.75,101.09-90.75,18,0,33.93,3,47.65,9.69Z" transform="translate(0 0.02)"/><path class="cls-1" d="M1353.17,150.33c-11-6.65-22-9.64-36.37-9.64-26,0-46,17.93-46,47.86,0,27.63,23.34,45.56,49.4,45.56,13.65,0,27.3-3,37.34-8.29l1.33,44.54A163,163,0,0,1,1309.8,278c-57.38,0-101-33.18-101-90.43,0-57.5,43.64-90.75,101-90.75,18,0,34.07,3,47.74,9.69Z" transform="translate(0 0.02)"/><path class="cls-1" d="M1022.67,298.31a73.43,73.43,0,0,0,23.67,3.63c14.76,0,26-8.67,30.38-24l-70.38-177.16h64.71l37.39,113h.63l35.67-113h60.06L1141.12,262c-17,43.59-30,85.84-85.06,85.84a175,175,0,0,1-37.34-4Z" transform="translate(0 0.02)"/><path class="cls-2" d="M120.1,130.59a65.46,65.46,0,0,1,102.86,0l92.11-53.07A171.64,171.64,0,0,0,28,77.52Z" transform="translate(0 0.02)"/><path class="cls-2" d="M162.05,235.46a65.06,65.06,0,0,1-51.37-88.63L18.58,93.89A169.75,169.75,0,0,0,0,171C0,262.19,71.77,336.49,162.05,341.4Z" transform="translate(0 0.02)"/><path class="cls-1" d="M324.41,93.89l-92,52.94A65,65,0,0,1,181,235.46V341.4C271.26,336.54,343,262.19,343,171a169,169,0,0,0-18.58-77.08" transform="translate(0 0.02)"/><path class="cls-1" d="M1391.57,112.46a21.56,21.56,0,1,0,15.29-6.32,20.83,20.83,0,0,0-15.28,6.35m2.78,28.37a19.65,19.65,0,0,1,0-26.18,17.37,17.37,0,0,1,24.56-.44c.15.14.3.29.44.44a19.7,19.7,0,0,1,0,26.22,17.44,17.44,0,0,1-24.65.35c-.12-.11-.23-.23-.35-.35m4.23-.45h4.13V129.14h3.47l7,11.21h4.41l-7.19-11.2a6.1,6.1,0,0,0,4.76-2,7.25,7.25,0,0,0,1.77-5.07q0-7.12-8.69-7.13h-9.71v25.45Zm4.13-22.11h4.92a7.3,7.3,0,0,1,3.75.87,3.06,3.06,0,0,1,1.47,2.85c0,1.56-.44,2.6-1.29,3.15a7.5,7.5,0,0,1-3.92.81h-4.92v-7.67Z" transform="translate(0 0.02)"/></svg>